<svg version="1.1" xmlns="http://www.w3.org/2000/svg" xmlns:xlink="http://www.w3.org/1999/xlink" width="35.98884" height="35.98884" viewBox="0,0,35.98884,35.98884"><g transform="translate(-362.71621,-314.90995)"><g data-paper-data="{&quot;isPaintingLayer&quot;:true}" fill-rule="nonzero" stroke="none" stroke-width="1" stroke-linecap="butt" stroke-linejoin="miter" stroke-miterlimit="10" stroke-dasharray="" stroke-dashoffset="0" style="mix-blend-mode: normal"><path d="M365.08581,318.30109l1.20408,-1.20408h28.89784l1.20407,1.20408v28.89784l-1.20407,1.20407h-28.89784l-1.20408,-1.20407v-28.89784M366.2899,319.50518v26.48968l1.20407,1.20408h26.48968l1.20408,-1.20408v-26.48968l-1.20408,-1.20407h-26.48968l-1.20407,1.20407" fill="#647685"/><path d="M368.09601,319.50518c-0.24087,0.00338 -0.45652,0.15002 -0.54824,0.37276c-0.09171,0.22274 -0.04183,0.4787 0.12681,0.65071l0.42143,0.18061l0.42143,-0.18061l0.18061,-0.42143l-0.18061,-0.42143c-0.11115,-0.11343 -0.26262,-0.17836 -0.42143,-0.18062M366.2899,319.50518l1.20407,-1.20407h26.48968l1.20408,1.20407v26.48968l-1.20408,1.20408h-26.48968l-1.20407,-1.20408v-26.48968M368.09601,344.7908c-0.24087,0.00338 -0.45652,0.15003 -0.54824,0.37277c-0.09171,0.22274 -0.04183,0.4787 0.12681,0.65071l0.42143,0.18061l0.42143,-0.18061l0.18061,-0.42143l-0.18061,-0.42143c-0.11115,-0.11343 -0.26262,-0.17836 -0.42143,-0.18062M393.38162,344.7908c-0.24087,0.00338 -0.45652,0.15003 -0.54824,0.37277c-0.09171,0.22274 -0.04183,0.4787 0.12681,0.65071l0.42143,0.18061l0.42143,-0.18061l0.18061,-0.42143l-0.18061,-0.42143c-0.11115,-0.11343 -0.26262,-0.17836 -0.42143,-0.18062M393.38162,319.50518c-0.24087,0.00338 -0.45652,0.15002 -0.54824,0.37276c-0.09171,0.22274 -0.04183,0.4787 0.12681,0.65071l0.42143,0.18061l0.42143,-0.18061l0.18061,-0.42143l-0.18061,-0.42143c-0.11115,-0.11343 -0.26262,-0.17836 -0.42143,-0.18062" fill="#94afc6"/><path d="M397.57973,325.03214v15.74447c0.30639,-0.0033 0.60087,0.11855 0.81533,0.33739c0.20814,0.20793 0.32022,0.49322 0.30926,0.78722v6.74764c0.01076,0.30232 -0.10072,0.59621 -0.30926,0.81533l-1.12461,1.12461c-0.21912,0.20854 -0.51303,0.32004 -0.81533,0.30926h-6.74764c-0.29402,0.01095 -0.57929,-0.10112 -0.78722,-0.30926c-0.21884,-0.21447 -0.34069,-0.50895 -0.33739,-0.81533h-15.74447c0.0033,0.30639 -0.11855,0.60087 -0.33739,0.81533c-0.20793,0.20814 -0.49322,0.32022 -0.78722,0.30926h-6.74764c-0.30232,0.01076 -0.59621,-0.10072 -0.81533,-0.30926l-1.12461,-1.12461c-0.20854,-0.21912 -0.32004,-0.51303 -0.30926,-0.81533v-6.74764c-0.01095,-0.29402 0.10112,-0.57929 0.30926,-0.78722c0.21447,-0.21884 0.50895,-0.34069 0.81533,-0.33739v-15.74447c-0.30639,0.0033 -0.60087,-0.11855 -0.81533,-0.33739c-0.20814,-0.20793 -0.32022,-0.49322 -0.30926,-0.78722v-6.74764c-0.01076,-0.30232 0.10072,-0.59621 0.30926,-0.81533l1.12461,-1.12461c0.21912,-0.20854 0.51303,-0.32004 0.81533,-0.30926h6.74764c0.29402,-0.01095 0.57929,0.10112 0.78722,0.30926c0.21884,0.21447 0.34069,0.50895 0.33739,0.81533h15.74447c-0.0033,-0.30639 0.11855,-0.60087 0.33739,-0.81533c0.20793,-0.20814 0.49322,-0.32022 0.78722,-0.30926h6.74764c0.30232,-0.01076 0.59621,0.10072 0.81533,0.30926l1.12461,1.12461c0.20854,0.21912 0.32004,0.51303 0.30926,0.81533v6.74764c0.01095,0.29402 -0.10112,0.57929 -0.30926,0.78722c-0.21447,0.21884 -0.50895,0.34069 -0.81533,0.33739M391.95671,316.03529h-2.24921l1.12461,1.12461h3.37382l1.12461,1.12461h-1.12461v1.12461h1.12461v-1.12461l1.12461,1.12461v3.37382l1.12461,1.12461v-6.74764l-1.12461,-1.12461h-4.49842M393.08132,319.40911v-1.12461h-2.24921c-0.29911,0.00804 -0.58676,-0.11524 -0.78722,-0.33739l-0.78722,-0.78722h-17.094l-0.78722,0.78722c-0.20046,0.22214 -0.48811,0.34541 -0.78722,0.33739h-2.24921v1.12461c0.00804,0.29911 -0.11524,0.58676 -0.33739,0.78722c-0.20046,0.22214 -0.48811,0.34541 -0.78722,0.33739h-1.12461v2.24921c0.00804,0.29911 -0.11524,0.58676 -0.33739,0.78722l-0.78722,0.78722v17.094l0.78722,0.78722c0.22214,0.20046 0.34541,0.48811 0.33739,0.78722v2.24921h1.12461c0.29911,-0.00804 0.58676,0.11524 0.78722,0.33739c0.22214,0.20046 0.34541,0.48811 0.33739,0.78722v1.12461h2.24921c0.29911,-0.00804 0.58676,0.11524 0.78722,0.33739l0.78722,0.78722h17.094l0.78722,-0.78722c0.20046,-0.22214 0.48811,-0.34541 0.78722,-0.33739h2.24921v-1.12461c0.01482,-0.61486 0.50975,-1.10979 1.12461,-1.12461h1.12461v-2.24921c-0.00804,-0.29911 0.11524,-0.58676 0.33739,-0.78722l0.78722,-0.78722v-17.094l-0.78722,-0.78722c-0.22214,-0.20046 -0.34541,-0.48811 -0.33739,-0.78722v-2.24921h-1.12461c-0.29911,0.00804 -0.58676,-0.11524 -0.78722,-0.33739c-0.22214,-0.20046 -0.34541,-0.48811 -0.33739,-0.78722M397.57973,344.15043v-2.24921l-1.12461,1.12461v3.37382l-1.12461,1.12461v-1.12461h-1.12461v1.12461h1.12461l-1.12461,1.12461h-3.37382l-1.12461,1.12461h6.74764l1.12461,-1.12461v-4.49842M367.21539,316.03529h-2.24921l-1.12461,1.12461v6.74764l1.12461,-1.12461v-3.37382l1.12461,-1.12461v1.12461h1.12461v-1.12461h-1.12461l1.12461,-1.12461h3.37382l1.12461,-1.12461h-4.49842M364.96618,344.15043v-1.12461l-1.12461,-1.12461v6.74764l1.12461,1.12461h6.74764l-1.12461,-1.12461h-3.37382l-1.12461,-1.12461h1.12461v-1.12461h-1.12461v1.12461l-1.12461,-1.12461v-2.24921" fill="#515f6b"/><path d="M364.96618,344.15043v2.24921h-1.12461v-2.24921h1.12461M391.95671,317.1599v-1.12461h2.24921v1.12461h-2.24921M397.57973,319.40911v2.24921h-1.12461v-2.24921h1.12461M368.34,319.40911v-1.12461h2.24921c0.29911,0.00804 0.58676,-0.11524 0.78722,-0.33739l0.78722,-0.78722h17.094l0.78722,0.78722c0.20046,0.22214 0.48811,0.34541 0.78722,0.33739h2.24921v1.12461h-24.74132M394.20591,320.53371h1.12461v2.24921c-0.00804,0.29911 0.11524,0.58676 0.33739,0.78722l0.78722,0.78722v17.094l-0.78722,0.78722c-0.22214,0.20046 -0.34541,0.48811 -0.33739,0.78722v2.24921h-1.12461v-24.74132M393.08132,346.39964v1.12461h-2.24921c-0.29911,-0.00804 -0.58676,0.11524 -0.78722,0.33739l-0.78722,0.78722h-17.094l-0.78722,-0.78722c-0.20046,-0.22214 -0.48811,-0.34541 -0.78722,-0.33739h-2.24921v-1.12461h24.74132M367.21539,345.27504h-1.12461v-2.24921c0.00804,-0.29911 -0.11524,-0.58676 -0.33739,-0.78722l-0.78722,-0.78722v-17.094l0.78722,-0.78722c0.22214,-0.20046 0.34541,-0.48811 0.33739,-0.78722v-2.24921h1.12461v24.74132M391.3944,321.65832c0.14832,0.00212 0.2898,0.06275 0.39361,0.16869l0.16869,0.39361l-0.16869,0.39361l-0.39361,0.16869c-0.31055,0 -0.5623,-0.25175 -0.5623,-0.5623c0,-0.31055 0.25175,-0.5623 0.5623,-0.5623M391.3944,343.02583c0.14832,0.00212 0.2898,0.06275 0.39361,0.16869l0.16869,0.39361l-0.16869,0.39361l-0.39361,0.16869c-0.31055,0 -0.5623,-0.25175 -0.5623,-0.5623c0,-0.31055 0.25175,-0.5623 0.5623,-0.5623M397.57973,344.15043v2.24921h-1.12461v-2.24921h1.12461M394.20591,349.77345h-2.24921v-1.12461h2.24921v1.12461M367.21539,316.03529h2.24921v1.12461h-2.24921v-1.12461M364.96618,319.40911v2.24921h-1.12461v-2.24921h1.12461M370.0269,321.65832c0.14832,0.00212 0.2898,0.06275 0.39361,0.16869l0.16869,0.39361l-0.16869,0.39361c-0.10381,0.10595 -0.24529,0.16658 -0.39361,0.16869l-0.39361,-0.16869l-0.16869,-0.39361c0,-0.31055 0.25175,-0.5623 0.5623,-0.5623M367.21539,348.64884h2.24921v1.12461h-2.24921v-1.12461M370.0269,343.02583c0.14832,0.00212 0.2898,0.06275 0.39361,0.16869l0.16869,0.39361l-0.16869,0.39361c-0.10381,0.10595 -0.24529,0.16658 -0.39361,0.16869l-0.39361,-0.16869l-0.16869,-0.39361c0,-0.31055 0.25175,-0.5623 0.5623,-0.5623" fill="#778d9f"/><path d="M370.0269,343.02583c-0.31055,0 -0.5623,0.25175 -0.5623,0.5623l0.16869,0.39361l0.39361,0.16869c0.14832,-0.00212 0.2898,-0.06275 0.39361,-0.16869l0.16869,-0.39361l-0.16869,-0.39361c-0.10381,-0.10595 -0.24529,-0.16658 -0.39361,-0.16869M391.95671,317.1599h-1.12461l-1.12461,-1.12461h2.24921v1.12461M394.20591,316.03529h2.24921l1.12461,1.12461v2.24921h-1.12461l-1.12461,-1.12461v1.12461h-1.12461v-1.12461h1.12461l-1.12461,-1.12461v-1.12461M397.57973,321.65832v2.24921l-1.12461,-1.12461v-1.12461h1.12461M368.34,321.65832l1.12461,-1.12461h22.49211l1.12461,1.12461v22.49211l-1.12461,1.12461h-22.49211l-1.12461,-1.12461v-22.49211M391.3944,343.02583c-0.31055,0 -0.5623,0.25175 -0.5623,0.5623c0,0.31055 0.25175,0.5623 0.5623,0.5623l0.39361,-0.16869l0.16869,-0.39361l-0.16869,-0.39361c-0.10381,-0.10595 -0.24529,-0.16658 -0.39361,-0.16869M391.3944,321.65832c-0.31055,0 -0.5623,0.25175 -0.5623,0.5623c0,0.31055 0.25175,0.5623 0.5623,0.5623l0.39361,-0.16869l0.16869,-0.39361l-0.16869,-0.39361c-0.10381,-0.10595 -0.24529,-0.16658 -0.39361,-0.16869M396.45513,344.15043v-1.12461l1.12461,-1.12461v2.24921h-1.12461M397.57973,346.39964v2.24921l-1.12461,1.12461h-2.24921v-1.12461l1.12461,-1.12461h-1.12461v-1.12461h1.12461v1.12461l1.12461,-1.12461h1.12461M391.95671,349.77345h-2.24921l1.12461,-1.12461h1.12461v1.12461M363.84157,319.40911v-2.24921l1.12461,-1.12461h2.24921v1.12461l-1.12461,1.12461h1.12461v1.12461h-1.12461v-1.12461l-1.12461,1.12461h-1.12461M369.4646,316.03529h2.24921l-1.12461,1.12461h-1.12461v-1.12461M364.96618,321.65832v1.12461l-1.12461,1.12461v-2.24921h1.12461M370.0269,321.65832c-0.31055,0 -0.5623,0.25175 -0.5623,0.5623l0.16869,0.39361l0.39361,0.16869c0.14832,-0.00212 0.2898,-0.06275 0.39361,-0.16869l0.16869,-0.39361l-0.16869,-0.39361c-0.10381,-0.10595 -0.24529,-0.16658 -0.39361,-0.16869M363.84157,344.15043v-2.24921l1.12461,1.12461v1.12461h-1.12461M364.96618,346.39964l1.12461,1.12461v-1.12461h1.12461v1.12461h-1.12461l1.12461,1.12461v1.12461h-2.24921l-1.12461,-1.12461v-2.24921h1.12461M369.4646,348.64884h1.12461l1.12461,1.12461h-2.24921v-1.12461" fill="#94afc6"/><path d="M393.08132,319.40911c-0.00804,0.29911 0.11524,0.58676 0.33739,0.78722c0.20046,0.22214 0.48811,0.34541 0.78722,0.33739v24.74132c-0.61486,0.01482 -1.10979,0.50975 -1.12461,1.12461h-24.74132c0.00804,-0.29911 -0.11524,-0.58676 -0.33739,-0.78722c-0.20046,-0.22214 -0.48811,-0.34541 -0.78722,-0.33739v-24.74132c0.29911,0.00804 0.58676,-0.11524 0.78722,-0.33739c0.22214,-0.20046 0.34541,-0.48811 0.33739,-0.78722h24.74132M368.34,321.65832v22.49211l1.12461,1.12461h22.49211l1.12461,-1.12461v-22.49211l-1.12461,-1.12461h-22.49211l-1.12461,1.12461" fill="#647685"/></g></g></svg>