<svg version="1.1" xmlns="http://www.w3.org/2000/svg" xmlns:xlink="http://www.w3.org/1999/xlink" width="192.04746" height="192.04746" viewBox="0,0,192.04746,192.04746"><defs><radialGradient cx="186.58443" cy="129.63365" r="9.879" gradientUnits="userSpaceOnUse" id="color-1"><stop offset="0" stop-color="#2fff00"/><stop offset="1" stop-color="#2fff00" stop-opacity="0"/></radialGradient><radialGradient cx="178.70257" cy="123.79968" r="5.61674" gradientUnits="userSpaceOnUse" id="color-2"><stop offset="0" stop-color="#30ff00"/><stop offset="1" stop-color="#30ff00" stop-opacity="0"/></radialGradient><radialGradient cx="194.15616" cy="123.67536" r="5.61674" gradientUnits="userSpaceOnUse" id="color-3"><stop offset="0" stop-color="#30ff00"/><stop offset="1" stop-color="#30ff00" stop-opacity="0"/></radialGradient><radialGradient cx="191.7726" cy="238.59998" r="14.58675" gradientUnits="userSpaceOnUse" id="color-4"><stop offset="0" stop-color="#00b5ff"/><stop offset="1" stop-color="#00b5ff" stop-opacity="0"/></radialGradient><radialGradient cx="198.07077" cy="234.14916" r="7.94117" gradientUnits="userSpaceOnUse" id="color-5"><stop offset="0" stop-color="#00b5ff"/><stop offset="1" stop-color="#00b5ff" stop-opacity="0"/></radialGradient><radialGradient cx="185.4826" cy="233.07018" r="7.94117" gradientUnits="userSpaceOnUse" id="color-6"><stop offset="0" stop-color="#00b5ff"/><stop offset="1" stop-color="#00b5ff" stop-opacity="0"/></radialGradient></defs><g transform="translate(-143.97625,-83.97626)"><g data-paper-data="{&quot;isPaintingLayer&quot;:true}" fill-rule="nonzero" stroke-linejoin="miter" stroke-miterlimit="10" stroke-dasharray="" stroke-dashoffset="0" style="mix-blend-mode: normal"><path d="M156.62115,102.07246l6.42534,-6.42534h154.20771l6.42529,6.42534v154.20771l-6.42529,6.42529h-154.20771l-6.42534,-6.42529v-154.20771M163.04654,108.49781v141.35703l6.42529,6.42534h141.35703l6.42534,-6.42534v-141.35703l-6.42534,-6.42529h-141.35703l-6.42529,6.42529" fill="#647685" stroke="none" stroke-width="1" stroke-linecap="butt"/><path d="M172.6845,108.49781c-1.28535,0.01804 -2.43612,0.80056 -2.92557,1.98915c-0.4894,1.18861 -0.22322,2.55449 0.67669,3.47239l2.24888,0.96379l2.24888,-0.96379l0.96379,-2.24888l-0.96379,-2.24888c-0.59313,-0.6053 -1.40142,-0.95178 -2.24888,-0.96385M163.04654,108.49781l6.42529,-6.42529h141.35703l6.42534,6.42529v141.35703l-6.42534,6.42534h-141.35703l-6.42529,-6.42534v-141.35703M172.6845,243.42961c-1.28535,0.01804 -2.43612,0.8006 -2.92557,1.98922c-0.4894,1.18861 -0.22322,2.55449 0.67669,3.47239l2.24888,0.96379l2.24888,-0.96379l0.96379,-2.24888l-0.96379,-2.24888c-0.59313,-0.6053 -1.40142,-0.95178 -2.24888,-0.96385M307.61624,243.42961c-1.28535,0.01804 -2.43612,0.8006 -2.92557,1.98922c-0.4894,1.18861 -0.22322,2.55449 0.67669,3.47239l2.24888,0.96379l2.24888,-0.96379l0.96379,-2.24888l-0.96379,-2.24888c-0.59313,-0.6053 -1.40142,-0.95178 -2.24888,-0.96385M307.61624,108.49781c-1.28535,0.01804 -2.43612,0.80056 -2.92557,1.98915c-0.4894,1.18861 -0.22322,2.55449 0.67669,3.47239l2.24888,0.96379l2.24888,-0.96379l0.96379,-2.24888l-0.96379,-2.24888c-0.59313,-0.6053 -1.40142,-0.95178 -2.24888,-0.96385" fill="#94afc6" stroke="none" stroke-width="1" stroke-linecap="butt"/><path d="M330.01865,137.99135v84.0173c1.63499,-0.01761 3.20642,0.63262 4.35085,1.80042c1.1107,1.10958 1.70879,2.63198 1.6503,4.20085v36.00747c0.05741,1.61328 -0.53747,3.18155 -1.6503,4.35085l-6.00127,6.00127c-1.1693,1.11284 -2.73769,1.70783 -4.35085,1.6503h-36.00747c-1.56897,0.05843 -3.09126,-0.5396 -4.20085,-1.6503c-1.1678,-1.14448 -1.81803,-2.71591 -1.80042,-4.35085h-84.0173c0.01761,1.63499 -0.63262,3.20642 -1.80042,4.35085c-1.10958,1.1107 -2.63198,1.70879 -4.20085,1.6503h-36.00747c-1.61328,0.05741 -3.18155,-0.53747 -4.35085,-1.6503l-6.00127,-6.00127c-1.11284,-1.1693 -1.70783,-2.73769 -1.6503,-4.35085v-36.00747c-0.05843,-1.56897 0.5396,-3.09126 1.6503,-4.20085c1.14448,-1.1678 2.71591,-1.81803 4.35085,-1.80042v-84.0173c-1.63499,0.01761 -3.20642,-0.63262 -4.35085,-1.80042c-1.1107,-1.10958 -1.70879,-2.63198 -1.6503,-4.20085v-36.00747c-0.05741,-1.61328 0.53747,-3.18155 1.6503,-4.35085l6.00127,-6.00127c1.1693,-1.11284 2.73769,-1.70783 4.35085,-1.6503h36.00747c1.56897,-0.05843 3.09126,0.5396 4.20085,1.6503c1.1678,1.14448 1.81803,2.71591 1.80042,4.35085h84.0173c-0.01761,-1.63499 0.63262,-3.20642 1.80042,-4.35085c1.10958,-1.1107 2.63198,-1.70879 4.20085,-1.6503h36.00747c1.61328,-0.05741 3.18155,0.53747 4.35085,1.6503l6.00127,6.00127c1.11284,1.1693 1.70783,2.73769 1.6503,4.35085v36.00747c0.05843,1.56897 -0.5396,3.09126 -1.6503,4.20085c-1.14448,1.1678 -2.71591,1.81803 -4.35085,1.80042M300.01249,89.98141h-12.00248l6.00127,6.00127h18.00374l6.00127,6.00127h-6.00127v6.00127h6.00127v-6.00127l6.00127,6.00127v18.00374l6.00127,6.00127v-36.00747l-6.00127,-6.00127h-24.00494M306.01376,107.98515v-6.00127h-12.00248c-1.59614,0.0429 -3.13113,-0.61496 -4.20085,-1.80042l-4.20085,-4.20085h-91.21881l-4.20085,4.20085c-1.06972,1.1854 -2.60471,1.84321 -4.20085,1.80042h-12.00248v6.00127c0.0429,1.59614 -0.61496,3.13113 -1.80042,4.20085c-1.06972,1.1854 -2.60471,1.84321 -4.20085,1.80042h-6.00127v12.00248c0.0429,1.59614 -0.61496,3.13113 -1.80042,4.20085l-4.20085,4.20085v91.21881l4.20085,4.20085c1.1854,1.06972 1.84321,2.60471 1.80042,4.20085v12.00248h6.00127c1.59614,-0.0429 3.13113,0.61496 4.20085,1.80042c1.1854,1.06972 1.84321,2.60471 1.80042,4.20085v6.00127h12.00248c1.59614,-0.0429 3.13113,0.61496 4.20085,1.80042l4.20085,4.20085h91.21881l4.20085,-4.20085c1.06972,-1.1854 2.60471,-1.84321 4.20085,-1.80042h12.00248v-6.00127c0.07908,-3.28108 2.72019,-5.92218 6.00127,-6.00127h6.00127v-12.00248c-0.0429,-1.59614 0.61496,-3.13113 1.80042,-4.20085l4.20085,-4.20085v-91.21881l-4.20085,-4.20085c-1.1854,-1.06972 -1.84321,-2.60471 -1.80042,-4.20085v-12.00248h-6.00127c-1.59614,0.0429 -3.13113,-0.61496 -4.20085,-1.80042c-1.1854,-1.06972 -1.84321,-2.60471 -1.80042,-4.20085M330.01865,240.01239v-12.00248l-6.00127,6.00127v18.00374l-6.00127,6.00127v-6.00127h-6.00127v6.00127h6.00127l-6.00127,6.00127h-18.00374l-6.00127,6.00127h36.00747l6.00127,-6.00127v-24.00494M167.98525,89.98141h-12.00248l-6.00127,6.00127v36.00747l6.00127,-6.00127v-18.00374l6.00127,-6.00127v6.00127h6.00127v-6.00127h-6.00127l6.00127,-6.00127h18.00374l6.00127,-6.00127h-24.00494M155.98276,240.01239v-6.00127l-6.00127,-6.00127v36.00747l6.00127,6.00127h36.00747l-6.00127,-6.00127h-18.00374l-6.00127,-6.00127h6.00127v-6.00127h-6.00127v6.00127l-6.00127,-6.00127v-12.00248" fill="#515f6b" stroke="none" stroke-width="1" stroke-linecap="butt"/><path d="M155.98276,240.01239v12.00248h-6.00127v-12.00248h6.00127M300.01249,95.98268v-6.00127h12.00248v6.00127h-12.00248M330.01865,107.98515v12.00248h-6.00127v-12.00248h6.00127M173.98651,107.98515v-6.00127h12.00248c1.59614,0.0429 3.13113,-0.61496 4.20085,-1.80042l4.20085,-4.20085h91.21881l4.20085,4.20085c1.06972,1.1854 2.60471,1.84321 4.20085,1.80042h12.00248v6.00127h-132.02725M312.01491,113.98641h6.00127v12.00248c-0.0429,1.59614 0.61496,3.13113 1.80042,4.20085l4.20085,4.20085v91.21881l-4.20085,4.20085c-1.1854,1.06972 -1.84321,2.60471 -1.80042,4.20085v12.00248h-6.00127v-132.02725M306.01376,252.01486v6.00127h-12.00248c-1.59614,-0.0429 -3.13113,0.61496 -4.20085,1.80042l-4.20085,4.20085h-91.21881l-4.20085,-4.20085c-1.06972,-1.1854 -2.60471,-1.84321 -4.20085,-1.80042h-12.00248v-6.00127h132.02725M167.98525,246.01365h-6.00127v-12.00248c0.0429,-1.59614 -0.61496,-3.13113 -1.80042,-4.20085l-4.20085,-4.20085v-91.21881l4.20085,-4.20085c1.1854,-1.06972 1.84321,-2.60471 1.80042,-4.20085v-12.00248h6.00127v132.02725M297.01183,119.98762c0.79148,0.01132 1.54647,0.33485 2.10042,0.90019l0.90019,2.10042l-0.90019,2.10042l-2.10042,0.90019c-1.65719,0 -3.0006,-1.34341 -3.0006,-3.0006c0,-1.65719 1.34341,-3.0006 3.0006,-3.0006M297.01183,234.01119c0.79148,0.01132 1.54647,0.33485 2.10042,0.90019l0.90019,2.10042l-0.90019,2.10042l-2.10042,0.90019c-1.65719,0 -3.0006,-1.34341 -3.0006,-3.0006c0,-1.65719 1.34341,-3.0006 3.0006,-3.0006M330.01865,240.01239v12.00248h-6.00127v-12.00248h6.00127M312.01491,270.01854h-12.00248v-6.00127h12.00248v6.00127M167.98525,89.98141h12.00248v6.00127h-12.00248v-6.00127M155.98276,107.98515v12.00248h-6.00127v-12.00248h6.00127M182.98832,119.98762c0.79148,0.01132 1.54647,0.33485 2.10042,0.90019l0.90019,2.10042l-0.90019,2.10042c-0.55396,0.56539 -1.30894,0.88892 -2.10042,0.90019l-2.10042,-0.90019l-0.90019,-2.10042c0,-1.65719 1.34341,-3.0006 3.0006,-3.0006M167.98525,264.01729h12.00248v6.00127h-12.00248v-6.00127M182.98832,234.01119c0.79148,0.01132 1.54647,0.33485 2.10042,0.90019l0.90019,2.10042l-0.90019,2.10042c-0.55396,0.56539 -1.30894,0.88892 -2.10042,0.90019l-2.10042,-0.90019l-0.90019,-2.10042c0,-1.65719 1.34341,-3.0006 3.0006,-3.0006" fill="#778d9f" stroke="none" stroke-width="1" stroke-linecap="butt"/><path d="M182.98832,234.01119c-1.65719,0 -3.0006,1.34341 -3.0006,3.0006l0.90019,2.10042l2.10042,0.90019c0.79148,-0.01132 1.54647,-0.33485 2.10042,-0.90019l0.90019,-2.10042l-0.90019,-2.10042c-0.55396,-0.56539 -1.30894,-0.88892 -2.10042,-0.90019M300.01249,95.98268h-6.00127l-6.00127,-6.00127h12.00248v6.00127M312.01491,89.98141h12.00248l6.00127,6.00127v12.00248h-6.00127l-6.00127,-6.00127v6.00127h-6.00127v-6.00127h6.00127l-6.00127,-6.00127v-6.00127M330.01865,119.98762v12.00248l-6.00127,-6.00127v-6.00127h6.00127M173.98651,119.98762l6.00127,-6.00127h120.02478l6.00127,6.00127v120.02478l-6.00127,6.00127h-120.02478l-6.00127,-6.00127v-120.02478M297.01183,234.01119c-1.65719,0 -3.0006,1.34341 -3.0006,3.0006c0,1.65719 1.34341,3.0006 3.0006,3.0006l2.10042,-0.90019l0.90019,-2.10042l-0.90019,-2.10042c-0.55396,-0.56539 -1.30894,-0.88892 -2.10042,-0.90019M297.01183,119.98762c-1.65719,0 -3.0006,1.34341 -3.0006,3.0006c0,1.65719 1.34341,3.0006 3.0006,3.0006l2.10042,-0.90019l0.90019,-2.10042l-0.90019,-2.10042c-0.55396,-0.56539 -1.30894,-0.88892 -2.10042,-0.90019M324.01743,240.01239v-6.00127l6.00127,-6.00127v12.00248h-6.00127M330.01865,252.01486v12.00248l-6.00127,6.00127h-12.00248v-6.00127l6.00127,-6.00127h-6.00127v-6.00127h6.00127v6.00127l6.00127,-6.00127h6.00127M300.01249,270.01854h-12.00248l6.00127,-6.00127h6.00127v6.00127M149.9815,107.98515v-12.00248l6.00127,-6.00127h12.00248v6.00127l-6.00127,6.00127h6.00127v6.00127h-6.00127v-6.00127l-6.00127,6.00127h-6.00127M179.98771,89.98141h12.00248l-6.00127,6.00127h-6.00127v-6.00127M155.98276,119.98762v6.00127l-6.00127,6.00127v-12.00248h6.00127M182.98832,119.98762c-1.65719,0 -3.0006,1.34341 -3.0006,3.0006l0.90019,2.10042l2.10042,0.90019c0.79148,-0.01132 1.54647,-0.33485 2.10042,-0.90019l0.90019,-2.10042l-0.90019,-2.10042c-0.55396,-0.56539 -1.30894,-0.88892 -2.10042,-0.90019M149.9815,240.01239v-12.00248l6.00127,6.00127v6.00127h-6.00127M155.98276,252.01486l6.00127,6.00127v-6.00127h6.00127v6.00127h-6.00127l6.00127,6.00127v6.00127h-12.00248l-6.00127,-6.00127v-12.00248h6.00127M179.98771,264.01729h6.00127l6.00127,6.00127h-12.00248v-6.00127" fill="#94afc6" stroke="none" stroke-width="1" stroke-linecap="butt"/><path d="M306.01363,107.98512c-0.0429,1.59614 0.61496,3.13113 1.80042,4.20085c1.06972,1.1854 2.60471,1.84321 4.20085,1.80042v132.02725c-3.28108,0.07908 -5.92218,2.72019 -6.00127,6.00127h-132.02725c0.0429,-1.59614 -0.61496,-3.13113 -1.80042,-4.20085c-1.06972,-1.1854 -2.60471,-1.84321 -4.20085,-1.80042v-132.02725c1.59614,0.0429 3.13113,-0.61496 4.20085,-1.80042c1.1854,-1.06972 1.84321,-2.60471 1.80042,-4.20085h132.02725M173.98638,119.98758v120.02478l6.00127,6.00127h120.02478l6.00127,-6.00127v-120.02478l-6.00127,-6.00127h-120.02478l-6.00127,6.00127" fill="#647685" stroke="none" stroke-width="1" stroke-linecap="butt"/><path d="M205.4646,147.72252l2.66136,-2.66136h63.87261l2.66135,2.66136v63.87261l-2.66135,2.66135h-63.87261l-2.66136,-2.66135v-63.87261M208.12598,150.38389v58.54988l2.66134,2.66136h58.54989l2.66136,-2.66136v-58.54988l-2.66136,-2.66134h-58.54989l-2.66134,2.66134" fill="#647685" stroke="none" stroke-width="1" stroke-linecap="butt"/><path d="M212.11801,150.38389c-0.53239,0.00748 -1.00905,0.33159 -1.21178,0.8239c-0.20271,0.49232 -0.09245,1.05808 0.28029,1.43827l0.93148,0.39921l0.93148,-0.39921l0.39921,-0.93148l-0.39921,-0.93148c-0.24568,-0.25071 -0.58047,-0.39423 -0.93148,-0.39922M208.12598,150.38389l2.66134,-2.66134h58.54989l2.66136,2.66134v58.54988l-2.66136,2.66136h-58.54989l-2.66134,-2.66136v-58.54988M212.11801,206.27246c-0.53239,0.00748 -1.00905,0.3316 -1.21178,0.82393c-0.20271,0.49232 -0.09245,1.05808 0.28029,1.43827l0.93148,0.39921l0.93148,-0.39921l0.39921,-0.93148l-0.39921,-0.93148c-0.24568,-0.25071 -0.58047,-0.39423 -0.93148,-0.39922M268.00655,206.27246c-0.53239,0.00748 -1.00905,0.3316 -1.21178,0.82393c-0.20271,0.49232 -0.09245,1.05808 0.28029,1.43827l0.93148,0.39921l0.93148,-0.39921l0.39921,-0.93148l-0.39921,-0.93148c-0.24568,-0.25071 -0.58047,-0.39423 -0.93148,-0.39922M268.00655,150.38389c-0.53239,0.00748 -1.00905,0.33159 -1.21178,0.8239c-0.20271,0.49232 -0.09245,1.05808 0.28029,1.43827l0.93148,0.39921l0.93148,-0.39921l0.39921,-0.93148l-0.39921,-0.93148c-0.24568,-0.25071 -0.58047,-0.39423 -0.93148,-0.39922" fill="#94afc6" stroke="none" stroke-width="1" stroke-linecap="butt"/><path d="M277.28558,162.60009v34.79985c0.67722,-0.0073 1.3281,0.26203 1.80211,0.74573c0.46005,0.45958 0.70778,1.09015 0.68355,1.73998v14.91424c0.02378,0.66822 -0.22262,1.3178 -0.68355,1.80211l-2.48571,2.48571c-0.48432,0.46093 -1.13395,0.70738 -1.80211,0.68355h-14.91424c-0.64986,0.0242 -1.2804,-0.2235 -1.73998,-0.68355c-0.4837,-0.47404 -0.75303,-1.12493 -0.74573,-1.80211h-34.79985c0.0073,0.67722 -0.26203,1.3281 -0.74573,1.80211c-0.45958,0.46005 -1.09015,0.70778 -1.73998,0.68355h-14.91424c-0.66822,0.02378 -1.3178,-0.22262 -1.80211,-0.68355l-2.48571,-2.48571c-0.46093,-0.48432 -0.70738,-1.13395 -0.68355,-1.80211v-14.91424c-0.0242,-0.64986 0.2235,-1.2804 0.68355,-1.73998c0.47404,-0.4837 1.12493,-0.75303 1.80211,-0.74573v-34.79985c-0.67722,0.0073 -1.3281,-0.26203 -1.80211,-0.74573c-0.46005,-0.45958 -0.70778,-1.09015 -0.68355,-1.73998v-14.91424c-0.02378,-0.66822 0.22262,-1.3178 0.68355,-1.80211l2.48571,-2.48571c0.48432,-0.46093 1.13395,-0.70738 1.80211,-0.68355h14.91424c0.64986,-0.0242 1.2804,0.2235 1.73998,0.68355c0.4837,0.47404 0.75303,1.12493 0.74573,1.80211h34.79985c-0.0073,-0.67722 0.26203,-1.3281 0.74573,-1.80211c0.45958,-0.46005 1.09015,-0.70778 1.73998,-0.68355h14.91424c0.66822,-0.02378 1.3178,0.22262 1.80211,0.68355l2.48571,2.48571c0.46093,0.48432 0.70738,1.13395 0.68355,1.80211v14.91424c0.0242,0.64986 -0.2235,1.2804 -0.68355,1.73998c-0.47404,0.4837 -1.12493,0.75303 -1.80211,0.74573M264.85709,142.71443h-4.9714l2.48571,2.48571h7.45712l2.48571,2.48571h-2.48571v2.48571h2.48571v-2.48571l2.48571,2.48571v7.45712l2.48571,2.48571v-14.91424l-2.48571,-2.48571h-9.94281M267.3428,150.17156v-2.48571h-4.9714c-0.66111,0.01777 -1.29691,-0.25472 -1.73998,-0.74573l-1.73998,-1.73998h-37.7827l-1.73998,1.73998c-0.44307,0.49099 -1.07887,0.76346 -1.73998,0.74573h-4.9714v2.48571c0.01777,0.66111 -0.25472,1.29691 -0.74573,1.73998c-0.44307,0.49099 -1.07887,0.76346 -1.73998,0.74573h-2.48571v4.9714c0.01777,0.66111 -0.25472,1.29691 -0.74573,1.73998l-1.73998,1.73998v37.7827l1.73998,1.73998c0.49099,0.44307 0.76346,1.07887 0.74573,1.73998v4.9714h2.48571c0.66111,-0.01777 1.29691,0.25472 1.73998,0.74573c0.49099,0.44307 0.76346,1.07887 0.74573,1.73998v2.48571h4.9714c0.66111,-0.01777 1.29691,0.25472 1.73998,0.74573l1.73998,1.73998h37.7827l1.73998,-1.73998c0.44307,-0.49099 1.07887,-0.76346 1.73998,-0.74573h4.9714v-2.48571c0.03276,-1.35902 1.1267,-2.45296 2.48571,-2.48571h2.48571v-4.9714c-0.01777,-0.66111 0.25472,-1.29691 0.74573,-1.73998l1.73998,-1.73998v-37.7827l-1.73998,-1.73998c-0.49099,-0.44307 -0.76346,-1.07887 -0.74573,-1.73998v-4.9714h-2.48571c-0.66111,0.01777 -1.29691,-0.25472 -1.73998,-0.74573c-0.49099,-0.44307 -0.76346,-1.07887 -0.74573,-1.73998M277.28558,204.85705v-4.9714l-2.48571,2.48571v7.45712l-2.48571,2.48571v-2.48571h-2.48571v2.48571h2.48571l-2.48571,2.48571h-7.45712l-2.48571,2.48571h14.91424l2.48571,-2.48571v-9.94281M210.17159,142.71443h-4.9714l-2.48571,2.48571v14.91424l2.48571,-2.48571v-7.45712l2.48571,-2.48571v2.48571h2.48571v-2.48571h-2.48571l2.48571,-2.48571h7.45712l2.48571,-2.48571h-9.94281M205.20017,204.85705v-2.48571l-2.48571,-2.48571v14.91424l2.48571,2.48571h14.91424l-2.48571,-2.48571h-7.45712l-2.48571,-2.48571h2.48571v-2.48571h-2.48571v2.48571l-2.48571,-2.48571v-4.9714" fill="#515f6b" stroke="none" stroke-width="1" stroke-linecap="butt"/><path d="M205.20017,204.85705v4.9714h-2.48571v-4.9714h2.48571M264.85709,145.20013v-2.48571h4.9714v2.48571h-4.9714M277.28558,150.17156v4.9714h-2.48571v-4.9714h2.48571M212.6573,150.17156v-2.48571h4.9714c0.66111,0.01777 1.29691,-0.25472 1.73998,-0.74573l1.73998,-1.73998h37.7827l1.73998,1.73998c0.44307,0.49099 1.07887,0.76346 1.73998,0.74573h4.9714v2.48571h-54.6855M269.82847,152.65727h2.48571v4.9714c-0.01777,0.66111 0.25472,1.29691 0.74573,1.73998l1.73998,1.73998v37.7827l-1.73998,1.73998c-0.49099,0.44307 -0.76346,1.07887 -0.74573,1.73998v4.9714h-2.48571v-54.6855M267.3428,209.82846v2.48571h-4.9714c-0.66111,-0.01777 -1.29691,0.25472 -1.73998,0.74573l-1.73998,1.73998h-37.7827l-1.73998,-1.73998c-0.44307,-0.49099 -1.07887,-0.76346 -1.73998,-0.74573h-4.9714v-2.48571h54.6855M210.17159,207.34276h-2.48571v-4.9714c0.01777,-0.66111 -0.25472,-1.29691 -0.74573,-1.73998l-1.73998,-1.73998v-37.7827l1.73998,-1.73998c0.49099,-0.44307 0.76346,-1.07887 0.74573,-1.73998v-4.9714h2.48571v54.6855M263.61422,155.14297c0.32783,0.00468 0.64054,0.1387 0.86999,0.37285l0.37285,0.86999l-0.37285,0.86999l-0.86999,0.37285c-0.68641,0 -1.24284,-0.55645 -1.24284,-1.24284c0,-0.68641 0.55645,-1.24284 1.24284,-1.24284M263.61422,202.37136c0.32783,0.00468 0.64054,0.1387 0.86999,0.37285l0.37285,0.86999l-0.37285,0.86999l-0.86999,0.37285c-0.68641,0 -1.24284,-0.55645 -1.24284,-1.24284c0,-0.68641 0.55645,-1.24284 1.24284,-1.24284M277.28558,204.85705v4.9714h-2.48571v-4.9714h2.48571M269.82847,217.28556h-4.9714v-2.48571h4.9714v2.48571M210.17159,142.71443h4.9714v2.48571h-4.9714v-2.48571M205.20017,150.17156v4.9714h-2.48571v-4.9714h2.48571M216.38584,155.14297c0.32783,0.00468 0.64054,0.1387 0.86999,0.37285l0.37285,0.86999l-0.37285,0.86999c-0.22945,0.23418 -0.54216,0.36819 -0.86999,0.37285l-0.86999,-0.37285l-0.37285,-0.86999c0,-0.68641 0.55645,-1.24284 1.24284,-1.24284M210.17159,214.79984h4.9714v2.48571h-4.9714v-2.48571M216.38584,202.37136c0.32783,0.00468 0.64054,0.1387 0.86999,0.37285l0.37285,0.86999l-0.37285,0.86999c-0.22945,0.23418 -0.54216,0.36819 -0.86999,0.37285l-0.86999,-0.37285l-0.37285,-0.86999c0,-0.68641 0.55645,-1.24284 1.24284,-1.24284" fill="#778d9f" stroke="none" stroke-width="1" stroke-linecap="butt"/><path d="M216.3858,202.37136c-0.68641,0 -1.24284,0.55645 -1.24284,1.24284l0.37285,0.86999l0.86999,0.37285c0.32783,-0.00468 0.64054,-0.1387 0.86999,-0.37285l0.37285,-0.86999l-0.37285,-0.86999c-0.22945,-0.23418 -0.54216,-0.36819 -0.86999,-0.37285M264.85706,145.20013h-2.48571l-2.48571,-2.48571h4.9714v2.48571M269.82844,142.71443h4.9714l2.48571,2.48571v4.9714h-2.48571l-2.48571,-2.48571v2.48571h-2.48571v-2.48571h2.48571l-2.48571,-2.48571v-2.48571M277.28556,155.14297v4.9714l-2.48571,-2.48571v-2.48571h2.48571M212.65727,155.14297l2.48571,-2.48571h49.71409l2.48571,2.48571v49.71409l-2.48571,2.48571h-49.71409l-2.48571,-2.48571v-49.71409M263.61418,202.37136c-0.68641,0 -1.24284,0.55645 -1.24284,1.24284c0,0.68641 0.55645,1.24284 1.24284,1.24284l0.86999,-0.37285l0.37285,-0.86999l-0.37285,-0.86999c-0.22945,-0.23418 -0.54216,-0.36819 -0.86999,-0.37285M263.61418,155.14297c-0.68641,0 -1.24284,0.55645 -1.24284,1.24284c0,0.68641 0.55645,1.24284 1.24284,1.24284l0.86999,-0.37285l0.37285,-0.86999l-0.37285,-0.86999c-0.22945,-0.23418 -0.54216,-0.36819 -0.86999,-0.37285M274.79987,204.85705v-2.48571l2.48571,-2.48571v4.9714h-2.48571M277.28556,209.82846v4.9714l-2.48571,2.48571h-4.9714v-2.48571l2.48571,-2.48571h-2.48571v-2.48571h2.48571v2.48571l2.48571,-2.48571h2.48571M264.85706,217.28556h-4.9714l2.48571,-2.48571h2.48571v2.48571M202.71444,150.17156v-4.9714l2.48571,-2.48571h4.9714v2.48571l-2.48571,2.48571h2.48571v2.48571h-2.48571v-2.48571l-2.48571,2.48571h-2.48571M215.14296,142.71443h4.9714l-2.48571,2.48571h-2.48571v-2.48571M205.20014,155.14297v2.48571l-2.48571,2.48571v-4.9714h2.48571M216.3858,155.14297c-0.68641,0 -1.24284,0.55645 -1.24284,1.24284l0.37285,0.86999l0.86999,0.37285c0.32783,-0.00468 0.64054,-0.1387 0.86999,-0.37285l0.37285,-0.86999l-0.37285,-0.86999c-0.22945,-0.23418 -0.54216,-0.36819 -0.86999,-0.37285M202.71444,204.85705v-4.9714l2.48571,2.48571v2.48571h-2.48571M205.20014,209.82846l2.48571,2.48571v-2.48571h2.48571v2.48571h-2.48571l2.48571,2.48571v2.48571h-4.9714l-2.48571,-2.48571v-4.9714h2.48571M215.14296,214.79984h2.48571l2.48571,2.48571h-4.9714v-2.48571" fill="#94afc6" stroke="none" stroke-width="1" stroke-linecap="butt"/><path d="M267.3428,150.17156c-0.01777,0.66111 0.25472,1.29691 0.74573,1.73998c0.44307,0.49099 1.07887,0.76346 1.73998,0.74573v54.6855c-1.35902,0.03276 -2.45296,1.1267 -2.48571,2.48571h-54.6855c0.01777,-0.66111 -0.25472,-1.29691 -0.74573,-1.73998c-0.44307,-0.49099 -1.07887,-0.76346 -1.73998,-0.74573v-54.6855c0.66111,0.01777 1.29691,-0.25472 1.73998,-0.74573c0.49099,-0.44307 0.76346,-1.07887 0.74573,-1.73998h54.6855M212.6573,155.14297v49.71409l2.48571,2.48571h49.71409l2.48571,-2.48571v-49.71409l-2.48571,-2.48571h-49.71409l-2.48571,2.48571" fill="#647685" stroke="none" stroke-width="1" stroke-linecap="butt"/><path d="M250.46416,184.78393l0.79773,-1.6101l-0.00588,-1.60715l0.80359,-0.00294l-0.01176,-3.21431l-0.80359,0.00294l-0.00587,-1.60716l-0.80947,-1.60422l-20.89367,0.07644l-0.79773,1.6101l0.00587,1.60716l-0.80359,0.00294l0.01176,3.21431l0.80359,-0.00294l0.00588,1.60715l0.80947,1.60422l20.89368,-0.07644M229.01209,185.98744l-0.80947,-1.60422c-0.15978,-0.2859 -0.24936,-0.69665 -0.2452,-1.12413c-0.21369,0.01226 -0.41987,-0.16316 -0.56429,-0.4801c-0.15978,-0.2859 -0.24937,-0.69665 -0.2452,-1.12412l-0.01176,-3.21431c-0.00397,-0.43785 0.08156,-0.859 0.23681,-1.16607c0.1475,-0.298 0.35077,-0.45891 0.56091,-0.44403c-0.00397,-0.43785 0.08156,-0.859 0.23681,-1.16607l0.79771,-1.6101c0.1475,-0.298 0.35076,-0.45891 0.5609,-0.44403l20.89368,-0.07644c0.21596,-0.01616 0.42655,0.14237 0.58423,0.43984l0.80947,1.60422c0.15018,0.3126 0.23136,0.73232 0.22525,1.16438c0.21596,-0.01616 0.42655,0.14237 0.58423,0.43984c0.15018,0.3126 0.23136,0.73232 0.22525,1.16438l0.01176,3.21431c0.00937,0.42013 -0.06923,0.82811 -0.21688,1.12582c-0.15211,0.31331 -0.36188,0.48821 -0.58085,0.48428c0.00937,0.42013 -0.06923,0.82811 -0.21688,1.12581l-0.79771,1.6101c-0.15211,0.31331 -0.36189,0.48821 -0.58085,0.48428l-20.89367,0.07644c-0.21369,0.01226 -0.41987,-0.16316 -0.56429,-0.4801" fill="#515f6b" stroke="none" stroke-width="1" stroke-linecap="butt"/><path d="M250.46416,184.78393l-20.89368,0.07644l-0.80947,-1.60422l-0.00588,-1.60715l-0.80359,0.00294l-0.01176,-3.21431l0.80359,-0.00294l-0.00587,-1.60716l0.79773,-1.6101l20.89367,-0.07644l0.80947,1.60422l0.00587,1.60716l0.80359,-0.00294l0.01176,3.21431l-0.80359,0.00294l0.00588,1.60715l-0.79773,1.6101M229.54108,176.8246l0.02352,6.42863l20.89368,-0.07644l-0.02352,-6.42863l-20.89368,0.07644" fill="#94afc6" stroke="none" stroke-width="1" stroke-linecap="butt"/><path d="M229.54108,176.8246l20.89368,-0.07644l0.02352,6.42863l-20.89368,0.07644l-0.02352,-6.42863" fill="#778d9f" stroke="none" stroke-width="1" stroke-linecap="butt"/><path d="M258.95434,149.32585c-0.01107,-0.13804 0.03738,-0.27423 0.13315,-0.37426c0.08156,-0.08877 0.20752,-0.13316 0.37785,-0.13316h6.17885c0.33827,0 0.50621,0.16914 0.5038,0.50742v6.18603c0,0.33588 -0.16793,0.50381 -0.5038,0.50381h-6.17885c-0.17033,0 -0.29628,-0.04318 -0.37785,-0.12955c-0.09577,-0.10003 -0.14422,-0.23621 -0.13315,-0.37426v-6.18603M259.09828,149.32585v6.18603c0,0.2399 0.12236,0.35986 0.36706,0.35986h6.17885c0.24231,0 0.36347,-0.11996 0.36347,-0.35986v-6.18603c0,-0.24231 -0.12116,-0.36345 -0.36347,-0.36345h-6.17885c-0.24471,0 -0.36706,0.12115 -0.36706,0.36345" fill="#9ea4ad" stroke="none" stroke-width="1" stroke-linecap="butt"/><path d="M258.86098,148.53074h7.32037c0.07091,-0.00861 0.1418,0.01619 0.19189,0.0671c0.05009,0.05092 0.07369,0.12221 0.06392,0.19297v7.32888c0.00833,0.07007 -0.01593,0.14009 -0.06582,0.18999c-0.0499,0.04989 -0.11992,0.07415 -0.18999,0.06582h-7.32037c-0.17622,0 -0.26433,-0.08528 -0.26433,-0.25582v-7.32888c0,-0.17338 0.08811,-0.26008 0.26433,-0.26008" fill="#d6dde7" stroke="none" stroke-width="1" stroke-linecap="butt"/><path d="M259.46533,149.10993c-0.14875,0 -0.22311,0.07198 -0.22311,0.21593v6.18603c0,0.14395 0.07437,0.21591 0.22311,0.21591h6.17885c0.05972,0.00826 0.11989,-0.01167 0.16287,-0.05395c0.04299,-0.04227 0.06391,-0.10211 0.05665,-0.16195v-6.18603c0.00851,-0.06043 -0.01186,-0.12134 -0.05502,-0.1645c-0.04315,-0.04315 -0.10406,-0.06353 -0.16449,-0.05503h-6.17885M259.09828,149.32585c0,-0.24231 0.12235,-0.36345 0.36706,-0.36345h6.17885c0.24231,0 0.36347,0.12115 0.36347,0.36345v6.18603c0,0.2399 -0.12116,0.35986 -0.36347,0.35986h-6.17885c-0.24471,0.00241 -0.36706,-0.11756 -0.36706,-0.35986v-6.18603" fill="#ecf2fa" stroke="none" stroke-width="1" stroke-linecap="butt"/><path d="M265.43188,149.39423c-0.00042,-0.03922 0.01518,-0.07691 0.04319,-0.10436c0.02662,-0.02664 0.06314,-0.04099 0.10076,-0.03959c0.03869,-0.00137 0.07632,0.01289 0.10436,0.03959c0.0267,0.02804 0.04096,0.06567 0.03959,0.10436c0.00139,0.03762 -0.01295,0.07415 -0.03959,0.10076c-0.02745,0.02801 -0.06515,0.04361 -0.10436,0.04319c-0.03828,0.00103 -0.07511,-0.01476 -0.10076,-0.04319c-0.02843,-0.02566 -0.04422,-0.06247 -0.04319,-0.10076" fill="#9ea4ad" stroke="none" stroke-width="1" stroke-linecap="butt"/><path d="M259.42936,149.49498c-0.02843,-0.02566 -0.04422,-0.06247 -0.04319,-0.10076c-0.00042,-0.03922 0.01518,-0.07691 0.04319,-0.10436c0.02662,-0.02664 0.06313,-0.04099 0.10076,-0.03959c0.03869,-0.00137 0.0763,0.01289 0.10436,0.03959c0.02668,0.02804 0.04096,0.06567 0.03958,0.10436c0.0014,0.03762 -0.01294,0.07415 -0.03958,0.10076c-0.02745,0.02801 -0.06515,0.04361 -0.10436,0.04319c-0.03828,0.00103 -0.07511,-0.01476 -0.10076,-0.04319" fill="#9ea4ad" stroke="none" stroke-width="1" stroke-linecap="butt"/><path d="M265.47505,155.54068c-0.02843,-0.02566 -0.04422,-0.06247 -0.04319,-0.10076c-0.00042,-0.03922 0.01518,-0.07691 0.04319,-0.10436c0.02662,-0.02664 0.06314,-0.04099 0.10076,-0.03959c0.03869,-0.00137 0.07632,0.01289 0.10436,0.03959c0.0267,0.02804 0.04096,0.06567 0.03959,0.10436c0.00139,0.03762 -0.01295,0.07415 -0.03959,0.10076c-0.02745,0.02801 -0.06515,0.04361 -0.10436,0.04319c-0.03828,0.00103 -0.07511,-0.01476 -0.10076,-0.04319" fill="#9ea4ad" stroke="none" stroke-width="1" stroke-linecap="butt"/><path d="M259.53012,155.58387c-0.0787,-0.0019 -0.14205,-0.06524 -0.14395,-0.14395c-0.00042,-0.03922 0.01518,-0.07691 0.04319,-0.10436c0.02661,-0.02664 0.06313,-0.04099 0.10076,-0.03959c0.03885,-0.00233 0.07684,0.01208 0.10435,0.0396c0.02752,0.02752 0.04193,0.0655 0.0396,0.10435c0.0014,0.03762 -0.01295,0.07415 -0.03959,0.10076c-0.02745,0.02801 -0.06514,0.04361 -0.10436,0.04319" fill="#9ea4ad" stroke="none" stroke-width="1" stroke-linecap="butt"/><path d="M266.60233,147.34763h-1.36144l0.34037,0.34037h1.02109l0.34037,0.34037h-0.34037v0.34035h0.34037v-0.34035l0.34035,0.34035v1.02109l0.34037,0.34035v-2.04216l-0.34037,-0.34037h-0.68072M267.62343,150.07053c-0.09054,0.00244 -0.17759,-0.03487 -0.23826,-0.10211l-0.10211,-0.10211l-0.23825,-0.23825c-0.06722,-0.06067 -0.10453,-0.14772 -0.10211,-0.23825v-0.68073h-0.34037c-0.09053,0.00243 -0.17758,-0.03487 -0.23825,-0.10211c-0.06723,-0.06067 -0.10454,-0.14773 -0.10211,-0.23826v-0.34035h-0.68073c-0.09053,0.00243 -0.17758,-0.03488 -0.23825,-0.10211l-0.17018,-0.17018l-0.17018,-0.17018c-0.06723,-0.06067 -0.10454,-0.14773 -0.10211,-0.23826c-0.001,-0.09273 0.03589,-0.18184 0.10211,-0.24675c0.06293,-0.06299 0.14927,-0.09692 0.23825,-0.0936h2.04217c0.0915,-0.00326 0.18045,0.03049 0.24676,0.0936l0.34037,0.34035c0.06311,0.06631 0.09685,0.15527 0.09359,0.24676v2.04216c0.00331,0.08899 -0.0306,0.17534 -0.09359,0.23826c-0.06491,0.06623 -0.15404,0.10311 -0.24676,0.10211M260.13548,147.34763c0.00243,0.09053 -0.03488,0.17759 -0.10211,0.23826l-0.10211,0.10211l-0.23825,0.23825c-0.06068,0.06723 -0.14773,0.10454 -0.23826,0.10211h-0.68072v0.34035c0.00243,0.09053 -0.03488,0.17759 -0.10211,0.23826c-0.06067,0.06723 -0.14772,0.10453 -0.23825,0.10211h-0.34037v0.68073c0.00243,0.09053 -0.03488,0.17758 -0.10211,0.23825l-0.17018,0.17018l-0.17018,0.17018c-0.06067,0.06723 -0.14772,0.10453 -0.23825,0.10211c-0.09273,0.001 -0.18185,-0.03588 -0.24676,-0.10211c-0.06299,-0.06294 -0.09692,-0.14928 -0.0936,-0.23826v-2.04216c-0.00326,-0.0915 0.03049,-0.18045 0.0936,-0.24676l0.34035,-0.34035c0.06631,-0.06311 0.15528,-0.09686 0.24676,-0.0936h2.04216c0.089,-0.00331 0.17534,0.03061 0.23826,0.0936c0.06623,0.06491 0.10311,0.15402 0.10211,0.24675M257.41255,154.8356c0.09053,-0.00243 0.17759,0.03488 0.23826,0.10211l0.10211,0.10211l0.23825,0.23825c0.06723,0.06067 0.10454,0.14773 0.10211,0.23826v0.68072h0.34035c0.18609,0.0045 0.33588,0.15428 0.34037,0.34037v0.34035h0.68073c0.09053,-0.00243 0.17758,0.03488 0.23825,0.10211l0.23825,0.23825l0.10211,0.10211c0.06723,0.06067 0.10453,0.14772 0.10211,0.23825c0.001,0.09273 -0.03586,0.18185 -0.10211,0.24676c-0.06294,0.063 -0.14928,0.09692 -0.23826,0.0936h-2.04216c-0.09149,0.00325 -0.18045,-0.03049 -0.24676,-0.0936l-0.34035,-0.34037c-0.06311,-0.06633 -0.09686,-0.15527 -0.0936,-0.24676v-2.04217c-0.00331,-0.08899 0.03061,-0.17532 0.0936,-0.23825c0.06491,-0.06624 0.15404,-0.10312 0.24676,-0.10211M264.90053,157.55847c-0.00243,-0.09053 0.03488,-0.17758 0.10211,-0.23825l0.10211,-0.10211l0.23825,-0.23825c0.06067,-0.06723 0.14772,-0.10454 0.23825,-0.10211h0.68072v-0.34035c-0.00243,-0.09053 0.03488,-0.17758 0.10211,-0.23825c0.06067,-0.06723 0.14772,-0.10454 0.23825,-0.10211h0.34037v-0.68073c-0.00243,-0.09053 0.03487,-0.17758 0.10211,-0.23825l0.23825,-0.23825l0.10211,-0.10211c0.06067,-0.06723 0.14772,-0.10454 0.23825,-0.10211c0.09273,-0.001 0.18185,0.03589 0.24676,0.10211c0.06299,0.06293 0.0969,0.14927 0.09359,0.23825v2.04217c0.00326,0.0915 -0.03048,0.18045 -0.09359,0.24676l-0.34037,0.34037c-0.06633,0.06312 -0.15527,0.09686 -0.24676,0.0936h-2.04217c-0.08899,0.00331 -0.17532,-0.03061 -0.23825,-0.0936c-0.06623,-0.06491 -0.10312,-0.15404 -0.10211,-0.24676M267.62343,155.85669v-0.68072l-0.34037,0.34035v1.02109l-0.34037,0.34035v-0.34035h-0.34037v0.34035h0.34037l-0.34037,0.34037h-1.02109l-0.34035,0.34037h2.04217l0.34037,-0.34037v-1.36145M257.41256,148.36871v1.36145l0.34037,-0.34035v-1.02109l0.34037,-0.34035v0.34035h0.34035v-0.34035h-0.34035l0.34035,-0.34037h1.02109l0.34035,-0.34037h-2.04216l-0.34037,0.34037v0.68072M257.41256,155.85667v1.36145l0.34035,0.34037h2.04216l-0.34035,-0.34037h-1.02109l-0.34035,-0.34037h0.34035v-0.34035h-0.34035v0.34035l-0.34037,-0.34035v-1.02109l-0.34037,-0.34035v0.68072" fill="#515f6b" stroke="none" stroke-width="1" stroke-linecap="butt"/><path d="M257.41256,155.85668v-0.68072l0.34037,0.34035v0.34037h-0.34037M267.62341,148.36872h-0.34037l-0.34035,-0.34035v0.34035h-0.34037v-0.34035h0.34037l-0.34037,-0.34037v-0.34037h0.68073l0.34037,0.34037v0.68072M265.92161,147.34763v0.34037h-0.34035l-0.34037,-0.34037h0.68073M267.28307,149.04945h0.34037v0.68072l-0.34037,-0.34035v-0.34037M267.28307,155.85668v-0.34037l0.34037,-0.34035v0.68072h-0.34037M267.62343,156.5374v0.68072l-0.34037,0.34037h-0.68073v-0.34037l0.34037,-0.34037h-0.34037v-0.34035h0.34037v0.34035l0.34035,-0.34035h0.34037M265.92161,157.21812v0.34037h-0.68073l0.34037,-0.34037h0.34035M258.43365,147.34763v0.34037l-0.34037,0.34037h0.34037v0.34035h-0.34037v-0.34035l-0.34035,0.34035h-0.34037v-0.68072l0.34037,-0.34037h0.68072M257.41256,149.04945h0.34037v0.34037l-0.34037,0.34035v-0.68072M259.11438,147.68799v-0.34037h0.68072l-0.34035,0.34037h-0.34037M257.41256,156.5374h0.34037l0.34035,0.34035v-0.34035h0.34037v0.34035h-0.34037l0.34037,0.34037v0.34037h-0.68072l-0.34037,-0.34037v-0.68072M259.11438,157.55848v-0.34037h0.34037l0.34035,0.34037h-0.68072" fill="#94afc6" stroke="none" stroke-width="1" stroke-linecap="butt"/><path d="M259.11438,157.55848h-0.68072v-0.34037h0.68072v0.34037M266.60233,147.34763v0.34037h-0.68072v-0.34037h0.68072M267.28307,148.36872h0.34037v0.68073h-0.34037v-0.68073M267.62343,155.85668v0.68072h-0.34037v-0.68072h0.34037M265.92161,157.21812h0.68072v0.34037h-0.68072v-0.34037M257.41256,148.36872h0.34037v0.68073h-0.34037v-0.68073M258.43365,147.68799v-0.34037h0.68072v0.34037h-0.68072M257.41256,155.85668h0.34037v0.68072h-0.34037v-0.68072" fill="#778d9f" stroke="none" stroke-width="1" stroke-linecap="butt"/><path d="M267.28306,149.86631v4.28856l-0.17018,0.17018l0.17018,0.17018v0.54459l-0.23825,0.23825c-0.06723,0.06067 -0.10453,0.14772 -0.10211,0.23825v0.68073h-0.34037v-7.48797h0.34037v0.68073c-0.00244,0.09053 0.03487,0.17758 0.10211,0.23825l0.23825,0.23825M266.26195,148.36872h-7.48797v-0.34035h0.68073c0.09053,0.00243 0.17758,-0.03488 0.23825,-0.10211l0.23825,-0.23825h3.60784l0.17019,0.17018l0.17018,-0.17018h0.68073l0.34037,0.34037l0.27228,-0.27229l0.17019,0.17018c0.06068,0.06723 0.14773,0.10454 0.23826,0.10211h0.68072v0.34035M265.10476,157.21812h-4.28856l-0.34037,-0.34037l-0.34037,0.34037h-0.20422l-0.23825,-0.23825c-0.06067,-0.06723 -0.14772,-0.10454 -0.23825,-0.10211h-0.68073v-0.34035h7.48797v0.34035h-0.68072c-0.09054,-0.00243 -0.17759,0.03488 -0.23826,0.10211l-0.23825,0.23825M258.43365,148.70908v7.48797h-0.34037v-0.68072c0.00244,-0.09053 -0.03487,-0.17759 -0.10211,-0.23826l-0.23825,-0.23825v-4.62892l0.34035,-0.34037l-0.27228,-0.27229l0.17018,-0.17018c0.06722,-0.06067 0.10453,-0.14772 0.10211,-0.23825v-0.68073h0.34037" fill="#b47b41" stroke="none" stroke-width="1" stroke-linecap="butt"/><path d="M265.00264,147.5859l0.17018,0.17018l-0.27229,0.27228l-0.34035,-0.34037h-0.68072l-0.17019,0.17018l-0.17019,-0.17018h-3.60784l0.10211,-0.10211c0.06723,-0.06067 0.10454,-0.14773 0.10211,-0.23826h3.40362l0.17019,0.17018l0.17018,-0.17018h0.68073l0.34035,0.34037l0.10211,-0.10211M257.65083,149.96842l0.17019,-0.17018l0.27228,0.27228l-0.34035,0.34037v4.62892l-0.10211,-0.10211c-0.06067,-0.06723 -0.14773,-0.10453 -0.23826,-0.10211v-4.4247l0.34037,-0.34037l-0.10211,-0.10211M260.13543,157.55848c0.00244,-0.09053 -0.03487,-0.17758 -0.10211,-0.23825l-0.10211,-0.10211h0.20422l0.34037,-0.34037l0.34037,0.34037h4.28856l-0.10211,0.10211c-0.06723,0.06067 -0.10454,0.14772 -0.10211,0.23825h-4.08434l-0.34037,-0.34037l-0.34037,0.34037M267.62343,154.8356c-0.09053,-0.00243 -0.17758,0.03488 -0.23825,0.10211l-0.10211,0.10211v-0.54457l-0.17019,-0.17018l0.17019,-0.17018v-4.28857l0.10211,0.10211c0.06067,0.06723 0.14772,0.10453 0.23825,0.10211v4.08435l-0.17019,0.17018l0.17019,0.17018v0.34035" fill="#6d4b27" stroke="none" stroke-width="1" stroke-linecap="butt"/><path d="M266.60233,148.70908v7.48797c-0.09053,-0.00243 -0.17758,0.03488 -0.23825,0.10211c-0.06723,0.06067 -0.10454,0.14772 -0.10211,0.23825h-7.48797c-0.00449,-0.18609 -0.15428,-0.33588 -0.34037,-0.34037v-7.48797c0.09054,0.00243 0.17759,-0.03487 0.23826,-0.10211c0.06723,-0.06067 0.10453,-0.14773 0.10211,-0.23826h7.48797c-0.00243,0.09053 0.03488,0.17759 0.10211,0.23826c0.06067,0.06723 0.14772,0.10453 0.23825,0.10211M265.92161,148.70908h-4.08435l-0.34037,0.34037l-0.34037,-0.34037h-2.38253v4.76507l0.17018,0.17018l-0.17018,0.17018v2.38253h7.48797v-5.44579l-0.17019,-0.17018l0.17019,-0.17018v-1.70182h-0.34035" fill="#a3703a" stroke="none" stroke-width="1" stroke-linecap="butt"/><path d="M265.92161,148.70908h0.34035v0.34037l-0.34035,-0.34037M259.11438,148.70908l-0.34037,0.34037v-0.34037h0.34037M258.77401,155.85668l0.34037,0.34037h-0.34037v-0.34037M265.92161,156.19705l0.34035,-0.34037v0.34037h-0.34035" fill="#d2c6ac" stroke="none" stroke-width="1" stroke-linecap="butt"/><path d="M196.46343,129.63365c0,0.89576 -4.42298,1.62192 -9.879,1.62192c-5.45602,0 -9.879,-0.72616 -9.879,-1.62192c0,-0.89576 4.42298,-1.62192 9.879,-1.62192c5.45602,0 9.879,0.72616 9.879,1.62192z" fill="url(#color-1)" stroke="none" stroke-width="0" stroke-linecap="butt"/><path d="M178.67155,118.18294l0.06206,11.23348" fill="none" stroke="url(#color-2)" stroke-width="3.5" stroke-linecap="round"/><path d="M194.12513,118.05861l0.06206,11.23348" fill="none" stroke="url(#color-3)" stroke-width="3.5" stroke-linecap="round"/><text transform="translate(184.25725,126.5615) scale(0.23582,0.23582)" font-size="40" xml:space="preserve" fill="#2fff00" fill-rule="nonzero" stroke="none" stroke-width="1" stroke-linecap="butt" stroke-linejoin="miter" stroke-miterlimit="10" stroke-dasharray="" stroke-dashoffset="0" font-family="Sans Serif" font-weight="normal" text-anchor="start" style="mix-blend-mode: normal"><tspan x="0" dy="0">↓</tspan></text><path d="M191.7726,240.73343c-8.05603,0 -14.58675,-0.95517 -14.58675,-2.13345c0,-1.17826 6.53071,-2.13345 14.58675,-2.13345c8.05603,0 14.58675,0.95517 14.58675,2.13345c0,1.17827 -6.53071,2.13345 -14.58675,2.13345z" fill="url(#color-4)" stroke="none" stroke-width="0" stroke-linecap="butt"/><path d="M198.07077,242.09034v-15.88235" fill="none" stroke="url(#color-5)" stroke-width="2.5" stroke-linecap="round"/><text transform="translate(187.46892,236.51558) scale(0.35558,0.35558)" font-size="40" xml:space="preserve" fill="#00b4ff" fill-rule="nonzero" stroke="none" stroke-width="1" stroke-linecap="butt" stroke-linejoin="miter" stroke-miterlimit="10" stroke-dasharray="" stroke-dashoffset="0" font-family="Sans Serif" font-weight="normal" text-anchor="start" style="mix-blend-mode: normal"><tspan x="0" dy="0">↓</tspan></text><path d="M185.4826,225.129v15.88235" fill="none" stroke="url(#color-6)" stroke-width="2.5" stroke-linecap="round"/><path d="M265.82,206.13801c-0.00807,-0.10058 0.02723,-0.19982 0.09702,-0.27271c0.05944,-0.06468 0.15122,-0.09702 0.27534,-0.09702h4.50226c0.24648,0 0.36885,0.12324 0.36711,0.36973v4.50751c0,0.24474 -0.12237,0.36711 -0.36711,0.36711h-4.50226c-0.12412,0 -0.2159,-0.03148 -0.27534,-0.0944c-0.06979,-0.07289 -0.10508,-0.17212 -0.09702,-0.2727v-4.50751M265.92489,206.13801v4.50751c0,0.17482 0.08916,0.26222 0.26746,0.26222h4.50227c0.17656,0 0.26483,-0.0874 0.26483,-0.26222v-4.50751c0,-0.17656 -0.08827,-0.26484 -0.26483,-0.26484h-4.50227c-0.1783,0 -0.26746,0.08828 -0.26746,0.26484" fill="#9ea4ad" stroke="none" stroke-width="1" stroke-linecap="butt"/><path d="M265.87063,205.62982h5.33405c0.05167,-0.00627 0.10332,0.01179 0.13982,0.04889c0.0365,0.0371 0.0537,0.08904 0.04657,0.1406v5.34025c0.00608,0.05106 -0.01161,0.10209 -0.04796,0.13844c-0.03635,0.03635 -0.08738,0.05402 -0.13843,0.04795h-5.33404c-0.1284,0 -0.19261,-0.06213 -0.19261,-0.18639v-5.34025c0,-0.12634 0.06421,-0.1895 0.19261,-0.1895" fill="#b47b41" stroke="none" stroke-width="1" stroke-linecap="butt"/><path d="M266.19235,205.98069c-0.10838,0 -0.16257,0.05244 -0.16257,0.15733v4.50751c0,0.10489 0.05419,0.15733 0.16257,0.15733h4.50226c0.04352,0.00601 0.08736,-0.00852 0.11868,-0.03932c0.03132,-0.03081 0.04657,-0.0744 0.04127,-0.11802v-4.50751c0.0062,-0.04404 -0.00865,-0.08842 -0.04009,-0.11986c-0.03145,-0.03144 -0.07583,-0.04628 -0.11986,-0.04008h-4.50226M265.92489,206.13801c0,-0.17656 0.08916,-0.26484 0.26746,-0.26484h4.50227c0.17656,0 0.26483,0.08828 0.26483,0.26484v4.50751c0,0.17482 -0.08827,0.26222 -0.26483,0.26222h-4.50227c-0.1783,0.00175 -0.26746,-0.08565 -0.26746,-0.26222v-4.50751" fill="#6d4b27" stroke="none" stroke-width="1" stroke-linecap="butt"/><path d="M270.5399,206.18783c-0.00031,-0.02858 0.01105,-0.05604 0.03146,-0.07604c0.0194,-0.01941 0.046,-0.02987 0.07342,-0.02885c0.02819,-0.001 0.05561,0.0094 0.07604,0.02885c0.01945,0.02044 0.02985,0.04785 0.02885,0.07604c0.00102,0.02742 -0.00943,0.05403 -0.02885,0.07343c-0.02001,0.02041 -0.04746,0.03177 -0.07604,0.03146c-0.0279,0.00075 -0.05473,-0.01075 -0.07342,-0.03146c-0.02072,-0.0187 -0.03221,-0.04553 -0.03146,-0.07343" fill="#d2c6ac" stroke="none" stroke-width="1" stroke-linecap="butt"/><path d="M266.16612,206.26125c-0.02072,-0.0187 -0.03221,-0.04553 -0.03146,-0.07343c-0.00031,-0.02858 0.01105,-0.05604 0.03146,-0.07604c0.0194,-0.01941 0.046,-0.02987 0.07343,-0.02885c0.02819,-0.001 0.05561,0.0094 0.07604,0.02885c0.01945,0.02044 0.02985,0.04785 0.02885,0.07604c0.00102,0.02742 -0.00943,0.05403 -0.02885,0.07343c-0.02001,0.02041 -0.04746,0.03177 -0.07604,0.03146c-0.0279,0.00075 -0.05473,-0.01075 -0.07343,-0.03146" fill="#d2c6ac" stroke="none" stroke-width="1" stroke-linecap="butt"/><path d="M270.57137,210.66649c-0.02072,-0.0187 -0.03221,-0.04553 -0.03146,-0.07343c-0.00031,-0.02858 0.01105,-0.05604 0.03146,-0.07604c0.0194,-0.01941 0.046,-0.02987 0.07342,-0.02885c0.02819,-0.001 0.05561,0.0094 0.07604,0.02885c0.01945,0.02044 0.02985,0.04785 0.02885,0.07604c0.00102,0.02742 -0.00943,0.05403 -0.02885,0.07343c-0.02001,0.02041 -0.04746,0.03177 -0.07604,0.03146c-0.0279,0.00075 -0.05473,-0.01075 -0.07342,-0.03146" fill="#d2c6ac" stroke="none" stroke-width="1" stroke-linecap="butt"/><path d="M266.23955,210.69796c-0.05735,-0.00138 -0.1035,-0.04755 -0.10489,-0.10489c-0.00031,-0.02858 0.01105,-0.05604 0.03146,-0.07604c0.0194,-0.01941 0.046,-0.02987 0.07343,-0.02885c0.0283,-0.0017 0.05599,0.0088 0.07603,0.02885c0.02006,0.02005 0.03055,0.04773 0.02885,0.07604c0.00102,0.02742 -0.00943,0.05402 -0.02885,0.07342c-0.02001,0.02041 -0.04746,0.03177 -0.07604,0.03146" fill="#d2c6ac" stroke="none" stroke-width="1" stroke-linecap="butt"/><path d="M271.39275,204.69655h-0.99202l0.24801,0.24801h0.74402l0.24801,0.24802h-0.24801v0.24801h0.24801v-0.24801l0.24801,0.24801v0.74402l0.24801,0.24801v-1.48805l-0.24801,-0.24801h-0.49601M272.13677,206.6806c-0.06596,0.00178 -0.1294,-0.02541 -0.17361,-0.0744l-0.0744,-0.0744l-0.1736,-0.1736c-0.04898,-0.04421 -0.07617,-0.10764 -0.0744,-0.17361v-0.49601h-0.24802c-0.06596,0.00178 -0.1294,-0.02541 -0.1736,-0.0744c-0.04898,-0.04421 -0.07617,-0.10764 -0.0744,-0.1736v-0.24801h-0.49601c-0.06596,0.00178 -0.1294,-0.02542 -0.1736,-0.0744l-0.124,-0.124l-0.124,-0.124c-0.04898,-0.04421 -0.07617,-0.10764 -0.0744,-0.1736c-0.00073,-0.06756 0.02614,-0.13251 0.0744,-0.17981c0.04585,-0.04591 0.10876,-0.07062 0.1736,-0.06821h1.48805c0.06667,-0.00237 0.13149,0.02222 0.17981,0.06821l0.24801,0.24801c0.04599,0.04832 0.07058,0.11314 0.0682,0.17981v1.48805c0.00241,0.06484 -0.0223,0.12774 -0.0682,0.1736c-0.0473,0.04826 -0.11224,0.07513 -0.17981,0.0744M266.6806,204.69658c0.00178,0.06596 -0.02541,0.1294 -0.0744,0.17361l-0.0744,0.0744l-0.1736,0.1736c-0.04421,0.04899 -0.10764,0.07617 -0.17361,0.0744h-0.49601v0.24802c0.00178,0.06596 -0.02542,0.1294 -0.0744,0.1736c-0.04421,0.04898 -0.10764,0.07617 -0.1736,0.0744h-0.24801v0.49601c0.00178,0.06596 -0.02541,0.1294 -0.0744,0.1736l-0.124,0.124l-0.124,0.124c-0.04421,0.04898 -0.10764,0.07617 -0.1736,0.0744c-0.06756,0.00073 -0.13251,-0.02614 -0.17981,-0.0744c-0.04591,-0.04585 -0.07062,-0.10876 -0.0682,-0.1736v-1.48805c-0.00237,-0.06667 0.02221,-0.13149 0.0682,-0.17981l0.24801,-0.24801c0.04832,-0.04599 0.11314,-0.07058 0.17981,-0.0682h1.48805c0.06484,-0.00241 0.12774,0.0223 0.1736,0.0682c0.04826,0.0473 0.07513,0.11224 0.0744,0.17981M264.69658,210.15274c0.06596,-0.00178 0.1294,0.02541 0.17361,0.0744l0.0744,0.0744l0.1736,0.1736c0.04898,0.04421 0.07617,0.10764 0.0744,0.17361v0.49601h0.24802c0.1356,0.00327 0.24474,0.11242 0.24801,0.24802v0.24801h0.49601c0.06596,-0.00178 0.1294,0.02541 0.1736,0.0744l0.1736,0.1736l0.0744,0.0744c0.04898,0.04421 0.07617,0.10764 0.0744,0.1736c0.00073,0.06756 -0.02614,0.13251 -0.0744,0.17981c-0.04585,0.04591 -0.10876,0.07062 -0.1736,0.0682h-1.48805c-0.06667,0.00237 -0.13149,-0.02221 -0.17981,-0.0682l-0.24801,-0.24802c-0.04599,-0.04832 -0.07058,-0.11314 -0.0682,-0.17981v-1.48804c-0.00241,-0.06484 0.0223,-0.12774 0.0682,-0.1736c0.0473,-0.04826 0.11224,-0.07513 0.17981,-0.0744M270.15275,212.13676c-0.00178,-0.06596 0.02541,-0.1294 0.0744,-0.17361l0.0744,-0.0744l0.1736,-0.1736c0.04421,-0.04898 0.10764,-0.07617 0.17361,-0.0744h0.49601v-0.24802c-0.00178,-0.06596 0.02541,-0.1294 0.0744,-0.1736c0.04421,-0.04898 0.10764,-0.07617 0.1736,-0.0744h0.24801v-0.49601c-0.00178,-0.06596 0.02542,-0.1294 0.0744,-0.1736l0.1736,-0.17361l0.0744,-0.0744c0.04421,-0.04898 0.10764,-0.07617 0.1736,-0.0744c0.06756,-0.00073 0.13251,0.02614 0.17981,0.0744c0.04591,0.04585 0.07062,0.10876 0.06821,0.1736v1.48805c0.00237,0.06667 -0.02222,0.13149 -0.06821,0.17981l-0.24801,0.24801c-0.04832,0.04599 -0.11314,0.07058 -0.17981,0.0682h-1.48805c-0.06484,0.00241 -0.12774,-0.0223 -0.1736,-0.0682c-0.04826,-0.0473 -0.07513,-0.11224 -0.0744,-0.17981M272.1368,210.89673v-0.49601l-0.24801,0.24801v0.74402l-0.24801,0.24801v-0.24801h-0.24802v0.24801h0.24802l-0.24802,0.24801h-0.74402l-0.24801,0.24801h1.48805l0.24801,-0.24801v-0.99203M264.69656,205.4406v0.99202l0.24801,-0.24801v-0.74402l0.24802,-0.24801v0.24801h0.24801v-0.24801h-0.24801l0.24801,-0.24801h0.74402l0.24801,-0.24801h-1.48805l-0.24801,0.24801v0.49601M264.69657,210.89677v0.99203l0.24802,0.24801h1.48804l-0.24801,-0.24801h-0.74402l-0.24801,-0.24801h0.24801v-0.24802h-0.24801v0.24802l-0.24801,-0.24802v-0.74402l-0.24801,-0.24801v0.49601" fill="#515f6b" stroke="none" stroke-width="1" stroke-linecap="butt"/><path d="M264.69656,210.89674v-0.49601l0.24802,0.24801v0.24801h-0.24802M272.1368,205.44059h-0.24801l-0.24801,-0.24802v0.24802h-0.24802v-0.24802h0.24802l-0.24802,-0.24801v-0.24801h0.49601l0.24801,0.24801v0.49601M270.89676,204.69656v0.24801h-0.24801l-0.24802,-0.24801h0.49601M271.88878,205.9366h0.24801v0.49601l-0.24801,-0.24801v-0.24801M271.88878,210.89676v-0.24801l0.24801,-0.24802v0.49601h-0.24801M272.13679,211.39277v0.49601l-0.24802,0.24801h-0.49601v-0.24801l0.24801,-0.24801h-0.24801v-0.24801h0.24801v0.24801l0.24801,-0.24801h0.24801M270.89675,211.88878v0.24801h-0.49601l0.24801,-0.24801h0.24801M265.4406,204.69655v0.24801l-0.24802,0.24802h0.24802v0.24801h-0.24802v-0.24801l-0.24801,0.24801h-0.24801v-0.49601l0.24801,-0.24801h0.49601M264.69656,205.93658h0.24802v0.24801l-0.24802,0.24802v-0.49601M265.93661,204.94457v-0.24801h0.49601l-0.24801,0.24801h-0.24801M264.69656,211.39275h0.24801l0.24802,0.24802v-0.24802h0.24801v0.24802h-0.24801l0.24801,0.24801v0.24801h-0.49601l-0.24801,-0.24801v-0.49601M265.93659,212.13679v-0.24801h0.24801l0.24802,0.24801h-0.49601" fill="#94afc6" stroke="none" stroke-width="1" stroke-linecap="butt"/><path d="M265.9366,212.13679h-0.49601v-0.24801h0.49601v0.24801M271.39277,204.69656v0.24801h-0.49601v-0.24801h0.49601M271.88878,205.44058h0.24801v0.49601h-0.24801v-0.49601M272.13679,210.89675v0.49601h-0.24801v-0.49601h0.24801M270.89675,211.88878h0.49601v0.24801h-0.49601v-0.24801M264.69656,205.44058h0.24802v0.49601h-0.24802v-0.49601M265.44059,204.94457v-0.24801h0.49601v0.24801h-0.49601M264.69656,210.89675h0.24802v0.49601h-0.24802v-0.49601" fill="#778d9f" stroke="none" stroke-width="1" stroke-linecap="butt"/><path d="M271.88878,206.53183v3.12489l-0.124,0.124l0.124,0.124v0.39681l-0.1736,0.1736c-0.04898,0.04421 -0.07617,0.10764 -0.0744,0.1736v0.49601h-0.24801v-5.45617h0.24801v0.49601c-0.00178,0.06596 0.02542,0.1294 0.0744,0.1736l0.1736,0.1736M271.14478,205.44058h-5.45617v-0.24801h0.49601c0.06596,0.00178 0.1294,-0.02541 0.1736,-0.0744l0.1736,-0.1736h2.62888l0.124,0.124l0.12401,-0.124h0.49601l0.24802,0.24801l0.19841,-0.19841l0.124,0.124c0.04421,0.04899 0.10764,0.07617 0.1736,0.0744h0.49601v0.24801M270.30153,211.88878h-3.12489l-0.24802,-0.24801l-0.24801,0.24801h-0.14881l-0.1736,-0.1736c-0.04421,-0.04898 -0.10764,-0.07617 -0.1736,-0.0744h-0.49601v-0.24801h5.45617v0.24801h-0.49601c-0.06596,-0.00178 -0.1294,0.02542 -0.1736,0.0744l-0.17361,0.1736M265.44059,205.68859v5.45617h-0.24801v-0.49601c0.00178,-0.06596 -0.02541,-0.1294 -0.0744,-0.1736l-0.1736,-0.17361v-3.3729l0.24801,-0.24802l-0.19841,-0.19841l0.124,-0.124c0.04898,-0.04421 0.07617,-0.10764 0.0744,-0.1736v-0.49601h0.24801" fill="#b47b41" stroke="none" stroke-width="1" stroke-linecap="butt"/><path d="M270.22715,204.87016l0.124,0.124l-0.19841,0.19841l-0.24801,-0.24801h-0.49601l-0.124,0.124l-0.124,-0.124h-2.62888l0.0744,-0.0744c0.04898,-0.04421 0.07617,-0.10764 0.0744,-0.1736h2.48007l0.124,0.124l0.124,-0.124h0.49601l0.24801,0.24801l0.0744,-0.0744M264.87016,206.60621l0.124,-0.124l0.19841,0.19841l-0.24802,0.24801v3.3729l-0.0744,-0.0744c-0.04421,-0.04898 -0.10764,-0.07617 -0.1736,-0.0744v-3.22409l0.24801,-0.24801l-0.0744,-0.0744M266.68062,212.13679c0.00178,-0.06596 -0.02542,-0.1294 -0.0744,-0.17361l-0.0744,-0.0744h0.14881l0.24801,-0.24801l0.24801,0.24801h3.1249l-0.0744,0.0744c-0.04898,0.04421 -0.07617,0.10764 -0.0744,0.17361h-2.9761l-0.24801,-0.24802l-0.24801,0.24802M272.1368,210.15273c-0.06596,-0.00178 -0.1294,0.02541 -0.1736,0.0744l-0.0744,0.0744v-0.39681l-0.124,-0.124l0.124,-0.124v-3.1249l0.0744,0.0744c0.04421,0.04898 0.10764,0.07617 0.1736,0.0744v2.9761l-0.124,0.124l0.124,0.124v0.24802" fill="#515f6b" stroke="none" stroke-width="1" stroke-linecap="butt"/><path d="M271.39278,205.6886v5.45617c-0.06596,-0.00178 -0.1294,0.02541 -0.17361,0.0744c-0.04898,0.04421 -0.07617,0.10764 -0.0744,0.17361h-5.45617c-0.00327,-0.1356 -0.11242,-0.24475 -0.24801,-0.24802v-5.45617c0.06596,0.00178 0.1294,-0.02541 0.1736,-0.0744c0.04898,-0.04421 0.07617,-0.10764 0.0744,-0.1736h5.45617c-0.00178,0.06596 0.02542,0.1294 0.0744,0.1736c0.04421,0.04898 0.10764,0.07617 0.1736,0.0744M270.89675,205.68859h-2.97609l-0.24801,0.24801l-0.24801,-0.24801h-1.73605v3.47211l0.124,0.124l-0.124,0.124v1.73605h5.45617v-3.96812l-0.124,-0.124l0.124,-0.124v-1.24004h-0.24801" fill="#a3703a" stroke="none" stroke-width="1" stroke-linecap="butt"/><path d="M270.89675,205.68859h0.24801v0.24801l-0.24801,-0.24801M265.9366,205.68859l-0.24801,0.24801v-0.24801h0.24801M265.6886,210.89675l0.24801,0.24801h-0.24801v-0.24801M270.89675,211.14476l0.24801,-0.24801v0.24801h-0.24801" fill="#d2c6ac" stroke="none" stroke-width="1" stroke-linecap="butt"/></g></g></svg>