<svg version="1.1" xmlns="http://www.w3.org/2000/svg" xmlns:xlink="http://www.w3.org/1999/xlink" width="40" height="20" viewBox="0,0,40,20"><g transform="translate(-326.5,-36.5)"><g data-paper-data="{&quot;isPaintingLayer&quot;:true}" fill-rule="nonzero" stroke-width="1" stroke-linejoin="miter" stroke-dasharray="" stroke-dashoffset="0" style="mix-blend-mode: normal"><path d="M328.5,41.5v10c-0.11875,0.82639 0.15887,1.66043 0.74922,2.25078c0.59035,0.59035 1.42439,0.86798 2.25078,0.74922h30c0.82639,0.11875 1.66043,-0.15887 2.25078,-0.74922c0.59035,-0.59035 0.86798,-1.42439 0.74922,-2.25078v-10c0.11876,-0.82639 -0.15887,-1.66043 -0.74922,-2.25078c-0.59035,-0.59035 -1.42439,-0.86798 -2.25078,-0.74922h-30c-0.82639,-0.11875 -1.66043,0.15887 -2.25078,0.74922c-0.59035,0.59035 -0.86798,1.42439 -0.74922,2.25078M331.5,36.5h30c3.33333,0 5,1.66666 5,5v10c0,3.33334 -1.66667,5 -5,5h-30c-3.33334,0 -5,-1.66666 -5,-5v-10c0,-3.33334 1.66666,-5 5,-5" fill="#515f6b" stroke="none" stroke-linecap="butt" stroke-miterlimit="10"/><path d="M330.5,41.5v10c-0.04106,0.27578 0.051,0.55469 0.24815,0.75185c0.19716,0.19716 0.47607,0.28921 0.75185,0.24815h30c0.27578,0.04106 0.55469,-0.051 0.75185,-0.24815c0.19716,-0.19716 0.28921,-0.47607 0.24815,-0.75185v-10c0.04106,-0.27578 -0.051,-0.55469 -0.24815,-0.75185c-0.19716,-0.19716 -0.47607,-0.28921 -0.75185,-0.24815h-30c-0.27578,-0.04106 -0.55469,0.051 -0.75185,0.24815c-0.19716,0.19716 -0.28921,0.47607 -0.24815,0.75185M328.5,41.5c-0.11875,-0.82639 0.15887,-1.66043 0.74922,-2.25078c0.59035,-0.59035 1.42439,-0.86798 2.25078,-0.74922h30c0.82639,-0.11875 1.66043,0.15887 2.25078,0.74922c0.59035,0.59035 0.86798,1.42439 0.74922,2.25078v10c0.11876,0.82639 -0.15887,1.66043 -0.74922,2.25078c-0.59035,0.59035 -1.42439,0.86798 -2.25078,0.74922h-30c-0.82639,0.11875 -1.66043,-0.15887 -2.25078,-0.74922c-0.59035,-0.59035 -0.86798,-1.42439 -0.74922,-2.25078v-10" fill="#94afc6" stroke="none" stroke-linecap="butt" stroke-miterlimit="10"/><path d="M330.5,41.5c-0.04106,-0.27578 0.051,-0.55469 0.24815,-0.75185c0.19716,-0.19716 0.47608,-0.28921 0.75185,-0.24815h30c0.27578,-0.04106 0.5547,0.051 0.75185,0.24815c0.19716,0.19716 0.28921,0.47607 0.24815,0.75185v10c0.04106,0.27578 -0.05099,0.55469 -0.24815,0.75185c-0.19715,0.19716 -0.47607,0.28921 -0.75185,0.24815h-30c-0.27577,0.04106 -0.55469,-0.051 -0.75185,-0.24815c-0.19715,-0.19716 -0.28921,-0.47607 -0.24815,-0.75185v-10" fill="#778d9f" stroke="none" stroke-linecap="butt" stroke-miterlimit="10"/><path d="M350.5,42.5l-4,4M342.65,42.5l3.85,4" fill="none" stroke="#ffffff" stroke-linecap="butt" stroke-miterlimit="3"/><path d="M350.5,50.5l-4,-4M342.5,50.5l4,-4" fill="none" stroke="#ffffff" stroke-linecap="round" stroke-miterlimit="3"/></g></g></svg>