<svg version="1.1" xmlns="http://www.w3.org/2000/svg" xmlns:xlink="http://www.w3.org/1999/xlink" width="100.0216" height="100" viewBox="0,0,100.0216,100"><g transform="translate(-189.48921,-129.5)"><g data-paper-data="{&quot;isPaintingLayer&quot;:true}" fill-rule="nonzero" stroke-width="1" stroke-linecap="butt" stroke-linejoin="miter" stroke-miterlimit="10" stroke-dasharray="" stroke-dashoffset="0" style="mix-blend-mode: normal"><path d="M249.63921,129.5h32.75c2.36667,0 4.11667,0.61667 5.25,1.85c1.33063,1.38981 2.00384,3.28206 1.85,5.2v85.95c0.15384,1.91794 -0.51937,3.81019 -1.85,5.2c-1.13333,1.2 -2.88333,1.8 -5.25,1.8h-85.85c-4.66667,0 -7,-2.33333 -7,-7v-64.75h1.95v64.75c0,3.33333 1.68333,5 5.05,5h85.85c3.4,0 5.1,-1.66667 5.1,-5v-85.95c0,-3.36667 -1.7,-5.05 -5.1,-5.05h-33.5l0.75,-2" fill="#9ea4ad" stroke="none"/><path d="M248.88921,131.5h33.5c3.4,0 5.1,1.68333 5.1,5.05v85.95c0,3.36667 -1.7,5.03333 -5.1,5h-85.85c-3.36667,0 -5.05,-1.66667 -5.05,-5v-64.75h47.3l-0.8,2h-44.5v62.75c-0.10096,0.83158 0.18977,1.66291 0.78697,2.25033c0.59721,0.58742 1.43324,0.86437 2.26303,0.74967h85.85c2.06667,0 3.1,-1 3.1,-3v-85.95c0,-2 -1.03333,-3 -3.1,-3h-34.3l0.8,-2" fill="#ecf2fa" stroke="none"/><path d="M248.58446,133.99054h34.3c2.06667,0 3.1,1.01667 3.1,3.05v85.95c0,2 -1.03333,3 -3.1,3h-85.85c-0.82174,0.09774 -1.64293,-0.18676 -2.22809,-0.77191c-0.58516,-0.58516 -0.86965,-1.40634 -0.77191,-2.22809v-62.75h44.45l0.8,-2l9.3,-24.25" fill="#d6dde7" stroke="none"/><path d="M248.08921,133.5h-51.55c-0.83962,-0.11819 -1.68599,0.1649 -2.28555,0.76445c-0.59955,0.59955 -0.88264,1.44593 -0.76445,2.28555v21.2h-2v-21.2c0,-3.36667 1.68333,-5.05 5.05,-5.05h52.35l-0.8,2" fill="#b1e000" stroke="none"/><path d="M189.48921,157.75v-21.2c0,-4.7 2.35,-7.05 7.05,-7.05h53.1l-0.75,2h-52.35c-3.36667,0 -5.05,1.68333 -5.05,5.05v21.2h-2" fill="#8bb000" stroke="none"/><path d="M248.08921,133.5l-9.3,24.25h-45.3v-21.2c-0.11819,-0.83962 0.1649,-1.68599 0.76445,-2.28555c0.59955,-0.59955 1.44593,-0.88264 2.28555,-0.76445h51.55" fill="#a1cc00" stroke="none"/><path d="M279.48921,137.5c-0.01914,-0.53763 0.17911,-1.06031 0.55,-1.45c0.38969,-0.37089 0.91237,-0.56914 1.45,-0.55c0.52287,-0.01948 1.0302,0.17983 1.4,0.55c0.38918,0.38141 0.60589,0.90511 0.6,1.45c0.01428,0.53194 -0.20495,1.04349 -0.6,1.4c-0.35651,0.39505 -0.86806,0.61428 -1.4,0.6c-0.54489,0.00589 -1.06859,-0.21082 -1.45,-0.6c-0.37017,-0.3698 -0.56948,-0.87713 -0.55,-1.4" fill="#9ea4ad" stroke="none"/><path d="M195.48921,221.5c-0.01914,-0.53763 0.17911,-1.06031 0.55,-1.45c0.38969,-0.37089 0.91237,-0.56914 1.45,-0.55c0.52287,-0.01948 1.0302,0.17983 1.4,0.55c0.38918,0.38141 0.60589,0.90511 0.6,1.45c0.01428,0.53194 -0.20495,1.04349 -0.6,1.4c-0.35651,0.39505 -0.86806,0.61428 -1.4,0.6c-0.54489,0.00589 -1.06859,-0.21082 -1.45,-0.6c-0.37017,-0.3698 -0.56948,-0.87713 -0.55,-1.4" fill="#9ea4ad" stroke="none"/><path d="M280.03921,220.05c0.38969,-0.37089 0.91237,-0.56914 1.45,-0.55c0.52287,-0.01948 1.0302,0.17983 1.4,0.55c0.38918,0.38141 0.60589,0.90511 0.6,1.45c-0.02636,1.09346 -0.90654,1.97364 -2,2c-0.54489,0.00589 -1.06859,-0.21082 -1.45,-0.6c-0.37017,-0.3698 -0.56948,-0.87713 -0.55,-1.4c-0.01914,-0.53763 0.17911,-1.06031 0.55,-1.45" fill="#9ea4ad" stroke="none"/><text transform="translate(196.27297,147.26074) scale(0.26827,0.26827)" font-size="40" xml:space="preserve" fill="#a1cc00" fill-rule="nonzero" stroke="#ffffff" stroke-width="1" stroke-linecap="butt" stroke-linejoin="miter" stroke-miterlimit="10" stroke-dasharray="" stroke-dashoffset="0" font-family="Sans Serif" font-weight="normal" text-anchor="start" style="mix-blend-mode: normal"><tspan x="0" dy="0">被动物品</tspan></text><text transform="translate(249.45751,150.20608) scale(0.36017,0.36017)" font-size="40" xml:space="preserve" fill="#a1cc00" fill-rule="nonzero" stroke="#ffffff" stroke-width="1" stroke-linecap="butt" stroke-linejoin="miter" stroke-miterlimit="10" stroke-dasharray="" stroke-dashoffset="0" font-family="Sans Serif" font-weight="normal" text-anchor="start" style="mix-blend-mode: normal"><tspan x="0" dy="0">子弹</tspan></text><text transform="translate(200.451,176.2727) scale(0.32306,0.32306)" font-size="40" xml:space="preserve" fill="#a1cc00" fill-rule="nonzero" stroke="#ffffff" stroke-width="1" stroke-linecap="butt" stroke-linejoin="miter" stroke-miterlimit="10" stroke-dasharray="" stroke-dashoffset="0" font-family="Sans Serif" font-weight="normal" text-anchor="start" style="mix-blend-mode: normal"><tspan x="0" dy="0">火药*3伤害？</tspan><tspan x="0" dy="46.150000000000006px">黄铜*1</tspan></text></g></g></svg>