<svg version="1.1" xmlns="http://www.w3.org/2000/svg" xmlns:xlink="http://www.w3.org/1999/xlink" width="35.33333" height="35.33333" viewBox="0,0,35.33333,35.33333"><g transform="translate(-222.33334,-162.33334)"><g data-paper-data="{&quot;isPaintingLayer&quot;:true}" fill-rule="nonzero" stroke-linejoin="miter" stroke-miterlimit="10" stroke-dasharray="" stroke-dashoffset="0" style="mix-blend-mode: normal"><path d="M254.35419,166.75006l-1.10417,-1.10417h-26.5l-1.10416,1.10417v26.5l1.10416,1.10416h26.5l1.10417,-1.10416v-26.5M256.56251,165.09381v29.8125c0.06556,0.45624 -0.0877,0.91669 -0.41363,1.24262c-0.32593,0.32593 -0.78638,0.47919 -1.24262,0.41363h-29.8125c-0.45623,0.06557 -0.91668,-0.0877 -1.24261,-0.41363c-0.32593,-0.32592 -0.4792,-0.78638 -0.41364,-1.24262v-29.8125c-0.06556,-0.45623 0.08771,-0.91669 0.41364,-1.24262c0.32592,-0.32593 0.78637,-0.47919 1.24261,-0.41363h29.8125c0.45623,-0.06556 0.91669,0.0877 1.24262,0.41363c0.32593,0.32593 0.47919,0.78638 0.41363,1.24262M251.59376,167.8542c0.22088,0.0031 0.41865,0.13757 0.50275,0.34183c0.08411,0.20426 0.03836,0.43899 -0.11629,0.59672l-0.38646,0.16562l-0.38646,-0.16562l-0.16562,-0.38646l0.16562,-0.38646c0.10194,-0.10402 0.24084,-0.16356 0.38646,-0.16563M228.40627,167.8542c0.22088,0.0031 0.41865,0.13757 0.50275,0.34183c0.08411,0.20426 0.03836,0.43899 -0.11629,0.59672l-0.38646,0.16562l-0.38646,-0.16562l-0.16562,-0.38646l0.16562,-0.38646c0.10194,-0.10402 0.24084,-0.16356 0.38646,-0.16563M228.40627,191.04171c0.22088,0.00311 0.41865,0.13758 0.50275,0.34184c0.08411,0.20426 0.03836,0.43899 -0.11629,0.59672l-0.38646,0.16562l-0.38646,-0.16562l-0.16562,-0.38646l0.16562,-0.38646c0.10194,-0.10402 0.24084,-0.16356 0.38646,-0.16563M251.59376,191.04171c0.22088,0.00311 0.41865,0.13758 0.50275,0.34184c0.08411,0.20426 0.03836,0.43899 -0.11629,0.59672l-0.38646,0.16562l-0.38646,-0.16562l-0.16562,-0.38646l0.16562,-0.38646c0.10194,-0.10402 0.24084,-0.16356 0.38646,-0.16563" data-paper-data="{&quot;index&quot;:null}" fill="#778d9f" stroke="none" stroke-width="1" stroke-linecap="butt"/><path d="M254.35419,166.75006v26.5l-1.10417,1.10416h-26.5l-1.10416,-1.10416v-26.5l1.10416,-1.10417h26.5l1.10417,1.10417M253.25001,167.85421l-1.10416,-1.10416h-24.29166l-1.10417,1.10416v24.29166l1.10417,1.10417h24.29166l1.10416,-1.10417v-24.29166" data-paper-data="{&quot;index&quot;:null}" fill="#647685" stroke="none" stroke-width="1" stroke-linecap="butt"/><path d="M256.56251,165.09381c0.06556,-0.45623 -0.0877,-0.91669 -0.41363,-1.24262c-0.32593,-0.32593 -0.78638,-0.47919 -1.24262,-0.41363h-29.8125c-0.45623,-0.06556 -0.91668,0.0877 -1.24261,0.41363c-0.32593,0.32593 -0.4792,0.78638 -0.41364,1.24262v29.8125c-0.06556,0.45624 0.08771,0.91669 0.41364,1.24262c0.32592,0.32593 0.78637,0.47919 1.24261,0.41363h29.8125c0.45623,0.06557 0.91669,-0.0877 1.24262,-0.41363c0.32593,-0.32592 0.47919,-0.78638 0.41363,-1.24262v-29.8125M254.90626,162.33335c1.84028,0 2.76042,0.92014 2.76042,2.76042v29.8125c0,1.84027 -0.92014,2.76041 -2.76042,2.76041h-29.8125c-1.84027,0 -2.76041,-0.92013 -2.76041,-2.76041v-29.8125c0,-1.84028 0.92013,-2.76042 2.76041,-2.76042h29.8125" data-paper-data="{&quot;index&quot;:null}" fill="#515f6b" stroke="none" stroke-width="1" stroke-linecap="butt"/><path d="M251.59376,167.8542c-0.14563,0.00207 -0.28453,0.06161 -0.38646,0.16563l-0.16562,0.38646l0.16562,0.38646l0.38646,0.16562l0.38646,-0.16562c0.15465,-0.15774 0.20039,-0.39246 0.11629,-0.59672c-0.08411,-0.20426 -0.28187,-0.33873 -0.50275,-0.34183M253.25001,167.8542v24.29166l-1.10416,1.10417h-24.29166l-1.10417,-1.10417v-24.29166l1.10417,-1.10416h24.29166l1.10416,1.10416M251.59376,191.04173c-0.14563,0.00207 -0.28453,0.06161 -0.38646,0.16563l-0.16562,0.38646l0.16562,0.38646l0.38646,0.16562l0.38646,-0.16562c0.15465,-0.15774 0.20039,-0.39246 0.11629,-0.59672c-0.08411,-0.20426 -0.28187,-0.33874 -0.50275,-0.34184M228.40627,191.04173c-0.14563,0.00207 -0.28453,0.06161 -0.38646,0.16563l-0.16562,0.38646l0.16562,0.38646l0.38646,0.16562l0.38646,-0.16562c0.15465,-0.15774 0.20039,-0.39246 0.11629,-0.59672c-0.08411,-0.20426 -0.28187,-0.33874 -0.50275,-0.34184M228.40627,167.8542c-0.14563,0.00207 -0.28453,0.06161 -0.38646,0.16563l-0.16562,0.38646l0.16562,0.38646l0.38646,0.16562l0.38646,-0.16562c0.15465,-0.15774 0.20039,-0.39246 0.11629,-0.59672c-0.08411,-0.20426 -0.28187,-0.33873 -0.50275,-0.34183" data-paper-data="{&quot;index&quot;:null}" fill="#94afc6" stroke="none" stroke-width="1" stroke-linecap="butt"/><path d="M249.41669,176.61669v4.5" data-paper-data="{&quot;index&quot;:null}" fill="none" stroke="#000000" stroke-width="5" stroke-linecap="round"/><path d="M243.91669,176.61669v4.5" data-paper-data="{&quot;index&quot;:null}" fill="none" stroke="#000000" stroke-width="5" stroke-linecap="round"/></g></g></svg>