<svg version="1.1" xmlns="http://www.w3.org/2000/svg" xmlns:xlink="http://www.w3.org/1999/xlink" width="474.93651" height="474.93663" viewBox="0,0,474.93651,474.93663"><g transform="translate(-2.53174,57.46832)"><g data-paper-data="{&quot;isPaintingLayer&quot;:true}" fill-rule="nonzero" stroke="none" stroke-width="1" stroke-linecap="butt" stroke-linejoin="miter" stroke-miterlimit="10" stroke-dasharray="" stroke-dashoffset="0" style="mix-blend-mode: normal"><path d="M84.61073,43.64131c-0.48274,-6.01893 1.62972,-11.95731 5.80568,-16.31916c3.55687,-3.8707 9.04873,-5.80568 16.47629,-5.80568h269.42214c14.75005,0 22.07266,7.3748 21.96815,22.12485v269.73596c0,14.64567 -7.32304,21.96815 -21.96815,21.96815h-269.42214c-7.42741,0 -12.91941,-1.88336 -16.47629,-5.64912c-4.17596,-4.36183 -6.28842,-10.30023 -5.80568,-16.31916v-269.73596M90.8875,43.64131v269.73596c0,10.46115 5.3353,15.69152 16.00534,15.69152h269.42214c10.56552,0 15.84808,-5.23036 15.84808,-15.69152v-269.73596c0,-10.56552 -5.28255,-15.84808 -15.84808,-15.84808h-269.42214c-10.67004,0 -16.00534,5.28255 -16.00534,15.84808" fill="#9ea4ad"/><path d="M80.54012,8.96965h319.19708c3.09195,-0.37541 6.18306,0.70522 8.36707,2.92585c2.18401,2.22021 3.21344,5.32871 2.78711,8.41406v319.56885c0.36362,3.05533 -0.69442,6.1087 -2.86987,8.28415c-2.17545,2.17545 -5.22896,3.23309 -8.28415,2.86987h-319.19708c-7.68386,0 -11.5258,-3.71819 -11.5258,-11.15416v-319.56885c0,-7.56013 3.84193,-11.34005 11.5258,-11.34005" fill="#d6dde7"/><path d="M106.89312,34.22741c-6.48552,0 -9.72857,3.13811 -9.72857,9.41474v269.73596c0,6.27663 3.24305,9.41474 9.72857,9.41474h269.42214c2.60417,0.35998 5.22755,-0.50953 7.10196,-2.35292c1.87396,-1.84381 2.78669,-4.45261 2.46949,-7.06238v-269.73596c0.37119,-2.63517 -0.51753,-5.29153 -2.39892,-7.17292c-1.88196,-1.88141 -4.53776,-2.76971 -7.17292,-2.39892h-269.42214M90.8875,43.64131c0,-10.56552 5.3353,-15.84808 16.00534,-15.84808h269.42214c10.56552,0 15.84808,5.28255 15.84808,15.84808v269.73596c0,10.46115 -5.28255,15.69152 -15.84808,15.69152h-269.42214c-10.67004,0.10451 -16.00534,-5.12585 -16.00534,-15.69152v-269.73596" fill="#ecf2fa"/><path d="M367.05681,46.62273c-0.0188,-1.71025 0.66145,-3.35359 1.8828,-4.55053c1.16074,-1.16159 2.75274,-1.78741 4.39383,-1.72624c1.68711,-0.05976 3.32778,0.56228 4.55053,1.72624c1.16398,1.22275 1.78642,2.86328 1.72624,4.55053c0.06117,1.64109 -0.56451,3.23309 -1.72624,4.39383c-1.19694,1.22135 -2.84028,1.90118 -4.55053,1.8828c-1.66971,0.04475 -3.27503,-0.64307 -4.39383,-1.8828c-1.23973,-1.11922 -1.92755,-2.72454 -1.8828,-4.39383" fill="#9ea4ad"/><path d="M105.32316,51.01654c-1.23973,-1.11922 -1.92755,-2.72454 -1.8828,-4.39383c-0.01838,-1.71025 0.66145,-3.35359 1.8828,-4.55053c1.16074,-1.16159 2.75274,-1.78741 4.39383,-1.72624c1.68711,-0.05976 3.32778,0.56228 4.55053,1.72624c1.16398,1.22275 1.78642,2.86328 1.72624,4.55053c0.06117,1.64109 -0.56451,3.23309 -1.72624,4.39383c-1.19694,1.22135 -2.84028,1.90118 -4.55053,1.8828c-1.66971,0.04475 -3.27503,-0.64307 -4.39383,-1.8828" fill="#9ea4ad"/><path d="M368.93961,314.63259c-1.23973,-1.11922 -1.92755,-2.72454 -1.8828,-4.39383c-0.0188,-1.71025 0.66145,-3.35359 1.8828,-4.55053c1.16074,-1.16159 2.75274,-1.78741 4.39383,-1.72624c1.68711,-0.05976 3.32778,0.56228 4.55053,1.72624c1.16398,1.22275 1.78642,2.86328 1.72624,4.55053c0.06117,1.64109 -0.56451,3.23309 -1.72624,4.39383c-1.19694,1.22135 -2.84028,1.90118 -4.55053,1.8828c-1.66971,0.04475 -3.27503,-0.64307 -4.39383,-1.8828" fill="#9ea4ad"/><path d="M109.71699,316.51539c-3.43173,-0.08278 -6.19387,-2.84504 -6.27663,-6.27663c-0.01838,-1.71025 0.66145,-3.35359 1.8828,-4.55053c1.16074,-1.16159 2.75274,-1.78741 4.39383,-1.72624c1.6937,-0.10156 3.35036,0.52693 4.54997,1.72666c1.20017,1.19975 1.82824,2.85627 1.72666,4.54997c0.06117,1.64109 -0.56451,3.23309 -1.72624,4.39383c-1.19694,1.22135 -2.84028,1.90118 -4.55053,1.8828" fill="#9ea4ad"/><path d="M418.09265,-42.61752h-59.36434l14.84136,14.84136h44.52352l14.84136,14.84136h-14.84136v14.84136h14.84136v-14.84136l14.84136,14.84136v44.52352l14.84136,14.84136v-89.04693l-14.84136,-14.84136h-29.68216M462.61563,76.11058c-3.94729,0.10634 -7.7432,-1.52059 -10.38862,-4.45218l-4.45218,-4.45218l-10.38862,-10.38862c-2.93103,-2.64555 -4.55796,-6.44133 -4.45218,-10.38862v-29.68216h-14.84136c-3.94729,0.10634 -7.7432,-1.52059 -10.38862,-4.45218c-2.93103,-2.64555 -4.55796,-6.44133 -4.45218,-10.38862v-14.84136h-29.68216c-3.94729,0.10634 -7.7432,-1.52059 -10.38862,-4.45218l-7.4204,-7.4204l-7.4204,-7.4204c-2.93103,-2.64555 -4.55796,-6.44133 -4.45218,-10.38862c-0.04377,-4.04325 1.56436,-7.92951 4.45218,-10.75997c2.7439,-2.74712 6.50868,-4.2259 10.38862,-4.08141h89.04693c3.98965,-0.14212 7.86835,1.32909 10.75997,4.08141l14.84136,14.84136c2.75232,2.89162 4.22351,6.77017 4.08141,10.75997v89.04693c0.14449,3.8801 -1.3347,7.64429 -4.08141,10.38862c-2.83046,2.88783 -6.71658,4.49595 -10.75997,4.45218M136.11052,-42.61569c0.10634,3.94729 -1.52059,7.7432 -4.45218,10.38862l-4.45218,4.45218l-10.38862,10.38862c-2.64555,2.9316 -6.44133,4.55796 -10.38862,4.45218h-29.68216v14.84136c0.10634,3.94729 -1.52059,7.7432 -4.45218,10.38862c-2.64555,2.93103 -6.44133,4.55796 -10.38862,4.45218h-14.84136v29.68216c0.10634,3.94729 -1.52059,7.7432 -4.45218,10.38862l-7.4204,7.4204l-7.4204,7.4204c-2.64555,2.93103 -6.44133,4.55796 -10.38862,4.45218c-4.04325,0.04377 -7.92951,-1.56436 -10.75997,-4.45218c-2.74712,-2.7439 -4.2259,-6.50868 -4.08141,-10.38862v-89.04693c-0.14212,-3.98965 1.32909,-7.86835 4.08141,-10.75997l14.84136,-14.84136c2.89162,-2.75232 6.77017,-4.22351 10.75997,-4.08141h89.04693c3.8801,-0.14449 7.64429,1.3347 10.38862,4.08141c2.88783,2.83046 4.49595,6.71658 4.45218,10.75997M17.38381,283.88899c3.94729,-0.10634 7.7432,1.52059 10.38862,4.45218l4.45218,4.45218l10.38862,10.38862c2.93103,2.64555 4.55796,6.44133 4.45218,10.38862v29.68216h14.84136c8.11442,0.19571 14.64567,6.72737 14.84136,14.84136v14.84136h29.68216c3.94729,-0.10634 7.7432,1.52059 10.38862,4.45218l10.38862,10.38862l4.45218,4.45218c2.93103,2.64555 4.55796,6.44133 4.45218,10.38862c0.04377,4.04325 -1.56436,7.92951 -4.45218,10.75997c-2.7439,2.74712 -6.50868,4.2259 -10.38862,4.08141h-89.04693c-3.98965,0.14212 -7.86835,-1.32909 -10.75997,-4.08141l-14.84136,-14.84136c-2.75232,-2.89162 -4.22351,-6.77017 -4.08141,-10.75997v-89.04693c-0.14449,-3.8801 1.3347,-7.64429 4.08141,-10.38862c2.83046,-2.88783 6.71658,-4.49595 10.75997,-4.45218M343.88933,402.61569c-0.10634,-3.94729 1.52059,-7.7432 4.45218,-10.38862l4.45218,-4.45218l10.38862,-10.38862c2.64555,-2.93103 6.44133,-4.55796 10.38862,-4.45218h29.68216v-14.84136c-0.10634,-3.94729 1.52059,-7.7432 4.45218,-10.38862c2.64555,-2.93103 6.44133,-4.55796 10.38862,-4.45218h14.84136v-29.68216c-0.10634,-3.94729 1.52059,-7.7432 4.45218,-10.38862l10.38862,-10.38862l4.45218,-4.45218c2.64555,-2.93103 6.44133,-4.55796 10.38862,-4.45218c4.04325,-0.04377 7.92951,1.56436 10.75997,4.45218c2.74712,2.7439 4.2259,6.50868 4.08141,10.38862v89.04693c0.14212,3.98965 -1.32909,7.86835 -4.08141,10.75997l-14.84136,14.84136c-2.89162,2.75232 -6.77017,4.22351 -10.75997,4.08141h-89.04693c-3.8801,0.14449 -7.64429,-1.3347 -10.38862,-4.08141c-2.88783,-2.83046 -4.49595,-6.71658 -4.45218,-10.75997M462.61746,328.41057v-29.68216l-14.84136,14.84136v44.52352l-14.84136,14.84136v-14.84136h-14.84136v14.84136h14.84136l-14.84136,14.84136h-44.52352l-14.84136,14.84136h89.04693l14.84136,-14.84136v-59.36434M17.3824,1.90727v59.36434l14.84136,-14.84136v-44.52352l14.84136,-14.84136v14.84136h14.84136v-14.84136h-14.84136l14.84136,-14.84136h44.52352l14.84136,-14.84136h-89.04693l-14.84136,14.84136v29.68216M17.38324,328.41238v59.36434l14.84136,14.84136h89.04693l-14.84136,-14.84136h-44.52352l-14.84136,-14.84136h14.84136v-14.84136h-14.84136v14.84136l-14.84136,-14.84136v-44.52352l-14.84136,-14.84136v29.68216" fill="#515f6b"/><path d="M17.38282,328.41099v-29.68216l14.84136,14.84136v14.84136h-14.84136M462.61746,1.90685h-14.84136l-14.84136,-14.84136v14.84136h-14.84136v-14.84136h14.84136l-14.84136,-14.84136v-14.84136h29.68216l14.84136,14.84136v29.68216M388.41189,-42.6171v14.84136h-14.84136l-14.84136,-14.84136h29.68216M447.77582,31.58901h14.84136v29.68216l-14.84136,-14.84136v-14.84136M447.77582,328.41195v-14.84136l14.84136,-14.84136v29.68216h-14.84136M462.61662,358.09414v29.68216l-14.84136,14.84136h-29.68216v-14.84136l14.84136,-14.84136h-14.84136v-14.84136h14.84136v14.84136l14.84136,-14.84136h14.84136M388.41091,387.77588v14.84136h-29.68216l14.84136,-14.84136h14.84136M61.90679,-42.61752v14.84136l-14.84136,14.84136h14.84136v14.84136h-14.84136v-14.84136l-14.84136,14.84136h-14.84136v-29.68216l14.84136,-14.84136h29.68216M17.38282,31.58805h14.84136v14.84136l-14.84136,14.84136v-29.68216M91.58895,-27.77574v-14.84136h29.68216l-14.84136,14.84136h-14.84136M17.3824,358.09315h14.84136l14.84136,14.84136v-14.84136h14.84136v14.84136h-14.84136l14.84136,14.84136v14.84136h-29.68216l-14.84136,-14.84136v-29.68216M91.58796,402.6171v-14.84136h14.84136l14.84136,14.84136h-29.68216" fill="#94afc6"/><path d="M91.58839,402.6171h-29.68216v-14.84136h29.68216v14.84136M418.09363,-42.6171v14.84136h-29.68216v-14.84136h29.68216M447.77582,1.90643h14.84136v29.68216h-14.84136v-29.68216M462.61704,328.41153v29.68216h-14.84136v-29.68216h14.84136M388.41147,387.77588h29.68216v14.84136h-29.68216v-14.84136M17.38282,1.90643h14.84136v29.68216h-14.84136v-29.68216M61.90637,-27.77574v-14.84136h29.68216v14.84136h-29.68216M17.38282,328.41153h14.84136v29.68216h-14.84136v-29.68216" fill="#778d9f"/><path d="M447.77582,67.20861v186.99822l-7.4204,7.4204l7.4204,7.4204v23.74559l-10.38862,10.38862c-2.93103,2.64555 -4.55796,6.44133 -4.45218,10.38862v29.68216h-14.84136v-326.50511h14.84136v29.68216c-0.10634,3.94729 1.52059,7.7432 4.45218,10.38862l10.38862,10.38862M403.25368,1.90643h-326.50511v-14.84136h29.68216c3.94729,0.10634 7.7432,-1.52059 10.38862,-4.45218l10.38862,-10.38862h157.31606l7.4204,7.4204l7.4204,-7.4204h29.68216l14.84136,14.84136l11.87301,-11.87301l7.4204,7.4204c2.64555,2.9316 6.44133,4.55796 10.38862,4.45218h29.68216v14.84136M352.79232,387.77588h-186.99822l-14.84136,-14.84136l-14.84136,14.84136h-8.90479l-10.38862,-10.38862c-2.64555,-2.93103 -6.44133,-4.55796 -10.38862,-4.45218h-29.68216v-14.84136h326.50511v14.84136h-29.68216c-3.94729,-0.10634 -7.7432,1.52059 -10.38862,4.45218l-10.38862,10.38862M61.90637,16.74723v326.50511h-14.84136v-29.68216c0.10634,-3.94729 -1.52059,-7.7432 -4.45218,-10.38862l-10.38862,-10.38862v-201.83944l14.84136,-14.84136l-11.87301,-11.87301l7.4204,-7.4204c2.93103,-2.64555 4.55796,-6.44133 4.45218,-10.38862v-29.68216h14.84136" fill="#b47b41"/><path d="M348.3411,-32.2289l7.4204,7.4204l-11.87301,11.87301l-14.84136,-14.84136h-29.68216l-7.4204,7.4204l-7.4204,-7.4204h-157.31606l4.45218,-4.45218c2.93103,-2.64555 4.55796,-6.44133 4.45218,-10.38862h148.41125l7.4204,7.4204l7.4204,-7.4204h29.68216l14.84136,14.84136l4.45218,-4.45218M27.77102,71.65896l7.4204,-7.4204l11.87301,11.87301l-14.84136,14.84136v201.83944l-4.45218,-4.45218c-2.64555,-2.93103 -6.44133,-4.55796 -10.38862,-4.45218v-192.93466l14.84136,-14.84136l-4.45218,-4.45218M136.11151,402.6171c0.10634,-3.94729 -1.52059,-7.7432 -4.45218,-10.38862l-4.45218,-4.45218h8.90479l14.84136,-14.84136l14.84136,14.84136h186.99822l-4.45218,4.45218c-2.93103,2.64555 -4.55796,6.44133 -4.45218,10.38862h-178.09386l-14.84136,-14.84136l-14.84136,14.84136M462.61704,283.88801c-3.94729,-0.10634 -7.7432,1.52059 -10.38862,4.45218l-4.45218,4.45218v-23.74559l-7.4204,-7.4204l7.4204,-7.4204v-186.99822l4.45218,4.45218c2.64555,2.93103 6.44133,4.55796 10.38862,4.45218v178.09386l-7.4204,7.4204l7.4204,7.4204v14.84136" fill="#6d4b27"/><path d="M418.09406,16.74821v326.50511c-3.94729,-0.10634 -7.7432,1.52059 -10.38862,4.45218c-2.93103,2.64555 -4.55796,6.44133 -4.45218,10.38862h-326.50511c-0.19571,-8.11442 -6.72737,-14.64567 -14.84136,-14.84136v-326.50511c3.94729,0.10634 7.7432,-1.52059 10.38862,-4.45218c2.93103,-2.64555 4.55796,-6.44133 4.45218,-10.38862h326.50511c-0.10634,3.94729 1.52059,7.7432 4.45218,10.38862c2.64555,2.93103 6.44133,4.55796 10.38862,4.45218M388.41147,16.74765h-178.09343l-14.84136,14.84136l-14.84136,-14.84136h-103.88773v207.77602l7.4204,7.4204l-7.4204,7.4204v103.88773h326.50511v-237.45818l-7.4204,-7.4204l7.4204,-7.4204v-74.20557h-14.84136" fill="#a3703a"/><path d="M388.41147,16.74765h14.84136v14.84136l-14.84136,-14.84136M91.58839,16.74765l-14.84136,14.84136v-14.84136h14.84136M76.74759,328.41153l14.84136,14.84136h-14.84136v-14.84136M388.41147,343.25277l14.84136,-14.84136v14.84136h-14.84136" fill="#d2c6ac"/></g></g></svg>