<svg version="1.1" xmlns="http://www.w3.org/2000/svg" xmlns:xlink="http://www.w3.org/1999/xlink" width="299.4365" height="299.43658" viewBox="0,0,299.4365,299.43658"><defs><radialGradient cx="170.92498" cy="263.93144" r="20.89227" gradientUnits="userSpaceOnUse" id="color-1"><stop offset="0" stop-color="#00b5ff"/><stop offset="1" stop-color="#00b5ff" stop-opacity="0"/></radialGradient><radialGradient cx="179.94571" cy="257.55664" r="11.37397" gradientUnits="userSpaceOnUse" id="color-2"><stop offset="0" stop-color="#00b5ff"/><stop offset="1" stop-color="#00b5ff" stop-opacity="0"/></radialGradient><radialGradient cx="161.91595" cy="256.01123" r="11.37397" gradientUnits="userSpaceOnUse" id="color-3"><stop offset="0" stop-color="#00b5ff"/><stop offset="1" stop-color="#00b5ff" stop-opacity="0"/></radialGradient></defs><g transform="translate(-90.28175,-30.28171)"><g data-paper-data="{&quot;isPaintingLayer&quot;:true}" fill-rule="nonzero" stroke-linejoin="miter" stroke-miterlimit="10" stroke-dasharray="" stroke-dashoffset="0" style="mix-blend-mode: normal"><path d="M142.03066,94.029c-0.30436,-3.7948 1.0275,-7.53881 3.66035,-10.28885c2.24252,-2.44038 5.70502,-3.66035 10.38792,-3.66035h169.86444c9.29956,0 13.9163,4.64964 13.85041,13.94921v170.06229c0,9.23376 -4.61701,13.85041 -13.85041,13.85041h-169.86444c-4.68281,0 -8.14539,-1.18741 -10.38792,-3.56164c-2.63285,-2.75003 -3.9647,-6.49406 -3.66035,-10.28885v-170.06229M145.98801,94.029v170.06229c0,6.59552 3.36378,9.89314 10.091,9.89314h169.86444c6.66132,0 9.99185,-3.29763 9.99185,-9.89314v-170.06229c0,-6.66132 -3.33053,-9.99185 -9.99185,-9.99185h-169.86444c-6.72721,0 -10.091,3.33053 -10.091,9.99185" fill="#9ea4ad" stroke="none" stroke-width="1" stroke-linecap="butt"/><path d="M143.94082,74.85565h201.24638c1.9494,-0.23669 3.89828,0.44463 5.27525,1.84468c1.37696,1.39979 2.026,3.35963 1.75721,5.30487v201.48078c0.22925,1.92632 -0.43781,3.8514 -1.80939,5.22297c-1.37157,1.37157 -3.29674,2.03839 -5.22297,1.80939h-201.24638c-4.8445,0 -7.26675,-2.34424 -7.26675,-7.03244v-201.48078c0,-4.76648 2.42225,-7.14964 7.26675,-7.14964" fill="#d6dde7" stroke="none" stroke-width="1" stroke-linecap="butt"/><path d="M156.07919,88.09375c-4.08897,0 -6.13364,1.97851 -6.13364,5.93578v170.06229c0,3.95727 2.04467,5.93578 6.13364,5.93578h169.86444c1.64187,0.22696 3.29585,-0.32125 4.47762,-1.48346c1.18149,-1.16248 1.75694,-2.80726 1.55696,-4.45267v-170.06229c0.23403,-1.66141 -0.32629,-3.33619 -1.51247,-4.52237c-1.18653,-1.18619 -2.86095,-1.74624 -4.52237,-1.51247h-169.86444M145.98801,94.029c0,-6.66132 3.36378,-9.99185 10.091,-9.99185h169.86444c6.66132,0 9.99185,3.33053 9.99185,9.99185v170.06229c0,6.59552 -3.33053,9.89314 -9.99185,9.89314h-169.86444c-6.72721,0.06589 -10.091,-3.23173 -10.091,-9.89314v-170.06229" fill="#ecf2fa" stroke="none" stroke-width="1" stroke-linecap="butt"/><path d="M320.10639,95.90871c-0.01185,-1.07827 0.41703,-2.11436 1.18706,-2.869c0.73182,-0.73235 1.73554,-1.12692 2.77021,-1.08835c1.06369,-0.03768 2.09809,0.3545 2.869,1.08835c0.73386,0.77092 1.1263,1.80523 1.08835,2.869c0.03857,1.03467 -0.35591,2.03839 -1.08835,2.77021c-0.75464,0.77003 -1.79073,1.19865 -2.869,1.18706c-1.05272,0.02822 -2.06483,-0.40545 -2.77021,-1.18706c-0.78162,-0.70565 -1.21528,-1.71776 -1.18706,-2.77021" fill="#9ea4ad" stroke="none" stroke-width="1" stroke-linecap="butt"/><path d="M155.08937,98.67891c-0.78162,-0.70565 -1.21528,-1.71776 -1.18706,-2.77021c-0.01159,-1.07827 0.41703,-2.11436 1.18706,-2.869c0.73182,-0.73235 1.73554,-1.12692 2.77021,-1.08835c1.06369,-0.03768 2.09809,0.3545 2.869,1.08835c0.73386,0.77092 1.1263,1.80523 1.08835,2.869c0.03857,1.03467 -0.35591,2.03839 -1.08835,2.77021c-0.75464,0.77003 -1.79073,1.19865 -2.869,1.18706c-1.05272,0.02822 -2.06483,-0.40545 -2.77021,-1.18706" fill="#9ea4ad" stroke="none" stroke-width="1" stroke-linecap="butt"/><path d="M321.29345,264.88273c-0.78162,-0.70565 -1.21528,-1.71776 -1.18706,-2.77021c-0.01185,-1.07827 0.41703,-2.11436 1.18706,-2.869c0.73182,-0.73235 1.73554,-1.12692 2.77021,-1.08835c1.06369,-0.03768 2.09809,0.3545 2.869,1.08835c0.73386,0.77092 1.1263,1.80523 1.08835,2.869c0.03857,1.03467 -0.35591,2.03839 -1.08835,2.77021c-0.75464,0.77003 -1.79073,1.19865 -2.869,1.18706c-1.05272,0.02822 -2.06483,-0.40545 -2.77021,-1.18706" fill="#9ea4ad" stroke="none" stroke-width="1" stroke-linecap="butt"/><path d="M157.85958,266.0698c-2.16363,-0.05219 -3.9051,-1.79374 -3.95727,-3.95727c-0.01159,-1.07827 0.41703,-2.11436 1.18706,-2.869c0.73182,-0.73235 1.73554,-1.12692 2.77021,-1.08835c1.06784,-0.06403 2.11232,0.33222 2.86865,1.08862c0.75668,0.75642 1.15267,1.80081 1.08862,2.86865c0.03857,1.03467 -0.35591,2.03839 -1.08835,2.77021c-0.75464,0.77003 -1.79073,1.19865 -2.869,1.18706" fill="#9ea4ad" stroke="none" stroke-width="1" stroke-linecap="butt"/><path d="M352.28331,39.6448h-37.42785l9.35713,9.35713h28.07105l9.35713,9.35713h-9.35713v9.35713h9.35713v-9.35713l9.35713,9.35713v28.07105l9.35713,9.35713v-56.14203l-9.35713,-9.35713h-18.71392M380.35401,114.50012c-2.48868,0.06704 -4.88191,-0.9587 -6.54978,-2.807l-2.807,-2.807l-6.54978,-6.54978c-1.84795,-1.66796 -2.87369,-4.06111 -2.807,-6.54978v-18.71392h-9.35713c-2.48868,0.06704 -4.88191,-0.9587 -6.54978,-2.807c-1.84795,-1.66796 -2.87369,-4.06111 -2.807,-6.54978v-9.35713h-18.71392c-2.48868,0.06704 -4.88191,-0.9587 -6.54978,-2.807l-4.67839,-4.67839l-4.67839,-4.67839c-1.84795,-1.66796 -2.87369,-4.06111 -2.807,-6.54978c-0.0276,-2.54917 0.98629,-4.99938 2.807,-6.78391c1.72997,-1.73199 4.10357,-2.66433 6.54978,-2.57324h56.14203c2.51538,-0.0896 4.96081,0.83796 6.78391,2.57324l9.35713,9.35713c1.73528,1.8231 2.66283,4.26844 2.57324,6.78391v56.14203c0.0911,2.44631 -0.8415,4.81955 -2.57324,6.54978c-1.78454,1.82071 -4.23465,2.8346 -6.78391,2.807M174.50009,39.64595c0.06704,2.48868 -0.9587,4.88191 -2.807,6.54978l-2.807,2.807l-6.54978,6.54978c-1.66796,1.8483 -4.06111,2.87369 -6.54978,2.807h-18.71392v9.35713c0.06704,2.48868 -0.9587,4.88191 -2.807,6.54978c-1.66796,1.84795 -4.06111,2.87369 -6.54978,2.807h-9.35713v18.71392c0.06704,2.48868 -0.9587,4.88191 -2.807,6.54978l-4.67839,4.67839l-4.67839,4.67839c-1.66796,1.84795 -4.06111,2.87369 -6.54978,2.807c-2.54917,0.0276 -4.99938,-0.98629 -6.78391,-2.807c-1.73199,-1.72997 -2.66433,-4.10357 -2.57324,-6.54978v-56.14203c-0.0896,-2.51538 0.83796,-4.96081 2.57324,-6.78391l9.35713,-9.35713c1.8231,-1.73528 4.26844,-2.66283 6.78391,-2.57324h56.14203c2.44631,-0.0911 4.81955,0.8415 6.54978,2.57324c1.82071,1.78454 2.8346,4.23465 2.807,6.78391M99.64564,245.49961c2.48868,-0.06704 4.88191,0.9587 6.54978,2.807l2.807,2.807l6.54978,6.54978c1.84795,1.66796 2.87369,4.06111 2.807,6.54978v18.71392h9.35713c5.11595,0.12339 9.23376,4.24145 9.35713,9.35713v9.35713h18.71392c2.48868,-0.06704 4.88191,0.9587 6.54978,2.807l6.54978,6.54978l2.807,2.807c1.84795,1.66796 2.87369,4.06111 2.807,6.54978c0.0276,2.54917 -0.98629,4.99938 -2.807,6.78391c-1.72997,1.73199 -4.10357,2.66433 -6.54978,2.57324h-56.14203c-2.51538,0.0896 -4.96081,-0.83796 -6.78391,-2.57324l-9.35713,-9.35713c-1.73528,-1.8231 -2.66283,-4.26844 -2.57324,-6.78391v-56.14203c-0.0911,-2.44631 0.8415,-4.81955 2.57324,-6.54978c1.78454,-1.82071 4.23465,-2.8346 6.78391,-2.807M305.49983,320.35405c-0.06704,-2.48868 0.9587,-4.88191 2.807,-6.54978l2.807,-2.807l6.54978,-6.54978c1.66796,-1.84795 4.06111,-2.87369 6.54978,-2.807h18.71392v-9.35713c-0.06704,-2.48868 0.9587,-4.88191 2.807,-6.54978c1.66796,-1.84795 4.06111,-2.87369 6.54978,-2.807h9.35713v-18.71392c-0.06704,-2.48868 0.9587,-4.88191 2.807,-6.54978l6.54978,-6.54978l2.807,-2.807c1.66796,-1.84795 4.06111,-2.87369 6.54978,-2.807c2.54917,-0.0276 4.99938,0.98629 6.78391,2.807c1.73199,1.72997 2.66433,4.10357 2.57324,6.54978v56.14203c0.0896,2.51538 -0.83796,4.96081 -2.57324,6.78391l-9.35713,9.35713c-1.8231,1.73528 -4.26844,2.66283 -6.78391,2.57324h-56.14203c-2.44631,0.0911 -4.81955,-0.8415 -6.54978,-2.57324c-1.82071,-1.78454 -2.8346,-4.23465 -2.807,-6.78391M380.35517,273.56943v-18.71392l-9.35713,9.35713v28.07105l-9.35713,9.35713v-9.35713h-9.35713v9.35713h9.35713l-9.35713,9.35713h-28.07105l-9.35713,9.35713h56.14203l9.35713,-9.35713v-37.42785M99.64475,67.71665v37.42785l9.35713,-9.35713v-28.07105l9.35713,-9.35713v9.35713h9.35713v-9.35713h-9.35713l9.35713,-9.35713h28.07105l9.35713,-9.35713h-56.14203l-9.35713,9.35713v18.71392M99.64528,273.57058v37.42785l9.35713,9.35713h56.14203l-9.35713,-9.35713h-28.07105l-9.35713,-9.35713h9.35713v-9.35713h-9.35713v9.35713l-9.35713,-9.35713v-28.07105l-9.35713,-9.35713v18.71392" fill="#515f6b" stroke="none" stroke-width="1" stroke-linecap="butt"/><path d="M99.64502,273.5697v-18.71392l9.35713,9.35713v9.35713h-9.35713M380.35517,67.71638h-9.35713l-9.35713,-9.35713v9.35713h-9.35713v-9.35713h9.35713l-9.35713,-9.35713v-9.35713h18.71392l9.35713,9.35713v18.71392M333.57027,39.64506v9.35713h-9.35713l-9.35713,-9.35713h18.71392M370.99786,86.4303h9.35713v18.71392l-9.35713,-9.35713v-9.35713M370.99786,273.57031v-9.35713l9.35713,-9.35713v18.71392h-9.35713M380.35464,292.28424v18.71392l-9.35713,9.35713h-18.71392v-9.35713l9.35713,-9.35713h-9.35713v-9.35713h9.35713v9.35713l9.35713,-9.35713h9.35713M333.56965,310.99789v9.35713h-18.71392l9.35713,-9.35713h9.35713M127.71634,39.6448v9.35713l-9.35713,9.35713h9.35713v9.35713h-9.35713v-9.35713l-9.35713,9.35713h-9.35713v-18.71392l9.35713,-9.35713h18.71392M99.64502,86.42969h9.35713v9.35713l-9.35713,9.35713v-18.71392M146.43026,49.0022v-9.35713h18.71392l-9.35713,9.35713h-9.35713M99.64475,292.28362h9.35713l9.35713,9.35713v-9.35713h9.35713v9.35713h-9.35713l9.35713,9.35713v9.35713h-18.71392l-9.35713,-9.35713v-18.71392M146.42964,320.35494v-9.35713h9.35713l9.35713,9.35713h-18.71392" fill="#94afc6" stroke="none" stroke-width="1" stroke-linecap="butt"/><path d="M146.42991,320.35494h-18.71392v-9.35713h18.71392v9.35713M352.28393,39.64506v9.35713h-18.71392v-9.35713h18.71392M370.99786,67.71612h9.35713v18.71392h-9.35713v-18.71392M380.3549,273.57005v18.71392h-9.35713v-18.71392h9.35713M333.57001,310.99789h18.71392v9.35713h-18.71392v-9.35713M99.64502,67.71612h9.35713v18.71392h-9.35713v-18.71392M127.71608,49.0022v-9.35713h18.71392v9.35713h-18.71392M99.64502,273.57005h9.35713v18.71392h-9.35713v-18.71392" fill="#778d9f" stroke="none" stroke-width="1" stroke-linecap="butt"/><path d="M370.99786,108.88763v117.89806l-4.67839,4.67839l4.67839,4.67839v14.97105l-6.54978,6.54978c-1.84795,1.66796 -2.87369,4.06111 -2.807,6.54978v18.71392h-9.35713v-205.85393h9.35713v18.71392c-0.06704,2.48868 0.9587,4.88191 2.807,6.54978l6.54978,6.54978M342.92768,67.71612h-205.85393v-9.35713h18.71392c2.48868,0.06704 4.88191,-0.9587 6.54978,-2.807l6.54978,-6.54978h99.18414l4.67839,4.67839l4.67839,-4.67839h18.71392l9.35713,9.35713l7.48565,-7.48565l4.67839,4.67839c1.66796,1.8483 4.06111,2.87369 6.54978,2.807h18.71392v9.35713M311.11295,310.99789h-117.89806l-9.35713,-9.35713l-9.35713,9.35713h-5.61426l-6.54978,-6.54978c-1.66796,-1.84795 -4.06111,-2.87369 -6.54978,-2.807h-18.71392v-9.35713h205.85393v9.35713h-18.71392c-2.48868,-0.06704 -4.88191,0.9587 -6.54978,2.807l-6.54978,6.54978M127.71608,77.07289v205.85393h-9.35713v-18.71392c0.06704,-2.48868 -0.9587,-4.88191 -2.807,-6.54978l-6.54978,-6.54978v-127.25511l9.35713,-9.35713l-7.48565,-7.48565l4.67839,-4.67839c1.84795,-1.66796 2.87369,-4.06111 2.807,-6.54978v-18.71392h9.35713" fill="#b47b41" stroke="none" stroke-width="1" stroke-linecap="butt"/><path d="M308.30679,46.19476l4.67839,4.67839l-7.48565,7.48565l-9.35713,-9.35713h-18.71392l-4.67839,4.67839l-4.67839,-4.67839h-99.18414l2.807,-2.807c1.84795,-1.66796 2.87369,-4.06111 2.807,-6.54978h93.56986l4.67839,4.67839l4.67839,-4.67839h18.71392l9.35713,9.35713l2.807,-2.807M106.19475,111.69366l4.67839,-4.67839l7.48565,7.48565l-9.35713,9.35713v127.25511l-2.807,-2.807c-1.66796,-1.84795 -4.06111,-2.87369 -6.54978,-2.807v-121.64084l9.35713,-9.35713l-2.807,-2.807M174.50093,320.35512c0.06704,-2.48868 -0.9587,-4.88191 -2.807,-6.54978l-2.807,-2.807h5.61426l9.35713,-9.35713l9.35713,9.35713h117.89806l-2.807,2.807c-1.84795,1.66796 -2.87369,4.06111 -2.807,6.54978h-112.28406l-9.35713,-9.35713l-9.35713,9.35713M380.35513,245.49916c-2.48868,-0.06704 -4.88191,0.9587 -6.54978,2.807l-2.807,2.807v-14.97105l-4.67839,-4.67839l4.67839,-4.67839v-117.89806l2.807,2.807c1.66796,1.84795 4.06111,2.87369 6.54978,2.807v112.28406l-4.67839,4.67839l4.67839,4.67839v9.35713" fill="#6d4b27" stroke="none" stroke-width="1" stroke-linecap="butt"/><path d="M352.28419,77.07351v205.85393c-2.48868,-0.06704 -4.88191,0.9587 -6.54978,2.807c-1.84795,1.66796 -2.87369,4.06111 -2.807,6.54978h-205.85393c-0.12339,-5.11595 -4.24145,-9.23376 -9.35713,-9.35713v-205.85393c2.48868,0.06704 4.88191,-0.9587 6.54978,-2.807c1.84795,-1.66796 2.87369,-4.06111 2.807,-6.54978h205.85393c-0.06704,2.48868 0.9587,4.88191 2.807,6.54978c1.66796,1.84795 4.06111,2.87369 6.54978,2.807M333.57001,77.07316h-112.2838l-9.35713,9.35713l-9.35713,-9.35713h-65.49881v130.99798l4.67839,4.67839l-4.67839,4.67839v65.49881h205.85393v-149.7119l-4.67839,-4.67839l4.67839,-4.67839v-46.78489h-9.35713" fill="#a3703a" stroke="none" stroke-width="1" stroke-linecap="butt"/><path d="M333.57001,77.07316h9.35713v9.35713l-9.35713,-9.35713M146.42991,77.07316l-9.35713,9.35713v-9.35713h9.35713M137.07313,273.57005l9.35713,9.35713h-9.35713v-9.35713M333.57001,282.92711l9.35713,-9.35713v9.35713h-9.35713" fill="#d2c6ac" stroke="none" stroke-width="1" stroke-linecap="butt"/><path d="M170.92498,266.98713c-11.53847,0 -20.89227,-1.36807 -20.89227,-3.05569c0,-1.6876 9.35379,-3.05569 20.89227,-3.05569c11.53847,0 20.89227,1.36807 20.89227,3.05569c0,1.68761 -9.35379,3.05569 -20.89227,3.05569z" fill="url(#color-1)" stroke="none" stroke-width="0" stroke-linecap="butt"/><path d="M179.94571,268.9306v-22.74793" fill="none" stroke="url(#color-2)" stroke-width="2.5" stroke-linecap="round"/><text transform="translate(164.76092,260.94599) scale(0.50929,0.50929)" font-size="40" xml:space="preserve" fill="#00b4ff" fill-rule="nonzero" stroke="none" stroke-width="1" stroke-linecap="butt" stroke-linejoin="miter" stroke-miterlimit="10" stroke-dasharray="" stroke-dashoffset="0" font-family="Sans Serif" font-weight="normal" text-anchor="start" style="mix-blend-mode: normal"><tspan x="0" dy="0">↓</tspan></text><path d="M161.91595,267.3852v-22.74793" fill="none" stroke="url(#color-3)" stroke-width="2.5" stroke-linecap="round"/></g></g></svg>