<svg version="1.1" xmlns="http://www.w3.org/2000/svg" xmlns:xlink="http://www.w3.org/1999/xlink" width="63.36044" height="63.34672" viewBox="0,0,63.36044,63.34672"><g transform="translate(-208.31977,-148.32664)"><g data-paper-data="{&quot;isPaintingLayer&quot;:true}" fill-rule="nonzero" stroke="none" stroke-linecap="butt" stroke-linejoin="miter" stroke-miterlimit="10" stroke-dasharray="" stroke-dashoffset="0" style="mix-blend-mode: normal"><path d="M208.3198,166.22207v-13.42949c0,-2.9773 1.48866,-4.46594 4.46595,-4.46594h54.38316c1.49921,0 2.60778,0.39064 3.32572,1.17192c0.84291,0.88041 1.26935,2.07907 1.1719,3.29404v13.42949h-1.26694v-13.42949c0,-2.13268 -1.0769,-3.199 -3.2307,-3.199h-54.38316c-2.13268,0 -3.19902,1.06633 -3.19902,3.199v13.42949h-1.26694" fill="#607180" stroke-width="1"/><path d="M210.85364,166.22207v-13.42949c-0.07487,-0.53188 0.10445,-1.06802 0.48425,-1.44781c0.3798,-0.3798 0.91595,-0.55914 1.44783,-0.48425h54.38316c1.30917,0 1.96376,0.64403 1.96376,1.93208v13.42949h-58.27898" fill="#94afc6" stroke-width="1"/><path d="M210.85364,166.22207h-1.26694v-13.42949c0,-2.13268 1.06633,-3.199 3.19902,-3.199h54.38316c2.1538,0 3.2307,1.06633 3.2307,3.199v13.42949h-1.26694v-13.42949c0,-1.26694 -0.65459,-1.9004 -1.96376,-1.9004h-54.38316c-0.52564,-0.07266 -1.05525,0.10279 -1.43355,0.47488c-0.37831,0.37211 -0.56247,0.89874 -0.49851,1.42552v13.42949" fill="#788da0" stroke-width="1"/><path d="M271.66651,166.22207v41.01701c0.09745,1.21495 -0.32899,2.41364 -1.1719,3.29404c-0.71792,0.76016 -1.82651,1.14024 -3.32572,1.14024h-54.38316c-2.95618,0 -4.43426,-1.47809 -4.43426,-4.43428v-41.01701h1.23526v41.01701c0,2.11155 1.06633,3.16734 3.19902,3.16734h54.38316c2.1538,0 3.2307,-1.05578 3.2307,-3.16734v-41.01701h1.26694" fill="#9ea4ad" stroke-width="1"/><path d="M210.85368,166.22207h59.54592v41.01701c0,2.13268 -1.0769,3.18845 -3.2307,3.16734h-54.38316c-2.13268,0 -3.19902,-1.05578 -3.19902,-3.16734v-41.01701h1.26694M269.13264,207.23911v-39.75007h-58.27898v39.75007c-0.06396,0.52678 0.12022,1.0534 0.49851,1.42552c0.37831,0.37211 0.90792,0.54756 1.43355,0.47488h54.38316c1.30917,0 1.96376,-0.63346 1.96376,-1.9004" fill="#ecf2fa" stroke-width="1"/><path d="M269.13264,207.23911c0,1.26694 -0.65459,1.9004 -1.96376,1.9004h-54.38316c-0.52054,0.06192 -1.04074,-0.1183 -1.41142,-0.48898c-0.37068,-0.37068 -0.55089,-0.89087 -0.48898,-1.41142v-39.75007h58.24731v39.75007" fill="#d6dde7" stroke-width="1"/><path d="M214.27436,205.68712c0.24653,0.24162 0.38381,0.57337 0.38008,0.91854c0.00905,0.33697 -0.12983,0.66102 -0.38008,0.88686c-0.22583,0.25025 -0.54987,0.38913 -0.88684,0.38008c-0.34517,0.00373 -0.67692,-0.13355 -0.91854,-0.38008c-0.2345,-0.23427 -0.36075,-0.55564 -0.3484,-0.88686c-0.01211,-0.34057 0.11345,-0.67167 0.3484,-0.91854c0.24687,-0.23495 0.57797,-0.36053 0.91854,-0.3484c0.33122,-0.01235 0.65259,0.11392 0.88684,0.3484" fill="#9ea4ad" stroke-width="1"/><path d="M265.33184,206.60562c-0.02055,-0.3419 0.10632,-0.67622 0.34852,-0.91842c0.24218,-0.24218 0.57652,-0.36906 0.91842,-0.34852c0.33122,-0.01235 0.65261,0.11392 0.88686,0.3484c0.24653,0.24162 0.38381,0.57337 0.38008,0.91854c-0.0167,0.69267 -0.57427,1.25024 -1.26694,1.26694c-0.34517,0.00373 -0.67692,-0.13355 -0.91854,-0.38008c-0.2345,-0.23427 -0.36075,-0.55564 -0.3484,-0.88686" fill="#9ea4ad" stroke-width="1"/><text transform="translate(220.08417,203.80531) scale(0.34444,0.34444)" font-size="40" xml:space="preserve" fill="#94afc6" fill-rule="nonzero" stroke="none" stroke-width="1" stroke-linecap="butt" stroke-linejoin="miter" stroke-miterlimit="10" stroke-dasharray="" stroke-dashoffset="0" font-family="Sans Serif" font-weight="normal" text-anchor="start" style="mix-blend-mode: normal"><tspan x="0" dy="0">小手枪</tspan></text><path d="M236.02538,165.7916l-0.67227,-2.43229l22.34412,-6.17575l0.67227,2.43229z" data-paper-data="{&quot;index&quot;:null}" fill="#b3b3b3" stroke-width="0"/><path d="M226.05121,165.99149l-0.08744,-1.44019l0.78328,-0.21649l0.87072,1.2237z" data-paper-data="{&quot;index&quot;:null}" fill="#646769" stroke-width="0"/><path d="M254.0291,158.52485l0.27994,-1.71924l1.67711,0.29083l0.22789,0.82451z" data-paper-data="{&quot;index&quot;:null}" fill="#646769" stroke-width="0"/><path d="M226.43801,190.48715l-0.34183,-1.23676l9.89408,-2.73465l0.1039,0.6758l-1.27128,1.15559z" data-paper-data="{&quot;index&quot;:null}" fill="#4c4e50" stroke-width="0"/><path d="M248.19555,165.59527l-1.64657,-1.23114l-24.53158,6.78035l0.81932,-4.94992l13.22843,-3.63087l0.98303,1.94294l3.71708,-0.97617l0.68157,-0.6981l11.53154,-3.30864l0.7269,-1.34712l2.67201,-0.78888l1.52685,5.5242z" data-paper-data="{&quot;index&quot;:null}" fill="#797d7f" stroke-width="0"/><g data-paper-data="{&quot;index&quot;:null}"><g fill="#646769" stroke-width="0"><path d="M222.33436,173.89686l-0.3344,-3.45755l32.32065,-8.93318l0.91155,3.29803z"/><path d="M225.61026,189.38963l-0.14489,-16.94976l9.86625,-3.00243l-0.01131,17.34793z"/></g><path d="M225.66114,185.76442l-0.2825,-12.11286l6.88663,-0.42109l0.2825,12.11286z" fill="#74787a" stroke-width="0"/><text transform="translate(248.62916,164.77221) rotate(164.5496) scale(0.03585,-0.03585)" font-size="40" xml:space="preserve" fill="#606264" fill-rule="nonzero" stroke="none" stroke-width="1" stroke-linecap="butt" stroke-linejoin="miter" stroke-miterlimit="10" stroke-dasharray="" stroke-dashoffset="0" font-family="Sans Serif" font-weight="normal" text-anchor="start" style="mix-blend-mode: normal"><tspan x="0" dy="0">mbzzw</tspan></text></g></g></g></svg>