<svg version="1.1" xmlns="http://www.w3.org/2000/svg" xmlns:xlink="http://www.w3.org/1999/xlink" width="40" height="20" viewBox="0,0,40,20"><g transform="translate(-245.4,-181)"><g data-paper-data="{&quot;isPaintingLayer&quot;:true}" fill-rule="nonzero" stroke="none" stroke-width="1" stroke-linecap="butt" stroke-linejoin="miter" stroke-miterlimit="10" stroke-dasharray="" stroke-dashoffset="0" style="mix-blend-mode: normal"><path d="M247.4,186v10c-0.11875,0.82639 0.15887,1.66043 0.74922,2.25078c0.59035,0.59035 1.42439,0.86798 2.25078,0.74922h30c0.82639,0.11875 1.66043,-0.15887 2.25078,-0.74922c0.59035,-0.59035 0.86798,-1.42439 0.74922,-2.25078v-10c0.11876,-0.82639 -0.15887,-1.66043 -0.74922,-2.25078c-0.59035,-0.59035 -1.42439,-0.86798 -2.25078,-0.74922h-30c-0.82639,-0.11875 -1.66043,0.15887 -2.25078,0.74922c-0.59035,0.59035 -0.86798,1.42439 -0.74922,2.25078M250.4,181h30c3.33333,0 5,1.66666 5,5v10c0,3.33334 -1.66667,5 -5,5h-30c-3.33334,0 -5,-1.66666 -5,-5v-10c0,-3.33334 1.66666,-5 5,-5" fill="#515f6b"/><path d="M249.4,186v10c-0.04106,0.27578 0.051,0.55469 0.24815,0.75185c0.19716,0.19716 0.47607,0.28921 0.75185,0.24815h30c0.27578,0.04106 0.55469,-0.051 0.75185,-0.24815c0.19716,-0.19716 0.28921,-0.47607 0.24815,-0.75185v-10c0.04106,-0.27578 -0.051,-0.55469 -0.24815,-0.75185c-0.19716,-0.19716 -0.47607,-0.28921 -0.75185,-0.24815h-30c-0.27578,-0.04106 -0.55469,0.051 -0.75185,0.24815c-0.19716,0.19716 -0.28921,0.47607 -0.24815,0.75185M247.4,186c-0.11875,-0.82639 0.15887,-1.66043 0.74922,-2.25078c0.59035,-0.59035 1.42439,-0.86798 2.25078,-0.74922h30c0.82639,-0.11875 1.66043,0.15887 2.25078,0.74922c0.59035,0.59035 0.86798,1.42439 0.74922,2.25078v10c0.11876,0.82639 -0.15887,1.66043 -0.74922,2.25078c-0.59035,0.59035 -1.42439,0.86798 -2.25078,0.74922h-30c-0.82639,0.11875 -1.66043,-0.15887 -2.25078,-0.74922c-0.59035,-0.59035 -0.86798,-1.42439 -0.74922,-2.25078v-10" fill="#94afc6"/><path d="M249.4,186c-0.04106,-0.27578 0.051,-0.55469 0.24815,-0.75185c0.19716,-0.19716 0.47608,-0.28921 0.75185,-0.24815h30c0.27578,-0.04106 0.5547,0.051 0.75185,0.24815c0.19716,0.19716 0.28921,0.47607 0.24815,0.75185v10c0.04106,0.27578 -0.05099,0.55469 -0.24815,0.75185c-0.19715,0.19716 -0.47607,0.28921 -0.75185,0.24815h-30c-0.27577,0.04106 -0.55469,-0.051 -0.75185,-0.24815c-0.19715,-0.19716 -0.28921,-0.47607 -0.24815,-0.75185v-10" fill="#778d9f"/><text transform="translate(258.4,193.33857) scale(0.18542,0.18542)" font-size="40" xml:space="preserve" fill="#ffffff" fill-rule="nonzero" stroke="none" stroke-width="1" stroke-linecap="butt" stroke-linejoin="miter" stroke-miterlimit="10" stroke-dasharray="" stroke-dashoffset="0" font-family="Sans Serif" font-weight="normal" text-anchor="start" style="mix-blend-mode: normal"><tspan x="0" dy="0">制造</tspan></text></g></g></svg>