<svg version="1.1" xmlns="http://www.w3.org/2000/svg" xmlns:xlink="http://www.w3.org/1999/xlink" width="391.84646" height="391.84656" viewBox="0,0,391.84646,391.84656"><defs><radialGradient cx="137.47588" cy="304.57465" r="31.00921" gradientUnits="userSpaceOnUse" id="color-1"><stop offset="0" stop-color="#00b5ff"/><stop offset="1" stop-color="#00b5ff" stop-opacity="0"/></radialGradient><radialGradient cx="150.86484" cy="295.11289" r="16.88173" gradientUnits="userSpaceOnUse" id="color-2"><stop offset="0" stop-color="#00b5ff"/><stop offset="1" stop-color="#00b5ff" stop-opacity="0"/></radialGradient><radialGradient cx="124.10429" cy="292.81913" r="16.88173" gradientUnits="userSpaceOnUse" id="color-3"><stop offset="0" stop-color="#00b5ff"/><stop offset="1" stop-color="#00b5ff" stop-opacity="0"/></radialGradient></defs><g transform="translate(-44.07676,15.92328)"><g data-paper-data="{&quot;isPaintingLayer&quot;:true}" fill-rule="nonzero" stroke-linejoin="miter" stroke-miterlimit="10" stroke-dasharray="" stroke-dashoffset="0" style="mix-blend-mode: normal"><path d="M111.79606,67.49724c-0.39828,-4.96592 1.3446,-9.86538 4.78998,-13.46413c2.9346,-3.19352 7.46566,-4.78998 13.59376,-4.78998h222.28678c12.16953,0 18.21105,6.08458 18.12482,18.25411v222.5457c0,12.08341 -6.04187,18.12482 -18.12482,18.12482h-222.28678c-6.12799,0 -10.65916,-1.55387 -13.59376,-4.66081c-3.44538,-3.59873 -5.18826,-8.49821 -4.78998,-13.46413v-222.5457M116.97471,67.49724v222.5457c0,8.63097 4.40189,12.94629 13.20521,12.94629h222.28678c8.71709,0 13.07546,-4.31531 13.07546,-12.94629v-222.5457c0,-8.71709 -4.35837,-13.07546 -13.07546,-13.07546h-222.28678c-8.80332,0 -13.20521,4.35837 -13.20521,13.07546" fill="#9ea4ad" stroke="none" stroke-width="1" stroke-linecap="butt"/><path d="M108.4376,38.89139h263.3536c2.55102,-0.30973 5.10134,0.58185 6.90325,2.41397c1.80192,1.83178 2.65125,4.39645 2.2995,6.94202v263.66033c0.3,2.5208 -0.57293,5.03998 -2.36779,6.83484c-1.79486,1.79486 -4.31415,2.66746 -6.83484,2.36779h-263.3536c-6.33957,0 -9.50936,-3.0677 -9.50936,-9.20274v-263.66033c0,-6.23748 3.16979,-9.35611 9.50936,-9.35611" fill="#e80000" stroke="none" stroke-width="1" stroke-linecap="butt"/><path d="M386.93537,-3.67062h-48.97856l12.24487,12.24487h36.73414l12.24487,12.24487h-12.24487v12.24487h12.24487v-12.24487l12.24487,12.24487v36.73414l12.24487,12.24487v-73.46818l-12.24487,-12.24487h-24.48927M423.66906,94.28602c-3.25671,0.08774 -6.38853,-1.25456 -8.57113,-3.67327l-3.67327,-3.67327l-8.57113,-8.57113c-2.41825,-2.18272 -3.76055,-5.31442 -3.67327,-8.57113v-24.48927h-12.24487c-3.25671,0.08774 -6.38853,-1.25456 -8.57113,-3.67327c-2.41825,-2.18272 -3.76055,-5.31442 -3.67327,-8.57113v-12.24487h-24.48927c-3.25671,0.08774 -6.38853,-1.25456 -8.57113,-3.67327l-6.1222,-6.1222l-6.1222,-6.1222c-2.41825,-2.18272 -3.76055,-5.31442 -3.67327,-8.57113c-0.03611,-3.33588 1.29067,-6.54225 3.67327,-8.87751c2.26386,-2.26651 5.36999,-3.48658 8.57113,-3.36737h73.46818c3.29166,-0.11725 6.49178,1.09657 8.87751,3.36737l12.24487,12.24487c2.2708,2.38573 3.48461,5.58573 3.36737,8.87751v73.46818c0.11921,3.20128 -1.10119,6.30692 -3.36737,8.57113c-2.33527,2.3826 -5.54152,3.70939 -8.87751,3.67327M154.28597,-3.66911c0.08774,3.25671 -1.25456,6.38853 -3.67327,8.57113l-3.67327,3.67327l-8.57113,8.57113c-2.18272,2.41871 -5.31442,3.76055 -8.57113,3.67327h-24.48927v12.24487c0.08774,3.25671 -1.25456,6.38853 -3.67327,8.57113c-2.18272,2.41825 -5.31442,3.76055 -8.57113,3.67327h-12.24487v24.48927c0.08774,3.25671 -1.25456,6.38853 -3.67327,8.57113l-6.1222,6.1222l-6.1222,6.1222c-2.18272,2.41825 -5.31442,3.76055 -8.57113,3.67327c-3.33588,0.03611 -6.54225,-1.29067 -8.87751,-3.67327c-2.26651,-2.26386 -3.48658,-5.36999 -3.36737,-8.57113v-73.46818c-0.11725,-3.29166 1.09657,-6.49178 3.36737,-8.87751l12.24487,-12.24487c2.38573,-2.2708 5.58573,-3.48461 8.87751,-3.36737h73.46818c3.20128,-0.11921 6.30692,1.10119 8.57113,3.36737c2.3826,2.33527 3.70939,5.54152 3.67327,8.87751M56.33047,265.71363c3.25671,-0.08774 6.38853,1.25456 8.57113,3.67327l3.67327,3.67327l8.57113,8.57113c2.41825,2.18272 3.76055,5.31442 3.67327,8.57113v24.48927h12.24487c6.6948,0.16147 12.08341,5.55042 12.24487,12.24487v12.24487h24.48927c3.25671,-0.08774 6.38853,1.25456 8.57113,3.67327l8.57113,8.57113l3.67327,3.67327c2.41825,2.18272 3.76055,5.31442 3.67327,8.57113c0.03611,3.33588 -1.29067,6.54225 -3.67327,8.87751c-2.26386,2.26651 -5.36999,3.48658 -8.57113,3.36737h-73.46818c-3.29166,0.11725 -6.49178,-1.09657 -8.87751,-3.36737l-12.24487,-12.24487c-2.2708,-2.38573 -3.48461,-5.58573 -3.36737,-8.87751v-73.46818c-0.11921,-3.20128 1.10119,-6.30692 3.36737,-8.57113c2.33527,-2.3826 5.54152,-3.70939 8.87751,-3.67327M325.71391,363.66911c-0.08774,-3.25671 1.25456,-6.38853 3.67327,-8.57113l3.67327,-3.67327l8.57113,-8.57113c2.18272,-2.41825 5.31442,-3.76055 8.57113,-3.67327h24.48927v-12.24487c-0.08774,-3.25671 1.25456,-6.38853 3.67327,-8.57113c2.18272,-2.41825 5.31442,-3.76055 8.57113,-3.67327h12.24487v-24.48927c-0.08774,-3.25671 1.25456,-6.38853 3.67327,-8.57113l8.57113,-8.57113l3.67327,-3.67327c2.18272,-2.41825 5.31442,-3.76055 8.57113,-3.67327c3.33588,-0.03611 6.54225,1.29067 8.87751,3.67327c2.26651,2.26386 3.48658,5.36999 3.36737,8.57113v73.46818c0.11725,3.29166 -1.09657,6.49178 -3.36737,8.87751l-12.24487,12.24487c-2.38573,2.2708 -5.58573,3.48461 -8.87751,3.36737h-73.46818c-3.20128,0.11921 -6.30692,-1.10119 -8.57113,-3.36737c-2.3826,-2.33527 -3.70939,-5.54152 -3.67327,-8.87751M423.67057,302.44616v-24.48927l-12.24487,12.24487v36.73414l-12.24487,12.24487v-12.24487h-12.24487v12.24487h12.24487l-12.24487,12.24487h-36.73414l-12.24487,12.24487h73.46818l12.24487,-12.24487v-48.97856M56.32931,33.06456v48.97856l12.24487,-12.24487v-36.73414l12.24487,-12.24487v12.24487h12.24487v-12.24487h-12.24487l12.24487,-12.24487h36.73414l12.24487,-12.24487h-73.46818l-12.24487,12.24487v24.48927M56.33001,302.44766v48.97856l12.24487,12.24487h73.46818l-12.24487,-12.24487h-36.73414l-12.24487,-12.24487h12.24487v-12.24487h-12.24487v12.24487l-12.24487,-12.24487v-36.73414l-12.24487,-12.24487v24.48927" fill="#6b5151" stroke="none" stroke-width="1" stroke-linecap="butt"/><path d="M56.32966,302.44651v-24.48927l12.24487,12.24487v12.24487h-12.24487M423.67057,33.06422h-12.24487l-12.24487,-12.24487v12.24487h-12.24487v-12.24487h12.24487l-12.24487,-12.24487v-12.24487h24.48927l12.24487,12.24487v24.48927M362.44726,-3.67027v12.24487h-12.24487l-12.24487,-12.24487h24.48927M411.42547,57.55349h12.24487v24.48927l-12.24487,-12.24487v-12.24487M411.42547,302.44731v-12.24487l12.24487,-12.24487v24.48927h-12.24487M423.66988,326.9366v24.48927l-12.24487,12.24487h-24.48927v-12.24487l12.24487,-12.24487h-12.24487v-12.24487h12.24487v12.24487l12.24487,-12.24487h12.24487M362.44645,351.42552v12.24487h-24.48927l12.24487,-12.24487h12.24487M93.06417,-3.67062v12.24487l-12.24487,12.24487h12.24487v12.24487h-12.24487v-12.24487l-12.24487,12.24487h-12.24487v-24.48927l12.24487,-12.24487h24.48927M56.32966,57.55269h12.24487v12.24487l-12.24487,12.24487v-24.48927M117.55344,8.5746v-12.24487h24.48927l-12.24487,12.24487h-12.24487M56.32931,326.93578h12.24487l12.24487,12.24487v-12.24487h12.24487v12.24487h-12.24487l12.24487,12.24487v12.24487h-24.48927l-12.24487,-12.24487v-24.48927M117.55263,363.67027v-12.24487h12.24487l12.24487,12.24487h-24.48927" fill="#c79595" stroke="none" stroke-width="1" stroke-linecap="butt"/><path d="M117.55297,363.67027h-24.48927v-12.24487h24.48927v12.24487M386.93618,-3.67027v12.24487h-24.48927v-12.24487h24.48927M411.42547,33.06387h12.24487v24.48927h-12.24487v-24.48927M423.67022,302.44696v24.48927h-12.24487v-24.48927h12.24487M362.44691,351.42552h24.48927v12.24487h-24.48927v-12.24487M56.32966,33.06387h12.24487v24.48927h-12.24487v-24.48927M93.06382,8.5746v-12.24487h24.48927v12.24487h-24.48927M56.32966,302.44696h12.24487v24.48927h-12.24487v-24.48927" fill="#9e7777" stroke="none" stroke-width="1" stroke-linecap="butt"/><path d="M411.42547,86.94144v154.28291l-6.1222,6.1222l6.1222,6.1222v19.5913l-8.57113,8.57113c-2.41825,2.18272 -3.76055,5.31442 -3.67327,8.57113v24.48927h-12.24487v-269.38309h12.24487v24.48927c-0.08774,3.25671 1.25456,6.38853 3.67327,8.57113l8.57113,8.57113M374.69247,33.06387h-269.38309v-12.24487h24.48927c3.25671,0.08774 6.38853,-1.25456 8.57113,-3.67327l8.57113,-8.57113h129.79364l6.1222,6.1222l6.1222,-6.1222h24.48927l12.24487,12.24487l9.79583,-9.79583l6.1222,6.1222c2.18272,2.41871 5.31442,3.76055 8.57113,3.67327h24.48927v12.24487M333.05932,351.42552h-154.28291l-12.24487,-12.24487l-12.24487,12.24487h-7.3469l-8.57113,-8.57113c-2.18272,-2.41825 -5.31442,-3.76055 -8.57113,-3.67327h-24.48927v-12.24487h269.38309v12.24487h-24.48927c-3.25671,-0.08774 -6.38853,1.25456 -8.57113,3.67327l-8.57113,8.57113M93.06382,45.30827v269.38309h-12.24487v-24.48927c0.08774,-3.25671 -1.25456,-6.38853 -3.67327,-8.57113l-8.57113,-8.57113v-166.52767l12.24487,-12.24487l-9.79583,-9.79583l6.1222,-6.1222c2.41825,-2.18272 3.76055,-5.31442 3.67327,-8.57113v-24.48927h12.24487" fill="#b54141" stroke="none" stroke-width="1" stroke-linecap="butt"/><path d="M329.38684,4.90051l6.1222,6.1222l-9.79583,9.79583l-12.24487,-12.24487h-24.48927l-6.1222,6.1222l-6.1222,-6.1222h-129.79364l3.67327,-3.67327c2.41825,-2.18272 3.76055,-5.31442 3.67327,-8.57113h122.44673l6.1222,6.1222l6.1222,-6.1222h24.48927l12.24487,12.24487l3.67327,-3.67327M64.90044,90.61321l6.1222,-6.1222l9.79583,9.79583l-12.24487,12.24487v166.52767l-3.67327,-3.67327c-2.18272,-2.41825 -5.31442,-3.76055 -8.57113,-3.67327v-159.18077l12.24487,-12.24487l-3.67327,-3.67327M154.28678,363.67027c0.08774,-3.25671 -1.25456,-6.38853 -3.67327,-8.57113l-3.67327,-3.67327h7.3469l12.24487,-12.24487l12.24487,12.24487h154.28291l-3.67327,3.67327c-2.41825,2.18272 -3.76055,5.31442 -3.67327,8.57113h-146.93636l-12.24487,-12.24487l-12.24487,12.24487M423.67022,265.71282c-3.25671,-0.08774 -6.38853,1.25456 -8.57113,3.67327l-3.67327,3.67327v-19.5913l-6.1222,-6.1222l6.1222,-6.1222v-154.28291l3.67327,3.67327c2.18272,2.41825 5.31442,3.76055 8.57113,3.67327v146.93636l-6.1222,6.1222l6.1222,6.1222v12.24487" fill="#6e2727" stroke="none" stroke-width="1" stroke-linecap="butt"/><path d="M386.93653,45.30908v269.38309c-3.25671,-0.08774 -6.38853,1.25456 -8.57113,3.67327c-2.41825,2.18272 -3.76055,5.31442 -3.67327,8.57113h-269.38309c-0.16147,-6.6948 -5.55042,-12.08341 -12.24487,-12.24487v-269.38309c3.25671,0.08774 6.38853,-1.25456 8.57113,-3.67327c2.41825,-2.18272 3.76055,-5.31442 3.67327,-8.57113h269.38309c-0.08774,3.25671 1.25456,6.38853 3.67327,8.57113c2.18272,2.41825 5.31442,3.76055 8.57113,3.67327M362.44691,45.30862h-146.93602l-12.24487,12.24487l-12.24487,-12.24487h-85.71259v171.42564l6.1222,6.1222l-6.1222,6.1222v85.71259h269.38309v-195.91491l-6.1222,-6.1222l6.1222,-6.1222v-61.22331h-12.24487" fill="#a33b3b" stroke="none" stroke-width="1" stroke-linecap="butt"/><path d="M362.44691,45.30862h12.24487v12.24487l-12.24487,-12.24487M117.55297,45.30862l-12.24487,12.24487v-12.24487h12.24487M105.30857,302.44696l12.24487,12.24487h-12.24487v-12.24487M362.44691,314.69173l12.24487,-12.24487v12.24487h-12.24487" fill="#d2c6ac" stroke="none" stroke-width="1" stroke-linecap="butt"/><path d="M208.10644,180.21641l-14.05592,-13.8081l28.5538,-27.47987l16.72831,0.16936l6.29068,5.81154l-13.81635,14.11788l71.63025,75.94243l-9.34307,7.90567l-72.82808,-75.22374z" fill="#fdd116" stroke="#fdd116" stroke-width="2" stroke-linecap="round"/><path d="M191.3203,206.22173l6.4683,-4.55174c0,0 43.04,46.7483 78.81724,12.697c22.82032,-21.71944 17.72757,-61.57685 -6.24247,-79.84758c-23.58241,-17.97528 -65.86692,-14.54146 -65.86692,-14.54146c0,0 57.8817,-14.79585 86.96247,22.99835c15.17272,16.60016 20.37184,63.97241 -6.22872,82.65029c-43.54225,30.57367 -82.41073,-5.51003 -82.41073,-5.51003l-16.53007,19.88398c0,0 -6.31886,-1.5784 -8.15243,-3.5399c-1.5536,-1.66201 -2.14891,-7.48014 -2.14891,-7.48014l18.68615,-18.68617z" fill="#fdd116" stroke="#fdd116" stroke-width="2" stroke-linecap="round"/><path d="M137.47588,309.11004c-17.1259,0 -31.00921,-2.03055 -31.00921,-4.53538c0,-2.50481 13.8833,-4.53538 31.00921,-4.53538c17.1259,0 31.00921,2.03055 31.00921,4.53538c0,2.50483 -13.8833,4.53538 -31.00921,4.53538z" fill="url(#color-1)" stroke="none" stroke-width="0" stroke-linecap="butt"/><path d="M150.86484,278.23116v33.76346" fill="none" stroke="url(#color-2)" stroke-width="2.5" stroke-linecap="round"/><text transform="translate(128.32692,300.14352) scale(0.75591,0.75591)" font-size="40" xml:space="preserve" fill="#00b4ff" fill-rule="nonzero" stroke="none" stroke-width="1" stroke-linecap="butt" stroke-linejoin="miter" stroke-miterlimit="10" stroke-dasharray="" stroke-dashoffset="0" font-family="Sans Serif" font-weight="normal" text-anchor="start" style="mix-blend-mode: normal"><tspan x="0" dy="0">↓</tspan></text><path d="M124.10429,309.70086v-33.76346" fill="none" stroke="url(#color-3)" stroke-width="2.5" stroke-linecap="round"/></g></g></svg>