<svg version="1.1" xmlns="http://www.w3.org/2000/svg" xmlns:xlink="http://www.w3.org/1999/xlink" width="39.50722" height="25.29599" viewBox="0,0,39.50722,25.29599"><g transform="translate(-220.24639,-167.352)"><g data-paper-data="{&quot;isPaintingLayer&quot;:true}" fill-rule="nonzero" stroke="none" stroke-linecap="butt" stroke-linejoin="miter" stroke-miterlimit="10" stroke-dasharray="" stroke-dashoffset="0" style="mix-blend-mode: normal"><path d="M220.24639,171.22795v-2.52349h23.18188v2.52349z" fill="#b3b3b3" stroke-width="0"/><path d="M251.46995,168.76345l0.51325,-1.41144h0.81265l0.29939,1.41144z" fill="#646769" stroke-width="0"/><path d="M221.87242,169.02007v-0.85542l1.53902,-0.72711l0.72784,1.58253z" fill="#646769" stroke-width="0"/><path d="M250.5962,192.648l-1.53319,-0.77515l-0.07989,-0.67906h10.26504v1.28313z" fill="#4c4e50" stroke-width="0"/><path d="M221.57302,174.2809v-5.73132l2.78561,0.04854l1.05951,1.10479l11.99624,0.11702l0.84292,0.4913l3.84281,-0.04935l0.4299,-2.13461l13.71765,-0.02445l2.10839,4.55277h-25.45136l-1.25908,1.6253z" fill="#797d7f" stroke-width="0"/><g><g fill="#646769" stroke-width="0"><path d="M224.65254,175.39295v-3.42168h33.53246l0.59879,3.42168z"/><path d="M249.70068,191.2752l-4.63246,-16.71799l10.30956,0.26552l4.37583,16.37582z"/></g><path d="M251.98886,189.14665l-2.95463,-11.75038l6.74994,-1.42875l2.95463,11.75038z" fill="#74787a" stroke-width="0"/><text transform="translate(231.0084,173.6031) scale(0.03585,0.03585)" font-size="40" xml:space="preserve" fill="#606264" fill-rule="nonzero" stroke="none" stroke-width="1" stroke-linecap="butt" stroke-linejoin="miter" stroke-miterlimit="10" stroke-dasharray="" stroke-dashoffset="0" font-family="Sans Serif" font-weight="normal" text-anchor="start" style="mix-blend-mode: normal"><tspan x="0" dy="0">mbzzw</tspan></text></g></g></g></svg>