<svg version="1.1" xmlns="http://www.w3.org/2000/svg" xmlns:xlink="http://www.w3.org/1999/xlink" width="63.36044" height="63.34672" viewBox="0,0,63.36044,63.34672"><g transform="translate(-208.31977,-148.32665)"><g data-paper-data="{&quot;isPaintingLayer&quot;:true}" fill-rule="nonzero" stroke-linejoin="miter" stroke-miterlimit="10" stroke-dasharray="" stroke-dashoffset="0" style="mix-blend-mode: normal"><path d="M208.31981,166.22207v-13.42949c0,-2.9773 1.48866,-4.46594 4.46595,-4.46594h54.38316c1.49921,0 2.60778,0.39064 3.32572,1.17192c0.84291,0.88041 1.26935,2.07907 1.1719,3.29404v13.42949h-1.26694v-13.42949c0,-2.13268 -1.0769,-3.199 -3.2307,-3.199h-54.38316c-2.13268,0 -3.19902,1.06633 -3.19902,3.199v13.42949h-1.26694" fill="#607180" stroke="none" stroke-width="1" stroke-linecap="butt"/><path d="M210.85365,166.22207v-13.42949c-0.07487,-0.53188 0.10445,-1.06802 0.48425,-1.44781c0.3798,-0.3798 0.91595,-0.55914 1.44783,-0.48425h54.38316c1.30917,0 1.96376,0.64403 1.96376,1.93208v13.42949h-58.27898" fill="#94afc6" stroke="none" stroke-width="1" stroke-linecap="butt"/><path d="M210.85365,166.22207h-1.26694v-13.42949c0,-2.13268 1.06633,-3.199 3.19902,-3.199h54.38316c2.1538,0 3.2307,1.06633 3.2307,3.199v13.42949h-1.26694v-13.42949c0,-1.26694 -0.65459,-1.9004 -1.96376,-1.9004h-54.38316c-0.52564,-0.07266 -1.05525,0.10279 -1.43355,0.47488c-0.37831,0.37211 -0.56247,0.89874 -0.49851,1.42552v13.42949" fill="#788da0" stroke="none" stroke-width="1" stroke-linecap="butt"/><path d="M271.66652,166.22207v41.01701c0.09745,1.21495 -0.32899,2.41364 -1.1719,3.29404c-0.71792,0.76016 -1.82651,1.14024 -3.32572,1.14024h-54.38316c-2.95618,0 -4.43426,-1.47809 -4.43426,-4.43428v-41.01701h1.23526v41.01701c0,2.11155 1.06633,3.16734 3.19902,3.16734h54.38316c2.1538,0 3.2307,-1.05578 3.2307,-3.16734v-41.01701h1.26694" fill="#9ea4ad" stroke="none" stroke-width="1" stroke-linecap="butt"/><path d="M210.85369,166.22207h59.54592v41.01701c0,2.13268 -1.0769,3.18845 -3.2307,3.16734h-54.38316c-2.13268,0 -3.19902,-1.05578 -3.19902,-3.16734v-41.01701h1.26694M269.13265,207.23912v-39.75007h-58.27898v39.75007c-0.06396,0.52678 0.12022,1.0534 0.49851,1.42552c0.37831,0.37211 0.90792,0.54756 1.43355,0.47488h54.38316c1.30917,0 1.96376,-0.63346 1.96376,-1.9004" fill="#ecf2fa" stroke="none" stroke-width="1" stroke-linecap="butt"/><path d="M269.13265,207.23912c0,1.26694 -0.65459,1.9004 -1.96376,1.9004h-54.38316c-0.52054,0.06192 -1.04074,-0.1183 -1.41142,-0.48898c-0.37068,-0.37068 -0.55089,-0.89087 -0.48898,-1.41142v-39.75007h58.24731v39.75007" fill="#d6dde7" stroke="none" stroke-width="1" stroke-linecap="butt"/><path d="M214.27437,205.68713c0.24653,0.24162 0.38381,0.57337 0.38008,0.91854c0.00905,0.33697 -0.12983,0.66102 -0.38008,0.88686c-0.22583,0.25025 -0.54987,0.38913 -0.88684,0.38008c-0.34517,0.00373 -0.67692,-0.13355 -0.91854,-0.38008c-0.2345,-0.23427 -0.36075,-0.55564 -0.3484,-0.88686c-0.01211,-0.34057 0.11345,-0.67167 0.3484,-0.91854c0.24687,-0.23495 0.57797,-0.36053 0.91854,-0.3484c0.33122,-0.01235 0.65259,0.11392 0.88684,0.3484" fill="#9ea4ad" stroke="none" stroke-width="1" stroke-linecap="butt"/><path d="M265.33185,206.60563c-0.02055,-0.3419 0.10632,-0.67622 0.34852,-0.91842c0.24218,-0.24218 0.57652,-0.36906 0.91842,-0.34852c0.33122,-0.01235 0.65261,0.11392 0.88686,0.3484c0.24653,0.24162 0.38381,0.57337 0.38008,0.91854c-0.0167,0.69267 -0.57427,1.25024 -1.26694,1.26694c-0.34517,0.00373 -0.67692,-0.13355 -0.91854,-0.38008c-0.2345,-0.23427 -0.36075,-0.55564 -0.3484,-0.88686" fill="#9ea4ad" stroke="none" stroke-width="1" stroke-linecap="butt"/><text transform="translate(225.78345,200.1964) scale(0.34444,0.34444)" font-size="40" xml:space="preserve" fill="#94afc6" fill-rule="nonzero" stroke="none" stroke-width="1" stroke-linecap="butt" stroke-linejoin="miter" stroke-miterlimit="10" stroke-dasharray="" stroke-dashoffset="0" font-family="Sans Serif" font-weight="normal" text-anchor="start" style="mix-blend-mode: normal"><tspan x="0" dy="0">斧子</tspan></text><path d="M242.24874,155.67032l-10.36473,32.05388" fill="none" stroke="#b47b41" stroke-width="2" stroke-linecap="round"/><path d="M236.79633,164.19352l1.97563,-6.42081l13.7871,2.83645c0,0 2.35022,4.7624 1.4535,7.67674c-0.89672,2.91434 -6.02568,7.18284 -6.02568,7.18284z" fill="#94afc6" stroke="#515f6b" stroke-width="1.5" stroke-linecap="butt"/><path d="M248.58274,172.94486l1.53552,-12.09218l2.03456,0.15355c0,0 0.88139,1.77213 1.02453,3.22699c0.15721,1.5978 0.21109,3.16989 -0.2549,4.3435c-0.8334,2.09893 -5.2994,5.71171 -5.2994,5.71171z" fill="#d6dde7" stroke="none" stroke-width="0" stroke-linecap="butt"/><path d="M249.3505,160.85268c0,0 0.97302,4.11958 0.6704,6.02607c-0.33407,2.10462 -2.58979,6.06611 -2.58979,6.06611" fill="none" stroke="#515f6b" stroke-width="1.5" stroke-linecap="round"/></g></g></svg>