<svg version="1.1" xmlns="http://www.w3.org/2000/svg" xmlns:xlink="http://www.w3.org/1999/xlink" width="275.81094" height="35.33335" viewBox="0,0,275.81094,35.33335"><g transform="translate(-81.59453,-315.33333)"><g data-paper-data="{&quot;isPaintingLayer&quot;:true}" fill-rule="nonzero" stroke="none" stroke-width="1" stroke-linecap="butt" stroke-linejoin="miter" stroke-miterlimit="10" stroke-dasharray="" stroke-dashoffset="0" style="mix-blend-mode: normal"><path d="M84.90703,319.75v26.5l1.10417,1.10417h26.5l1.10417,-1.10417v-26.5l-1.10417,-1.10417h-26.5l-1.10417,1.10417M82.6987,318.09375c-0.06556,-0.45624 0.08771,-0.91669 0.41363,-1.24262c0.32592,-0.32592 0.78638,-0.4792 1.24262,-0.41363h29.8125c0.45624,-0.06556 0.91669,0.08771 1.24262,0.41363c0.32592,0.32592 0.4792,0.78638 0.41363,1.24262v29.8125c0.06556,0.45624 -0.08771,0.91669 -0.41363,1.24262c-0.32592,0.32592 -0.78638,0.4792 -1.24262,0.41363h-29.8125c-0.45624,0.06556 -0.91669,-0.08771 -1.24262,-0.41363c-0.32592,-0.32592 -0.4792,-0.78638 -0.41363,-1.24262v-29.8125M87.66745,320.85417c0.14562,0.00207 0.28453,0.0616 0.38646,0.16562l0.16562,0.38646l-0.16562,0.38646l-0.38646,0.16562l-0.38646,-0.16562c-0.15465,-0.15773 -0.20039,-0.39246 -0.11629,-0.59672c0.08411,-0.20426 0.28187,-0.33872 0.50274,-0.34182M110.85495,320.85417c0.14562,0.00207 0.28453,0.0616 0.38646,0.16562l0.16562,0.38646l-0.16562,0.38646l-0.38646,0.16562l-0.38646,-0.16562c-0.15465,-0.15773 -0.20039,-0.39246 -0.11629,-0.59672c0.08411,-0.20426 0.28187,-0.33872 0.50274,-0.34182M110.85495,344.04167c0.14562,0.00207 0.28453,0.0616 0.38646,0.16562l0.16562,0.38646l-0.16562,0.38646l-0.38646,0.16562l-0.38646,-0.16562c-0.15465,-0.15773 -0.20039,-0.39246 -0.11629,-0.59672c0.08411,-0.20426 0.28187,-0.33872 0.50274,-0.34182M87.66745,344.04167c0.14562,0.00207 0.28453,0.0616 0.38646,0.16562l0.16562,0.38646l-0.16562,0.38646l-0.38646,0.16562l-0.38646,-0.16562c-0.15465,-0.15773 -0.20039,-0.39246 -0.11629,-0.59672c0.08411,-0.20426 0.28187,-0.33872 0.50274,-0.34182" fill="#778d9f"/><path d="M84.90703,319.75l1.10417,-1.10417h26.5l1.10417,1.10417v26.5l-1.10417,1.10417h-26.5l-1.10417,-1.10417v-26.5M86.0112,320.85417v24.29167l1.10417,1.10417h24.29167l1.10417,-1.10417v-24.29167l-1.10417,-1.10417h-24.29167l-1.10417,1.10417" fill="#647685"/><path d="M82.6987,318.09375v29.8125c-0.06556,0.45624 0.08771,0.91669 0.41363,1.24262c0.32592,0.32592 0.78638,0.4792 1.24262,0.41363h29.8125c0.45624,0.06556 0.91669,-0.08771 1.24262,-0.41363c0.32592,-0.32592 0.4792,-0.78638 0.41363,-1.24262v-29.8125c0.06556,-0.45624 -0.08771,-0.91669 -0.41363,-1.24262c-0.32592,-0.32592 -0.78638,-0.4792 -1.24262,-0.41363h-29.8125c-0.45624,-0.06556 -0.91669,0.08771 -1.24262,0.41363c-0.32592,0.32592 -0.4792,0.78638 -0.41363,1.24262M84.35495,315.33334h29.8125c1.84028,0 2.76042,0.92014 2.76042,2.76042v29.8125c0,1.84028 -0.92014,2.76042 -2.76042,2.76042h-29.8125c-1.84028,0 -2.76042,-0.92014 -2.76042,-2.76042v-29.8125c0,-1.84028 0.92014,-2.76042 2.76042,-2.76042" fill="#515f6b"/><path d="M87.66745,320.85416c-0.22087,0.0031 -0.41864,0.13756 -0.50274,0.34182c-0.08411,0.20426 -0.03836,0.43899 0.11629,0.59672l0.38646,0.16562l0.38646,-0.16562l0.16562,-0.38646l-0.16562,-0.38646c-0.10193,-0.10402 -0.24084,-0.16355 -0.38646,-0.16562M86.0112,320.85416l1.10417,-1.10417h24.29167l1.10417,1.10417v24.29167l-1.10417,1.10417h-24.29167l-1.10417,-1.10417v-24.29167M87.66745,344.04167c-0.22087,0.0031 -0.41864,0.13756 -0.50274,0.34182c-0.08411,0.20426 -0.03836,0.43899 0.11629,0.59672l0.38646,0.16562l0.38646,-0.16562l0.16562,-0.38646l-0.16562,-0.38646c-0.10193,-0.10402 -0.24084,-0.16355 -0.38646,-0.16562M110.85495,344.04167c-0.22087,0.0031 -0.41864,0.13756 -0.50274,0.34182c-0.08411,0.20426 -0.03836,0.43899 0.11629,0.59672l0.38646,0.16562l0.38646,-0.16562l0.16562,-0.38646l-0.16562,-0.38646c-0.10193,-0.10402 -0.24084,-0.16355 -0.38646,-0.16562M110.85495,320.85416c-0.22087,0.0031 -0.41864,0.13756 -0.50274,0.34182c-0.08411,0.20426 -0.03836,0.43899 0.11629,0.59672l0.38646,0.16562l0.38646,-0.16562l0.16562,-0.38646l-0.16562,-0.38646c-0.10193,-0.10402 -0.24084,-0.16355 -0.38646,-0.16562" fill="#94afc6"/><path d="M119.713,319.75v26.5l1.10417,1.10416h26.5l1.10416,-1.10416v-26.5l-1.10416,-1.10417h-26.5l-1.10417,1.10417M117.50467,318.09375c-0.06556,-0.45624 0.0877,-0.91669 0.41363,-1.24262c0.32593,-0.32593 0.78639,-0.47919 1.24262,-0.41363h29.8125c0.45624,-0.06556 0.91669,0.0877 1.24261,0.41363c0.32593,0.32593 0.4792,0.78639 0.41364,1.24262v29.8125c0.06556,0.45624 -0.08771,0.91669 -0.41364,1.24261c-0.32593,0.32593 -0.78638,0.4792 -1.24261,0.41364h-29.8125c-0.45624,0.06556 -0.91669,-0.08771 -1.24262,-0.41364c-0.32593,-0.32593 -0.47919,-0.78638 -0.41363,-1.24261v-29.8125M122.47342,320.85417c0.14562,0.00207 0.28452,0.06161 0.38646,0.16563l0.16562,0.38646l-0.16562,0.38646l-0.38646,0.16562l-0.38646,-0.16562c-0.15465,-0.15773 -0.2004,-0.39246 -0.11629,-0.59672c0.0841,-0.20426 0.28187,-0.33873 0.50275,-0.34183M145.66092,320.85417c0.14562,0.00207 0.28452,0.06161 0.38646,0.16563l0.16562,0.38646l-0.16562,0.38646l-0.38646,0.16562l-0.38646,-0.16562c-0.15465,-0.15773 -0.2004,-0.39246 -0.11629,-0.59672c0.0841,-0.20426 0.28187,-0.33873 0.50275,-0.34183M145.66092,344.04167c0.14562,0.00207 0.28452,0.06161 0.38646,0.16563l0.16562,0.38646l-0.16562,0.38646l-0.38646,0.16562l-0.38646,-0.16562c-0.15465,-0.15773 -0.2004,-0.39246 -0.11629,-0.59672c0.0841,-0.20426 0.28187,-0.33873 0.50275,-0.34183M122.47342,344.04167c0.14562,0.00207 0.28452,0.06161 0.38646,0.16563l0.16562,0.38646l-0.16562,0.38646l-0.38646,0.16562l-0.38646,-0.16562c-0.15465,-0.15773 -0.2004,-0.39246 -0.11629,-0.59672c0.0841,-0.20426 0.28187,-0.33873 0.50275,-0.34183" fill="#778d9f"/><path d="M119.713,319.75l1.10417,-1.10417h26.5l1.10416,1.10417v26.5l-1.10416,1.10416h-26.5l-1.10417,-1.10416v-26.5M120.81717,320.85417v24.29166l1.10416,1.10417h24.29166l1.10417,-1.10417v-24.29166l-1.10417,-1.10416h-24.29166l-1.10416,1.10416" fill="#647685"/><path d="M117.50467,318.09375v29.8125c-0.06556,0.45624 0.0877,0.91669 0.41363,1.24261c0.32593,0.32593 0.78639,0.4792 1.24262,0.41364h29.8125c0.45624,0.06556 0.91669,-0.08771 1.24261,-0.41364c0.32593,-0.32593 0.4792,-0.78638 0.41364,-1.24261v-29.8125c0.06556,-0.45624 -0.08771,-0.91669 -0.41364,-1.24262c-0.32593,-0.32593 -0.78638,-0.47919 -1.24261,-0.41363h-29.8125c-0.45624,-0.06556 -0.91669,0.0877 -1.24262,0.41363c-0.32593,0.32593 -0.47919,0.78639 -0.41363,1.24262M119.16092,315.33333h29.8125c1.84028,0 2.76041,0.92014 2.76041,2.76042v29.8125c0,1.84028 -0.92014,2.76041 -2.76041,2.76041h-29.8125c-1.84028,0 -2.76042,-0.92014 -2.76042,-2.76041v-29.8125c0,-1.84028 0.92014,-2.76042 2.76042,-2.76042" fill="#515f6b"/><path d="M122.47342,320.85416c-0.22088,0.0031 -0.41864,0.13757 -0.50275,0.34183c-0.0841,0.20426 -0.03836,0.43898 0.11629,0.59672l0.38646,0.16562l0.38646,-0.16562l0.16562,-0.38646l-0.16562,-0.38646c-0.10193,-0.10402 -0.24083,-0.16356 -0.38646,-0.16563M120.81717,320.85416l1.10416,-1.10416h24.29166l1.10417,1.10416v24.29166l-1.10417,1.10417h-24.29166l-1.10416,-1.10417v-24.29166M122.47342,344.04167c-0.22088,0.0031 -0.41864,0.13757 -0.50275,0.34183c-0.0841,0.20426 -0.03836,0.43898 0.11629,0.59672l0.38646,0.16562l0.38646,-0.16562l0.16562,-0.38646l-0.16562,-0.38646c-0.10193,-0.10402 -0.24083,-0.16356 -0.38646,-0.16563M145.66092,344.04167c-0.22088,0.0031 -0.41864,0.13757 -0.50275,0.34183c-0.0841,0.20426 -0.03836,0.43898 0.11629,0.59672l0.38646,0.16562l0.38646,-0.16562l0.16562,-0.38646l-0.16562,-0.38646c-0.10193,-0.10402 -0.24083,-0.16356 -0.38646,-0.16563M145.66092,320.85416c-0.22088,0.0031 -0.41864,0.13757 -0.50275,0.34183c-0.0841,0.20426 -0.03836,0.43898 0.11629,0.59672l0.38646,0.16562l0.38646,-0.16562l0.16562,-0.38646l-0.16562,-0.38646c-0.10193,-0.10402 -0.24083,-0.16356 -0.38646,-0.16563" fill="#94afc6"/><path d="M152.93688,319.75v26.5l1.10417,1.10416h26.5l1.10416,-1.10416v-26.5l-1.10416,-1.10417h-26.5l-1.10417,1.10417M150.72855,318.09375c-0.06556,-0.45624 0.0877,-0.91669 0.41363,-1.24262c0.32593,-0.32593 0.78639,-0.47919 1.24262,-0.41363h29.8125c0.45624,-0.06556 0.91669,0.0877 1.24261,0.41363c0.32593,0.32593 0.4792,0.78639 0.41364,1.24262v29.8125c0.06556,0.45624 -0.08771,0.91669 -0.41364,1.24261c-0.32593,0.32593 -0.78638,0.4792 -1.24261,0.41364h-29.8125c-0.45624,0.06556 -0.91669,-0.08771 -1.24262,-0.41364c-0.32593,-0.32593 -0.47919,-0.78638 -0.41363,-1.24261v-29.8125M155.6973,320.85417c0.14562,0.00207 0.28452,0.06161 0.38646,0.16563l0.16562,0.38646l-0.16562,0.38646l-0.38646,0.16562l-0.38646,-0.16562c-0.15465,-0.15773 -0.2004,-0.39246 -0.11629,-0.59672c0.0841,-0.20426 0.28187,-0.33873 0.50275,-0.34183M178.8848,320.85417c0.14562,0.00207 0.28452,0.06161 0.38646,0.16563l0.16562,0.38646l-0.16562,0.38646l-0.38646,0.16562l-0.38646,-0.16562c-0.15465,-0.15773 -0.2004,-0.39246 -0.11629,-0.59672c0.0841,-0.20426 0.28187,-0.33873 0.50275,-0.34183M178.8848,344.04167c0.14562,0.00207 0.28452,0.06161 0.38646,0.16563l0.16562,0.38646l-0.16562,0.38646l-0.38646,0.16562l-0.38646,-0.16562c-0.15465,-0.15773 -0.2004,-0.39246 -0.11629,-0.59672c0.0841,-0.20426 0.28187,-0.33873 0.50275,-0.34183M155.6973,344.04167c0.14562,0.00207 0.28452,0.06161 0.38646,0.16563l0.16562,0.38646l-0.16562,0.38646l-0.38646,0.16562l-0.38646,-0.16562c-0.15465,-0.15773 -0.2004,-0.39246 -0.11629,-0.59672c0.0841,-0.20426 0.28187,-0.33873 0.50275,-0.34183" fill="#778d9f"/><path d="M152.93688,319.75l1.10417,-1.10417h26.5l1.10416,1.10417v26.5l-1.10416,1.10416h-26.5l-1.10417,-1.10416v-26.5M154.04105,320.85417v24.29166l1.10416,1.10417h24.29166l1.10417,-1.10417v-24.29166l-1.10417,-1.10416h-24.29166l-1.10416,1.10416" fill="#647685"/><path d="M150.72855,318.09375v29.8125c-0.06556,0.45624 0.0877,0.91669 0.41363,1.24261c0.32593,0.32593 0.78639,0.4792 1.24262,0.41364h29.8125c0.45624,0.06556 0.91669,-0.08771 1.24261,-0.41364c0.32593,-0.32593 0.4792,-0.78638 0.41364,-1.24261v-29.8125c0.06556,-0.45624 -0.08771,-0.91669 -0.41364,-1.24262c-0.32593,-0.32593 -0.78638,-0.47919 -1.24261,-0.41363h-29.8125c-0.45624,-0.06556 -0.91669,0.0877 -1.24262,0.41363c-0.32593,0.32593 -0.47919,0.78639 -0.41363,1.24262M152.3848,315.33333h29.8125c1.84028,0 2.76041,0.92014 2.76041,2.76042v29.8125c0,1.84028 -0.92014,2.76041 -2.76041,2.76041h-29.8125c-1.84028,0 -2.76042,-0.92014 -2.76042,-2.76041v-29.8125c0,-1.84028 0.92014,-2.76042 2.76042,-2.76042" fill="#515f6b"/><path d="M155.6973,320.85416c-0.22088,0.0031 -0.41864,0.13757 -0.50275,0.34183c-0.0841,0.20426 -0.03836,0.43898 0.11629,0.59672l0.38646,0.16562l0.38646,-0.16562l0.16562,-0.38646l-0.16562,-0.38646c-0.10193,-0.10402 -0.24083,-0.16356 -0.38646,-0.16563M154.04105,320.85416l1.10416,-1.10416h24.29166l1.10417,1.10416v24.29166l-1.10417,1.10417h-24.29166l-1.10416,-1.10417v-24.29166M155.6973,344.04167c-0.22088,0.0031 -0.41864,0.13757 -0.50275,0.34183c-0.0841,0.20426 -0.03836,0.43898 0.11629,0.59672l0.38646,0.16562l0.38646,-0.16562l0.16562,-0.38646l-0.16562,-0.38646c-0.10193,-0.10402 -0.24083,-0.16356 -0.38646,-0.16563M178.8848,344.04167c-0.22088,0.0031 -0.41864,0.13757 -0.50275,0.34183c-0.0841,0.20426 -0.03836,0.43898 0.11629,0.59672l0.38646,0.16562l0.38646,-0.16562l0.16562,-0.38646l-0.16562,-0.38646c-0.10193,-0.10402 -0.24083,-0.16356 -0.38646,-0.16563M178.8848,320.85416c-0.22088,0.0031 -0.41864,0.13757 -0.50275,0.34183c-0.0841,0.20426 -0.03836,0.43898 0.11629,0.59672l0.38646,0.16562l0.38646,-0.16562l0.16562,-0.38646l-0.16562,-0.38646c-0.10193,-0.10402 -0.24083,-0.16356 -0.38646,-0.16563" fill="#94afc6"/><path d="M187.74285,319.75v26.5l1.10417,1.10416h26.5l1.10416,-1.10416v-26.5l-1.10416,-1.10417h-26.5l-1.10417,1.10417M185.53452,318.09375c-0.06556,-0.45624 0.0877,-0.91669 0.41363,-1.24262c0.32593,-0.32593 0.78639,-0.47919 1.24262,-0.41363h29.8125c0.45624,-0.06556 0.91669,0.0877 1.24261,0.41363c0.32593,0.32593 0.4792,0.78639 0.41364,1.24262v29.8125c0.06556,0.45624 -0.08771,0.91669 -0.41364,1.24261c-0.32593,0.32593 -0.78638,0.4792 -1.24261,0.41364h-29.8125c-0.45624,0.06556 -0.91669,-0.08771 -1.24262,-0.41364c-0.32593,-0.32593 -0.47919,-0.78638 -0.41363,-1.24261v-29.8125M190.50327,320.85417c0.14562,0.00207 0.28452,0.06161 0.38646,0.16563l0.16562,0.38646l-0.16562,0.38646l-0.38646,0.16562l-0.38646,-0.16562c-0.15465,-0.15773 -0.2004,-0.39246 -0.11629,-0.59672c0.0841,-0.20426 0.28187,-0.33873 0.50275,-0.34183M213.69077,320.85417c0.14562,0.00207 0.28452,0.06161 0.38646,0.16563l0.16562,0.38646l-0.16562,0.38646l-0.38646,0.16562l-0.38646,-0.16562c-0.15465,-0.15773 -0.2004,-0.39246 -0.11629,-0.59672c0.0841,-0.20426 0.28187,-0.33873 0.50275,-0.34183M213.69077,344.04167c0.14562,0.00207 0.28452,0.06161 0.38646,0.16563l0.16562,0.38646l-0.16562,0.38646l-0.38646,0.16562l-0.38646,-0.16562c-0.15465,-0.15773 -0.2004,-0.39246 -0.11629,-0.59672c0.0841,-0.20426 0.28187,-0.33873 0.50275,-0.34183M190.50327,344.04167c0.14562,0.00207 0.28452,0.06161 0.38646,0.16563l0.16562,0.38646l-0.16562,0.38646l-0.38646,0.16562l-0.38646,-0.16562c-0.15465,-0.15773 -0.2004,-0.39246 -0.11629,-0.59672c0.0841,-0.20426 0.28187,-0.33873 0.50275,-0.34183" fill="#778d9f"/><path d="M187.74285,319.75l1.10417,-1.10417h26.5l1.10416,1.10417v26.5l-1.10416,1.10416h-26.5l-1.10417,-1.10416v-26.5M188.84702,320.85417v24.29166l1.10416,1.10417h24.29166l1.10417,-1.10417v-24.29166l-1.10417,-1.10416h-24.29166l-1.10416,1.10416" fill="#647685"/><path d="M185.53452,318.09375v29.8125c-0.06556,0.45624 0.0877,0.91669 0.41363,1.24261c0.32593,0.32593 0.78639,0.4792 1.24262,0.41364h29.8125c0.45624,0.06556 0.91669,-0.08771 1.24261,-0.41364c0.32593,-0.32593 0.4792,-0.78638 0.41364,-1.24261v-29.8125c0.06556,-0.45624 -0.08771,-0.91669 -0.41364,-1.24262c-0.32593,-0.32593 -0.78638,-0.47919 -1.24261,-0.41363h-29.8125c-0.45624,-0.06556 -0.91669,0.0877 -1.24262,0.41363c-0.32593,0.32593 -0.47919,0.78639 -0.41363,1.24262M187.19077,315.33333h29.8125c1.84028,0 2.76041,0.92014 2.76041,2.76042v29.8125c0,1.84028 -0.92014,2.76041 -2.76041,2.76041h-29.8125c-1.84028,0 -2.76042,-0.92014 -2.76042,-2.76041v-29.8125c0,-1.84028 0.92014,-2.76042 2.76042,-2.76042" fill="#515f6b"/><path d="M190.50327,320.85416c-0.22088,0.0031 -0.41864,0.13757 -0.50275,0.34183c-0.0841,0.20426 -0.03836,0.43898 0.11629,0.59672l0.38646,0.16562l0.38646,-0.16562l0.16562,-0.38646l-0.16562,-0.38646c-0.10193,-0.10402 -0.24083,-0.16356 -0.38646,-0.16563M188.84702,320.85416l1.10416,-1.10416h24.29166l1.10417,1.10416v24.29166l-1.10417,1.10417h-24.29166l-1.10416,-1.10417v-24.29166M190.50327,344.04167c-0.22088,0.0031 -0.41864,0.13757 -0.50275,0.34183c-0.0841,0.20426 -0.03836,0.43898 0.11629,0.59672l0.38646,0.16562l0.38646,-0.16562l0.16562,-0.38646l-0.16562,-0.38646c-0.10193,-0.10402 -0.24083,-0.16356 -0.38646,-0.16563M213.69077,344.04167c-0.22088,0.0031 -0.41864,0.13757 -0.50275,0.34183c-0.0841,0.20426 -0.03836,0.43898 0.11629,0.59672l0.38646,0.16562l0.38646,-0.16562l0.16562,-0.38646l-0.16562,-0.38646c-0.10193,-0.10402 -0.24083,-0.16356 -0.38646,-0.16563M213.69077,320.85416c-0.22088,0.0031 -0.41864,0.13757 -0.50275,0.34183c-0.0841,0.20426 -0.03836,0.43898 0.11629,0.59672l0.38646,0.16562l0.38646,-0.16562l0.16562,-0.38646l-0.16562,-0.38646c-0.10193,-0.10402 -0.24083,-0.16356 -0.38646,-0.16563" fill="#94afc6"/><path d="M222.54882,319.75v26.5l1.10417,1.10416h26.5l1.10416,-1.10416v-26.5l-1.10416,-1.10417h-26.5l-1.10417,1.10417M220.34049,318.09375c-0.06556,-0.45624 0.0877,-0.91669 0.41363,-1.24262c0.32593,-0.32593 0.78639,-0.47919 1.24262,-0.41363h29.8125c0.45624,-0.06556 0.91669,0.0877 1.24261,0.41363c0.32593,0.32593 0.4792,0.78639 0.41364,1.24262v29.8125c0.06556,0.45624 -0.08771,0.91669 -0.41364,1.24261c-0.32593,0.32593 -0.78638,0.4792 -1.24261,0.41364h-29.8125c-0.45624,0.06556 -0.91669,-0.08771 -1.24262,-0.41364c-0.32593,-0.32593 -0.47919,-0.78638 -0.41363,-1.24261v-29.8125M225.30924,320.85417c0.14562,0.00207 0.28452,0.06161 0.38646,0.16563l0.16562,0.38646l-0.16562,0.38646l-0.38646,0.16562l-0.38646,-0.16562c-0.15465,-0.15773 -0.2004,-0.39246 -0.11629,-0.59672c0.0841,-0.20426 0.28187,-0.33873 0.50275,-0.34183M248.49674,320.85417c0.14562,0.00207 0.28452,0.06161 0.38646,0.16563l0.16562,0.38646l-0.16562,0.38646l-0.38646,0.16562l-0.38646,-0.16562c-0.15465,-0.15773 -0.2004,-0.39246 -0.11629,-0.59672c0.0841,-0.20426 0.28187,-0.33873 0.50275,-0.34183M248.49674,344.04167c0.14562,0.00207 0.28452,0.06161 0.38646,0.16563l0.16562,0.38646l-0.16562,0.38646l-0.38646,0.16562l-0.38646,-0.16562c-0.15465,-0.15773 -0.2004,-0.39246 -0.11629,-0.59672c0.0841,-0.20426 0.28187,-0.33873 0.50275,-0.34183M225.30924,344.04167c0.14562,0.00207 0.28452,0.06161 0.38646,0.16563l0.16562,0.38646l-0.16562,0.38646l-0.38646,0.16562l-0.38646,-0.16562c-0.15465,-0.15773 -0.2004,-0.39246 -0.11629,-0.59672c0.0841,-0.20426 0.28187,-0.33873 0.50275,-0.34183" fill="#778d9f"/><path d="M222.54882,319.75l1.10417,-1.10417h26.5l1.10416,1.10417v26.5l-1.10416,1.10416h-26.5l-1.10417,-1.10416v-26.5M223.65299,320.85417v24.29166l1.10416,1.10417h24.29166l1.10417,-1.10417v-24.29166l-1.10417,-1.10416h-24.29166l-1.10416,1.10416" fill="#647685"/><path d="M220.34049,318.09375v29.8125c-0.06556,0.45624 0.0877,0.91669 0.41363,1.24261c0.32593,0.32593 0.78639,0.4792 1.24262,0.41364h29.8125c0.45624,0.06556 0.91669,-0.08771 1.24261,-0.41364c0.32593,-0.32593 0.4792,-0.78638 0.41364,-1.24261v-29.8125c0.06556,-0.45624 -0.08771,-0.91669 -0.41364,-1.24262c-0.32593,-0.32593 -0.78638,-0.47919 -1.24261,-0.41363h-29.8125c-0.45624,-0.06556 -0.91669,0.0877 -1.24262,0.41363c-0.32593,0.32593 -0.47919,0.78639 -0.41363,1.24262M221.99674,315.33333h29.8125c1.84028,0 2.76041,0.92014 2.76041,2.76042v29.8125c0,1.84028 -0.92014,2.76041 -2.76041,2.76041h-29.8125c-1.84028,0 -2.76042,-0.92014 -2.76042,-2.76041v-29.8125c0,-1.84028 0.92014,-2.76042 2.76042,-2.76042" fill="#515f6b"/><path d="M225.30924,320.85416c-0.22088,0.0031 -0.41864,0.13757 -0.50275,0.34183c-0.0841,0.20426 -0.03836,0.43898 0.11629,0.59672l0.38646,0.16562l0.38646,-0.16562l0.16562,-0.38646l-0.16562,-0.38646c-0.10193,-0.10402 -0.24083,-0.16356 -0.38646,-0.16563M223.65299,320.85416l1.10416,-1.10416h24.29166l1.10417,1.10416v24.29166l-1.10417,1.10417h-24.29166l-1.10416,-1.10417v-24.29166M225.30924,344.04167c-0.22088,0.0031 -0.41864,0.13757 -0.50275,0.34183c-0.0841,0.20426 -0.03836,0.43898 0.11629,0.59672l0.38646,0.16562l0.38646,-0.16562l0.16562,-0.38646l-0.16562,-0.38646c-0.10193,-0.10402 -0.24083,-0.16356 -0.38646,-0.16563M248.49674,344.04167c-0.22088,0.0031 -0.41864,0.13757 -0.50275,0.34183c-0.0841,0.20426 -0.03836,0.43898 0.11629,0.59672l0.38646,0.16562l0.38646,-0.16562l0.16562,-0.38646l-0.16562,-0.38646c-0.10193,-0.10402 -0.24083,-0.16356 -0.38646,-0.16563M248.49674,320.85416c-0.22088,0.0031 -0.41864,0.13757 -0.50275,0.34183c-0.0841,0.20426 -0.03836,0.43898 0.11629,0.59672l0.38646,0.16562l0.38646,-0.16562l0.16562,-0.38646l-0.16562,-0.38646c-0.10193,-0.10402 -0.24083,-0.16356 -0.38646,-0.16563" fill="#94afc6"/><path d="M257.35478,319.75v26.5l1.10417,1.10416h26.5l1.10416,-1.10416v-26.5l-1.10416,-1.10417h-26.5l-1.10417,1.10417M255.14646,318.09375c-0.06556,-0.45624 0.0877,-0.91669 0.41363,-1.24262c0.32593,-0.32593 0.78639,-0.47919 1.24262,-0.41363h29.8125c0.45624,-0.06556 0.91669,0.0877 1.24261,0.41363c0.32593,0.32593 0.4792,0.78639 0.41364,1.24262v29.8125c0.06556,0.45624 -0.08771,0.91669 -0.41364,1.24261c-0.32593,0.32593 -0.78638,0.4792 -1.24261,0.41364h-29.8125c-0.45624,0.06556 -0.91669,-0.08771 -1.24262,-0.41364c-0.32593,-0.32593 -0.47919,-0.78638 -0.41363,-1.24261v-29.8125M260.11521,320.85417c0.14562,0.00207 0.28452,0.06161 0.38646,0.16563l0.16562,0.38646l-0.16562,0.38646l-0.38646,0.16562l-0.38646,-0.16562c-0.15465,-0.15773 -0.2004,-0.39246 -0.11629,-0.59672c0.0841,-0.20426 0.28187,-0.33873 0.50275,-0.34183M283.30271,320.85417c0.14562,0.00207 0.28452,0.06161 0.38646,0.16563l0.16562,0.38646l-0.16562,0.38646l-0.38646,0.16562l-0.38646,-0.16562c-0.15465,-0.15773 -0.2004,-0.39246 -0.11629,-0.59672c0.0841,-0.20426 0.28187,-0.33873 0.50275,-0.34183M283.30271,344.04167c0.14562,0.00207 0.28452,0.06161 0.38646,0.16563l0.16562,0.38646l-0.16562,0.38646l-0.38646,0.16562l-0.38646,-0.16562c-0.15465,-0.15773 -0.2004,-0.39246 -0.11629,-0.59672c0.0841,-0.20426 0.28187,-0.33873 0.50275,-0.34183M260.11521,344.04167c0.14562,0.00207 0.28452,0.06161 0.38646,0.16563l0.16562,0.38646l-0.16562,0.38646l-0.38646,0.16562l-0.38646,-0.16562c-0.15465,-0.15773 -0.2004,-0.39246 -0.11629,-0.59672c0.0841,-0.20426 0.28187,-0.33873 0.50275,-0.34183" fill="#778d9f"/><path d="M257.35478,319.75l1.10417,-1.10417h26.5l1.10416,1.10417v26.5l-1.10416,1.10416h-26.5l-1.10417,-1.10416v-26.5M258.45896,320.85417v24.29166l1.10416,1.10417h24.29166l1.10417,-1.10417v-24.29166l-1.10417,-1.10416h-24.29166l-1.10416,1.10416" fill="#647685"/><path d="M255.14646,318.09375v29.8125c-0.06556,0.45624 0.0877,0.91669 0.41363,1.24261c0.32593,0.32593 0.78639,0.4792 1.24262,0.41364h29.8125c0.45624,0.06556 0.91669,-0.08771 1.24261,-0.41364c0.32593,-0.32593 0.4792,-0.78638 0.41364,-1.24261v-29.8125c0.06556,-0.45624 -0.08771,-0.91669 -0.41364,-1.24262c-0.32593,-0.32593 -0.78638,-0.47919 -1.24261,-0.41363h-29.8125c-0.45624,-0.06556 -0.91669,0.0877 -1.24262,0.41363c-0.32593,0.32593 -0.47919,0.78639 -0.41363,1.24262M256.80271,315.33333h29.8125c1.84028,0 2.76041,0.92014 2.76041,2.76042v29.8125c0,1.84028 -0.92014,2.76041 -2.76041,2.76041h-29.8125c-1.84028,0 -2.76042,-0.92014 -2.76042,-2.76041v-29.8125c0,-1.84028 0.92014,-2.76042 2.76042,-2.76042" fill="#515f6b"/><path d="M260.11521,320.85416c-0.22088,0.0031 -0.41864,0.13757 -0.50275,0.34183c-0.0841,0.20426 -0.03836,0.43898 0.11629,0.59672l0.38646,0.16562l0.38646,-0.16562l0.16562,-0.38646l-0.16562,-0.38646c-0.10193,-0.10402 -0.24083,-0.16356 -0.38646,-0.16563M258.45896,320.85416l1.10416,-1.10416h24.29166l1.10417,1.10416v24.29166l-1.10417,1.10417h-24.29166l-1.10416,-1.10417v-24.29166M260.11521,344.04167c-0.22088,0.0031 -0.41864,0.13757 -0.50275,0.34183c-0.0841,0.20426 -0.03836,0.43898 0.11629,0.59672l0.38646,0.16562l0.38646,-0.16562l0.16562,-0.38646l-0.16562,-0.38646c-0.10193,-0.10402 -0.24083,-0.16356 -0.38646,-0.16563M283.30271,344.04167c-0.22088,0.0031 -0.41864,0.13757 -0.50275,0.34183c-0.0841,0.20426 -0.03836,0.43898 0.11629,0.59672l0.38646,0.16562l0.38646,-0.16562l0.16562,-0.38646l-0.16562,-0.38646c-0.10193,-0.10402 -0.24083,-0.16356 -0.38646,-0.16563M283.30271,320.85416c-0.22088,0.0031 -0.41864,0.13757 -0.50275,0.34183c-0.0841,0.20426 -0.03836,0.43898 0.11629,0.59672l0.38646,0.16562l0.38646,-0.16562l0.16562,-0.38646l-0.16562,-0.38646c-0.10193,-0.10402 -0.24083,-0.16356 -0.38646,-0.16563" fill="#94afc6"/><path d="M290.57866,319.75v26.5l1.10417,1.10416h26.5l1.10416,-1.10416v-26.5l-1.10416,-1.10417h-26.5l-1.10417,1.10417M288.37034,318.09375c-0.06556,-0.45624 0.0877,-0.91669 0.41363,-1.24262c0.32593,-0.32593 0.78639,-0.47919 1.24262,-0.41363h29.8125c0.45624,-0.06556 0.91669,0.0877 1.24261,0.41363c0.32593,0.32593 0.4792,0.78639 0.41364,1.24262v29.8125c0.06556,0.45624 -0.08771,0.91669 -0.41364,1.24261c-0.32593,0.32593 -0.78638,0.4792 -1.24261,0.41364h-29.8125c-0.45624,0.06556 -0.91669,-0.08771 -1.24262,-0.41364c-0.32593,-0.32593 -0.47919,-0.78638 -0.41363,-1.24261v-29.8125M293.33909,320.85417c0.14562,0.00207 0.28452,0.06161 0.38646,0.16563l0.16562,0.38646l-0.16562,0.38646l-0.38646,0.16562l-0.38646,-0.16562c-0.15465,-0.15773 -0.2004,-0.39246 -0.11629,-0.59672c0.0841,-0.20426 0.28187,-0.33873 0.50275,-0.34183M316.52659,320.85417c0.14562,0.00207 0.28452,0.06161 0.38646,0.16563l0.16562,0.38646l-0.16562,0.38646l-0.38646,0.16562l-0.38646,-0.16562c-0.15465,-0.15773 -0.2004,-0.39246 -0.11629,-0.59672c0.0841,-0.20426 0.28187,-0.33873 0.50275,-0.34183M316.52659,344.04167c0.14562,0.00207 0.28452,0.06161 0.38646,0.16563l0.16562,0.38646l-0.16562,0.38646l-0.38646,0.16562l-0.38646,-0.16562c-0.15465,-0.15773 -0.2004,-0.39246 -0.11629,-0.59672c0.0841,-0.20426 0.28187,-0.33873 0.50275,-0.34183M293.33909,344.04167c0.14562,0.00207 0.28452,0.06161 0.38646,0.16563l0.16562,0.38646l-0.16562,0.38646l-0.38646,0.16562l-0.38646,-0.16562c-0.15465,-0.15773 -0.2004,-0.39246 -0.11629,-0.59672c0.0841,-0.20426 0.28187,-0.33873 0.50275,-0.34183" fill="#778d9f"/><path d="M290.57866,319.75l1.10417,-1.10417h26.5l1.10416,1.10417v26.5l-1.10416,1.10416h-26.5l-1.10417,-1.10416v-26.5M291.68284,320.85417v24.29166l1.10416,1.10417h24.29166l1.10417,-1.10417v-24.29166l-1.10417,-1.10416h-24.29166l-1.10416,1.10416" fill="#647685"/><path d="M288.37034,318.09375v29.8125c-0.06556,0.45624 0.0877,0.91669 0.41363,1.24261c0.32593,0.32593 0.78639,0.4792 1.24262,0.41364h29.8125c0.45624,0.06556 0.91669,-0.08771 1.24261,-0.41364c0.32593,-0.32593 0.4792,-0.78638 0.41364,-1.24261v-29.8125c0.06556,-0.45624 -0.08771,-0.91669 -0.41364,-1.24262c-0.32593,-0.32593 -0.78638,-0.47919 -1.24261,-0.41363h-29.8125c-0.45624,-0.06556 -0.91669,0.0877 -1.24262,0.41363c-0.32593,0.32593 -0.47919,0.78639 -0.41363,1.24262M290.02659,315.33333h29.8125c1.84028,0 2.76041,0.92014 2.76041,2.76042v29.8125c0,1.84028 -0.92014,2.76041 -2.76041,2.76041h-29.8125c-1.84028,0 -2.76042,-0.92014 -2.76042,-2.76041v-29.8125c0,-1.84028 0.92014,-2.76042 2.76042,-2.76042" fill="#515f6b"/><path d="M293.33909,320.85416c-0.22088,0.0031 -0.41864,0.13757 -0.50275,0.34183c-0.0841,0.20426 -0.03836,0.43898 0.11629,0.59672l0.38646,0.16562l0.38646,-0.16562l0.16562,-0.38646l-0.16562,-0.38646c-0.10193,-0.10402 -0.24083,-0.16356 -0.38646,-0.16563M291.68284,320.85416l1.10416,-1.10416h24.29166l1.10417,1.10416v24.29166l-1.10417,1.10417h-24.29166l-1.10416,-1.10417v-24.29166M293.33909,344.04167c-0.22088,0.0031 -0.41864,0.13757 -0.50275,0.34183c-0.0841,0.20426 -0.03836,0.43898 0.11629,0.59672l0.38646,0.16562l0.38646,-0.16562l0.16562,-0.38646l-0.16562,-0.38646c-0.10193,-0.10402 -0.24083,-0.16356 -0.38646,-0.16563M316.52659,344.04167c-0.22088,0.0031 -0.41864,0.13757 -0.50275,0.34183c-0.0841,0.20426 -0.03836,0.43898 0.11629,0.59672l0.38646,0.16562l0.38646,-0.16562l0.16562,-0.38646l-0.16562,-0.38646c-0.10193,-0.10402 -0.24083,-0.16356 -0.38646,-0.16563M316.52659,320.85416c-0.22088,0.0031 -0.41864,0.13757 -0.50275,0.34183c-0.0841,0.20426 -0.03836,0.43898 0.11629,0.59672l0.38646,0.16562l0.38646,-0.16562l0.16562,-0.38646l-0.16562,-0.38646c-0.10193,-0.10402 -0.24083,-0.16356 -0.38646,-0.16563" fill="#94afc6"/><path d="M325.38463,319.75v26.5l1.10417,1.10416h26.5l1.10416,-1.10416v-26.5l-1.10416,-1.10417h-26.5l-1.10417,1.10417M323.17631,318.09375c-0.06556,-0.45624 0.0877,-0.91669 0.41363,-1.24262c0.32593,-0.32593 0.78639,-0.47919 1.24262,-0.41363h29.8125c0.45624,-0.06556 0.91669,0.0877 1.24261,0.41363c0.32593,0.32593 0.4792,0.78639 0.41364,1.24262v29.8125c0.06556,0.45624 -0.08771,0.91669 -0.41364,1.24261c-0.32593,0.32593 -0.78638,0.4792 -1.24261,0.41364h-29.8125c-0.45624,0.06556 -0.91669,-0.08771 -1.24262,-0.41364c-0.32593,-0.32593 -0.47919,-0.78638 -0.41363,-1.24261v-29.8125M328.14506,320.85417c0.14562,0.00207 0.28452,0.06161 0.38646,0.16563l0.16562,0.38646l-0.16562,0.38646l-0.38646,0.16562l-0.38646,-0.16562c-0.15465,-0.15773 -0.2004,-0.39246 -0.11629,-0.59672c0.0841,-0.20426 0.28187,-0.33873 0.50275,-0.34183M351.33255,320.85417c0.14562,0.00207 0.28452,0.06161 0.38646,0.16563l0.16562,0.38646l-0.16562,0.38646l-0.38646,0.16562l-0.38646,-0.16562c-0.15465,-0.15773 -0.2004,-0.39246 -0.11629,-0.59672c0.0841,-0.20426 0.28187,-0.33873 0.50275,-0.34183M351.33255,344.04167c0.14562,0.00207 0.28452,0.06161 0.38646,0.16563l0.16562,0.38646l-0.16562,0.38646l-0.38646,0.16562l-0.38646,-0.16562c-0.15465,-0.15773 -0.2004,-0.39246 -0.11629,-0.59672c0.0841,-0.20426 0.28187,-0.33873 0.50275,-0.34183M328.14506,344.04167c0.14562,0.00207 0.28452,0.06161 0.38646,0.16563l0.16562,0.38646l-0.16562,0.38646l-0.38646,0.16562l-0.38646,-0.16562c-0.15465,-0.15773 -0.2004,-0.39246 -0.11629,-0.59672c0.0841,-0.20426 0.28187,-0.33873 0.50275,-0.34183" fill="#778d9f"/><path d="M325.38463,319.75l1.10417,-1.10417h26.5l1.10416,1.10417v26.5l-1.10416,1.10416h-26.5l-1.10417,-1.10416v-26.5M326.48881,320.85417v24.29166l1.10416,1.10417h24.29166l1.10417,-1.10417v-24.29166l-1.10417,-1.10416h-24.29166l-1.10416,1.10416" fill="#647685"/><path d="M323.17631,318.09375v29.8125c-0.06556,0.45624 0.0877,0.91669 0.41363,1.24261c0.32593,0.32593 0.78639,0.4792 1.24262,0.41364h29.8125c0.45624,0.06556 0.91669,-0.08771 1.24261,-0.41364c0.32593,-0.32593 0.4792,-0.78638 0.41364,-1.24261v-29.8125c0.06556,-0.45624 -0.08771,-0.91669 -0.41364,-1.24262c-0.32593,-0.32593 -0.78638,-0.47919 -1.24261,-0.41363h-29.8125c-0.45624,-0.06556 -0.91669,0.0877 -1.24262,0.41363c-0.32593,0.32593 -0.47919,0.78639 -0.41363,1.24262M324.83256,315.33333h29.8125c1.84028,0 2.76041,0.92014 2.76041,2.76042v29.8125c0,1.84028 -0.92014,2.76041 -2.76041,2.76041h-29.8125c-1.84028,0 -2.76042,-0.92014 -2.76042,-2.76041v-29.8125c0,-1.84028 0.92014,-2.76042 2.76042,-2.76042" fill="#515f6b"/><path d="M328.14506,320.85416c-0.22088,0.0031 -0.41864,0.13757 -0.50275,0.34183c-0.0841,0.20426 -0.03836,0.43898 0.11629,0.59672l0.38646,0.16562l0.38646,-0.16562l0.16562,-0.38646l-0.16562,-0.38646c-0.10193,-0.10402 -0.24083,-0.16356 -0.38646,-0.16563M326.48881,320.85416l1.10416,-1.10416h24.29166l1.10417,1.10416v24.29166l-1.10417,1.10417h-24.29166l-1.10416,-1.10417v-24.29166M328.14506,344.04167c-0.22088,0.0031 -0.41864,0.13757 -0.50275,0.34183c-0.0841,0.20426 -0.03836,0.43898 0.11629,0.59672l0.38646,0.16562l0.38646,-0.16562l0.16562,-0.38646l-0.16562,-0.38646c-0.10193,-0.10402 -0.24083,-0.16356 -0.38646,-0.16563M351.33255,344.04167c-0.22088,0.0031 -0.41864,0.13757 -0.50275,0.34183c-0.0841,0.20426 -0.03836,0.43898 0.11629,0.59672l0.38646,0.16562l0.38646,-0.16562l0.16562,-0.38646l-0.16562,-0.38646c-0.10193,-0.10402 -0.24083,-0.16356 -0.38646,-0.16563M351.33255,320.85416c-0.22088,0.0031 -0.41864,0.13757 -0.50275,0.34183c-0.0841,0.20426 -0.03836,0.43898 0.11629,0.59672l0.38646,0.16562l0.38646,-0.16562l0.16562,-0.38646l-0.16562,-0.38646c-0.10193,-0.10402 -0.24083,-0.16356 -0.38646,-0.16563" fill="#94afc6"/></g></g></svg>