<svg version="1.1" xmlns="http://www.w3.org/2000/svg" xmlns:xlink="http://www.w3.org/1999/xlink" width="16.00196" height="64.00196" viewBox="0,0,16.00196,64.00196"><g transform="translate(-400.99902,-120.99902)"><g data-paper-data="{&quot;isPaintingLayer&quot;:true}" fill-rule="nonzero" stroke="none" stroke-width="1" stroke-linecap="butt" stroke-linejoin="miter" stroke-miterlimit="10" stroke-dasharray="" stroke-dashoffset="0" style="mix-blend-mode: normal"><path d="M402.99968,178.99968l2,2h2v2h4v-2h2l2,-2v-52l-2,-2h-2v-2h-4v2h-2l-2,2v52M401.59968,125.59968l2,-2c0.35651,-0.39505 0.86806,-0.61428 1.4,-0.6c-0.01428,-0.53194 0.20495,-1.04349 0.6,-1.4c0.35651,-0.39505 0.86806,-0.61428 1.4,-0.6h4c0.54489,-0.00589 1.06859,0.21082 1.45,0.6c0.37017,0.3698 0.56948,0.87713 0.55,1.4c0.54489,-0.00589 1.06859,0.21082 1.45,0.6l2,2c0.37017,0.3698 0.56948,0.87713 0.55,1.4v52c0.01914,0.53763 -0.17911,1.06031 -0.55,1.45l-2,2c-0.38969,0.37089 -0.91237,0.56914 -1.45,0.55c0.01914,0.53763 -0.17911,1.06031 -0.55,1.45c-0.38969,0.37089 -0.91237,0.56914 -1.45,0.55h-4c-0.52287,0.01948 -1.0302,-0.17983 -1.4,-0.55c-0.38918,-0.38141 -0.60589,-0.90511 -0.6,-1.45c-0.52287,0.01948 -1.0302,-0.17983 -1.4,-0.55l-2,-2c-0.38918,-0.38141 -0.60589,-0.90511 -0.6,-1.45v-52c-0.01428,-0.53194 0.20495,-1.04349 0.6,-1.4" fill="#515f6b"/><path d="M402.99968,178.99968v-52l2,-2h2v-2h4v2h2l2,2v52l-2,2h-2v2h-4v-2h-2l-2,-2M412.99968,126.99968h-8v52h8v-52" fill="#94afc6"/><path d="M412.99968,126.99968v52h-8v-52h8" fill="#778d9f"/></g></g></svg>