<svg version="1.1" xmlns="http://www.w3.org/2000/svg" xmlns:xlink="http://www.w3.org/1999/xlink" width="40" height="20" viewBox="0,0,40,20"><g transform="translate(-220,-170)"><g data-paper-data="{&quot;isPaintingLayer&quot;:true}" fill-rule="nonzero" stroke="none" stroke-width="1" stroke-linecap="butt" stroke-linejoin="miter" stroke-miterlimit="10" stroke-dasharray="" stroke-dashoffset="0" style="mix-blend-mode: normal"><path d="M222,175v10c-0.11875,0.82639 0.15887,1.66043 0.74922,2.25078c0.59035,0.59035 1.42439,0.86798 2.25078,0.74922h30c0.82639,0.11875 1.66043,-0.15887 2.25078,-0.74922c0.59035,-0.59035 0.86798,-1.42439 0.74922,-2.25078v-10c0.11876,-0.82639 -0.15887,-1.66043 -0.74922,-2.25078c-0.59035,-0.59035 -1.42439,-0.86798 -2.25078,-0.74922h-30c-0.82639,-0.11875 -1.66043,0.15887 -2.25078,0.74922c-0.59035,0.59035 -0.86798,1.42439 -0.74922,2.25078M225,170h30c3.33333,0 5,1.66666 5,5v10c0,3.33334 -1.66667,5 -5,5h-30c-3.33334,0 -5,-1.66666 -5,-5v-10c0,-3.33334 1.66666,-5 5,-5" fill="#515f6b"/><path d="M224,175v10c-0.04106,0.27578 0.051,0.55469 0.24815,0.75185c0.19716,0.19716 0.47607,0.28921 0.75185,0.24815h30c0.27578,0.04106 0.55469,-0.051 0.75185,-0.24815c0.19716,-0.19716 0.28921,-0.47607 0.24815,-0.75185v-10c0.04106,-0.27578 -0.051,-0.55469 -0.24815,-0.75185c-0.19716,-0.19716 -0.47607,-0.28921 -0.75185,-0.24815h-30c-0.27578,-0.04106 -0.55469,0.051 -0.75185,0.24815c-0.19716,0.19716 -0.28921,0.47607 -0.24815,0.75185M222,175c-0.11875,-0.82639 0.15887,-1.66043 0.74922,-2.25078c0.59035,-0.59035 1.42439,-0.86798 2.25078,-0.74922h30c0.82639,-0.11875 1.66043,0.15887 2.25078,0.74922c0.59035,0.59035 0.86798,1.42439 0.74922,2.25078v10c0.11876,0.82639 -0.15887,1.66043 -0.74922,2.25078c-0.59035,0.59035 -1.42439,0.86798 -2.25078,0.74922h-30c-0.82639,0.11875 -1.66043,-0.15887 -2.25078,-0.74922c-0.59035,-0.59035 -0.86798,-1.42439 -0.74922,-2.25078v-10" fill="#94afc6"/><path d="M224,175c-0.04106,-0.27578 0.051,-0.55469 0.24815,-0.75185c0.19716,-0.19716 0.47608,-0.28921 0.75185,-0.24815h30c0.27578,-0.04106 0.5547,0.051 0.75185,0.24815c0.19716,0.19716 0.28921,0.47607 0.24815,0.75185v10c0.04106,0.27578 -0.05099,0.55469 -0.24815,0.75185c-0.19715,0.19716 -0.47607,0.28921 -0.75185,0.24815h-30c-0.27577,0.04106 -0.55469,-0.051 -0.75185,-0.24815c-0.19715,-0.19716 -0.28921,-0.47607 -0.24815,-0.75185v-10" fill="#778d9f"/><path d="M243.07381,184.33772l-3.14149,-0.91472l-3.0333,1.15202l-0.89253,-0.02322c-0.27635,-0.12534 -0.49195,-0.35484 -0.59978,-0.63848c-0.10487,-0.28983 -0.09658,-0.60854 0.02323,-0.89253l3.1815,-7.02523c0.11734,-0.26537 0.33802,-0.47127 0.61087,-0.56996c0.26137,-0.12489 0.56269,-0.13648 0.83288,-0.03201c0.27611,0.08858 0.50272,0.28839 0.6252,0.55123l3.71128,6.76033c0.14895,0.2716 0.182,0.59182 0.09166,0.88811c-0.08574,0.29109 -0.2831,0.53646 -0.54901,0.68263l-0.85939,0.09056M239.66522,176.47278l-3.1815,7.02523l3.40224,-1.28124l3.49054,1.01635l-3.71129,-6.76034" fill="#999999"/><path d="M239.66522,176.47278l0.22074,5.74399l-3.40224,1.28124l3.1815,-7.02523" fill="#ffffff"/><path d="M239.66522,176.47278l3.71129,6.76034l-3.49054,-1.01635l-0.22074,-5.74399" fill="#e5e5e5"/></g></g></svg>