<svg version="1.1" xmlns="http://www.w3.org/2000/svg" xmlns:xlink="http://www.w3.org/1999/xlink" width="871.76897" height="541.4382" viewBox="0,0,871.76897,541.4382"><defs><radialGradient cx="240.00003" cy="180" r="435.88449" gradientUnits="userSpaceOnUse" id="color-1"><stop offset="0" stop-color="#778d9f"/><stop offset="1" stop-color="#515f6b"/></radialGradient><radialGradient cx="185.27823" cy="101.98069" r="98.27497" gradientTransform="translate(-12.0128,-80.59036) rotate(23.99608) scale(0.40705,0.40705)" gradientUnits="userSpaceOnUse" id="color-2"><stop offset="0" stop-color="#5b6c79"/><stop offset="1" stop-color="#b8d3ff"/></radialGradient></defs><g transform="translate(195.88447,90.7191)"><g data-paper-data="{&quot;isPaintingLayer&quot;:true}" fill-rule="nonzero" stroke-linejoin="miter" stroke-miterlimit="10" stroke-dasharray="" stroke-dashoffset="0" style="mix-blend-mode: normal"><path d="M-195.88446,450.7191v-541.4382h871.76897v541.4382z" fill="url(#color-1)" stroke="none" stroke-width="0" stroke-linecap="butt"/><text transform="translate(103.19277,177.81561) rotate(-24.4739) scale(2.45672,2.45672)" font-size="40" xml:space="preserve" fill="#b3b3b3" fill-rule="nonzero" stroke-opacity="0" stroke="#000000" stroke-width="1" stroke-linecap="butt" stroke-linejoin="miter" stroke-miterlimit="10" stroke-dasharray="" stroke-dashoffset="0" font-family="Sans Serif" font-weight="normal" text-anchor="start" style="mix-blend-mode: normal"><tspan x="0" dy="0">storm</tspan></text><text transform="translate(107.47803,168.87469) rotate(-23.99608) scale(2.45672,2.45672)" font-size="40" xml:space="preserve" fill="url(#color-2)" fill-rule="nonzero" stroke="#ffffff" stroke-width="1" stroke-linecap="butt" stroke-linejoin="miter" stroke-miterlimit="10" stroke-dasharray="" stroke-dashoffset="0" font-family="Sans Serif" font-weight="normal" text-anchor="start" style="mix-blend-mode: normal"><tspan x="0" dy="0">storm</tspan></text><path d="M-120.36036,430.58886l-0.39039,-117.11712l715.10511,-352.85285c0,0 0.67853,94.93781 1.11622,156.18037c0.62517,87.47323 2.27717,318.6179 2.27717,318.6179z" fill="#c79200" stroke="#ffffff" stroke-width="13" stroke-linecap="butt"/><path d="M314.17967,285.18104l-2.18338,-2.18338h-52.4009l-2.18336,2.18338v52.4009l2.18336,2.18336h52.4009l2.18338,-2.18336v-52.4009M318.54638,281.90598v58.95102c0.12964,0.90217 -0.17342,1.81266 -0.81791,2.45715c-0.64449,0.64449 -1.55498,0.94755 -2.45715,0.81791h-58.95102c-0.90215,0.12966 -1.81264,-0.17342 -2.45713,-0.81791c-0.64449,-0.64447 -0.94757,-1.55498 -0.81793,-2.45715v-58.95102c-0.12964,-0.90215 0.17344,-1.81266 0.81793,-2.45715c0.64447,-0.64449 1.55496,-0.94755 2.45713,-0.81791h58.95102c0.90215,-0.12964 1.81266,0.17342 2.45715,0.81791c0.64449,0.64449 0.94755,1.55498 0.81791,2.45715M308.72121,287.36436c0.43677,0.00613 0.82784,0.27203 0.99413,0.67593c0.16632,0.4039 0.07585,0.86806 -0.22995,1.17995l-0.76418,0.3275l-0.76418,-0.3275l-0.3275,-0.76418l0.3275,-0.76418c0.20158,-0.20569 0.47624,-0.32342 0.76418,-0.32752M262.87044,287.36436c0.43677,0.00613 0.82784,0.27203 0.99413,0.67593c0.16632,0.4039 0.07585,0.86806 -0.22995,1.17995l-0.76418,0.3275l-0.76418,-0.3275l-0.3275,-0.76418l0.3275,-0.76418c0.20158,-0.20569 0.47624,-0.32342 0.76418,-0.32752M262.87044,333.21517c0.43677,0.00615 0.82784,0.27205 0.99413,0.67595c0.16632,0.4039 0.07585,0.86806 -0.22995,1.17995l-0.76418,0.3275l-0.76418,-0.3275l-0.3275,-0.76418l0.3275,-0.76418c0.20158,-0.20569 0.47624,-0.32342 0.76418,-0.32752M308.72121,333.21517c0.43677,0.00615 0.82784,0.27205 0.99413,0.67595c0.16632,0.4039 0.07585,0.86806 -0.22995,1.17995l-0.76418,0.3275l-0.76418,-0.3275l-0.3275,-0.76418l0.3275,-0.76418c0.20158,-0.20569 0.47624,-0.32342 0.76418,-0.32752" data-paper-data="{&quot;index&quot;:null}" fill="#778d9f" stroke="none" stroke-width="1" stroke-linecap="butt"/><path d="M314.17967,285.18104v52.4009l-2.18338,2.18336h-52.4009l-2.18336,-2.18336v-52.4009l2.18336,-2.18338h52.4009l2.18338,2.18338M311.99627,287.36438l-2.18336,-2.18336h-48.03415l-2.18338,2.18336v48.03415l2.18338,2.18338h48.03415l2.18336,-2.18338v-48.03415" data-paper-data="{&quot;index&quot;:null}" fill="#647685" stroke="none" stroke-width="1" stroke-linecap="butt"/><path d="M318.54638,281.90598c0.12964,-0.90215 -0.17342,-1.81266 -0.81791,-2.45715c-0.64449,-0.64449 -1.55498,-0.94755 -2.45715,-0.81791h-58.95102c-0.90215,-0.12964 -1.81264,0.17342 -2.45713,0.81791c-0.64449,0.64449 -0.94757,1.55498 -0.81793,2.45715v58.95102c-0.12964,0.90217 0.17344,1.81266 0.81793,2.45715c0.64447,0.64449 1.55496,0.94755 2.45713,0.81791h58.95102c0.90215,0.12966 1.81266,-0.17342 2.45715,-0.81791c0.64449,-0.64447 0.94755,-1.55498 0.81791,-2.45715v-58.95102M315.27133,276.44747c3.63896,0 5.45843,1.81948 5.45843,5.45843v58.95102c0,3.63894 -1.81948,5.45841 -5.45843,5.45841h-58.95102c-3.63894,0 -5.45841,-1.81946 -5.45841,-5.45841v-58.95102c0,-3.63896 1.81946,-5.45843 5.45841,-5.45843h58.95102" data-paper-data="{&quot;index&quot;:null}" fill="#515f6b" stroke="none" stroke-width="1" stroke-linecap="butt"/><path d="M308.72121,287.36436c-0.28797,0.00409 -0.56263,0.12183 -0.76418,0.32752l-0.3275,0.76418l0.3275,0.76418l0.76418,0.3275l0.76418,-0.3275c0.3058,-0.31191 0.39625,-0.77605 0.22995,-1.17995c-0.16632,-0.4039 -0.55737,-0.6698 -0.99413,-0.67593M311.99627,287.36436v48.03415l-2.18336,2.18338h-48.03415l-2.18338,-2.18338v-48.03415l2.18338,-2.18336h48.03415l2.18336,2.18336M308.72121,333.21521c-0.28797,0.00409 -0.56263,0.12183 -0.76418,0.32752l-0.3275,0.76418l0.3275,0.76418l0.76418,0.3275l0.76418,-0.3275c0.3058,-0.31191 0.39625,-0.77605 0.22995,-1.17995c-0.16632,-0.4039 -0.55737,-0.66982 -0.99413,-0.67595M262.87044,333.21521c-0.28797,0.00409 -0.56263,0.12183 -0.76418,0.32752l-0.3275,0.76418l0.3275,0.76418l0.76418,0.3275l0.76418,-0.3275c0.3058,-0.31191 0.39625,-0.77605 0.22995,-1.17995c-0.16632,-0.4039 -0.55737,-0.66982 -0.99413,-0.67595M262.87044,287.36436c-0.28797,0.00409 -0.56263,0.12183 -0.76418,0.32752l-0.3275,0.76418l0.3275,0.76418l0.76418,0.3275l0.76418,-0.3275c0.3058,-0.31191 0.39625,-0.77605 0.22995,-1.17995c-0.16632,-0.4039 -0.55737,-0.6698 -0.99413,-0.67593" data-paper-data="{&quot;index&quot;:null}" fill="#94afc6" stroke="none" stroke-width="1" stroke-linecap="butt"/><path d="M304.4163,313.58951v-8.89827" data-paper-data="{&quot;index&quot;:null}" fill="none" stroke="#000000" stroke-width="10" stroke-linecap="round"/><path d="M293.54062,313.58951v-8.89827" data-paper-data="{&quot;index&quot;:null}" fill="none" stroke="#000000" stroke-width="10" stroke-linecap="round"/><path d="M305.68777,302.1752l-2.17256,-2.89988l26.63954,-19.95806l2.17256,2.89988z" data-paper-data="{&quot;index&quot;:null}" fill="#b3b3b3" stroke="none" stroke-width="0" stroke-linecap="butt"/><path d="M292.45714,307.66572l-0.87111,-1.87972l0.93386,-0.69964l1.80496,1.18009z" data-paper-data="{&quot;index&quot;:null}" fill="#646769" stroke="none" stroke-width="0" stroke-linecap="butt"/><path d="M325.95293,283.03146l-0.52605,-2.44519l2.39456,-0.48944l0.73646,0.98301z" data-paper-data="{&quot;index&quot;:null}" fill="#646769" stroke="none" stroke-width="0" stroke-linecap="butt"/><path d="M305.80222,340.21339l-1.10469,-1.47451l11.79611,-8.83752l0.49282,0.84913l-1.09451,2.21074z" data-paper-data="{&quot;index&quot;:null}" fill="#4c4e50" stroke="none" stroke-width="0" stroke-linecap="butt"/><path d="M321.8562,295.53944l-2.84615,-0.78373l-29.24752,21.91193l-1.49676,-7.04701l15.78474,-11.78189l2.33178,2.08287l4.45846,-3.2517l0.54567,-1.29028l13.68478,-10.46245l0.2664,-2.18174l3.15931,-2.45401l4.93428,6.58616z" data-paper-data="{&quot;index&quot;:null}" fill="#797d7f" stroke="none" stroke-width="0" stroke-linecap="butt"/><g data-paper-data="{&quot;index&quot;:null}" stroke="none" stroke-linecap="butt"><g fill="#646769" stroke-width="0"><path d="M291.62769,320.1815l-2.25773,-4.44756l38.53395,-28.86923l2.94584,3.93204z"/><path d="M304.1208,339.1795l-9.06999,-22.58564l11.61867,-9.18096l9.06967,23.19978z"/></g><path d="M302.29035,334.30603l-6.72097,-16.04673l8.98678,-4.1694l6.72097,16.04673z" fill="#74787a" stroke-width="0"/><text transform="translate(322.00494,294.21192) rotate(143.15905) scale(0.05147,-0.05147)" font-size="40" xml:space="preserve" fill="#606264" fill-rule="nonzero" stroke="none" stroke-width="1" stroke-linecap="butt" stroke-linejoin="miter" stroke-miterlimit="10" stroke-dasharray="" stroke-dashoffset="0" font-family="Sans Serif" font-weight="normal" text-anchor="start" style="mix-blend-mode: normal"><tspan x="0" dy="0">mbzzw</tspan></text></g><path d="M587.5976,-38.31178v73.57357l-710.21021,351.35135l3.003,-72.07207z" fill="#00c5c7" stroke="#ffffff" stroke-width="13" stroke-linecap="butt"/></g></g></svg>