<svg version="1.1" xmlns="http://www.w3.org/2000/svg" xmlns:xlink="http://www.w3.org/1999/xlink" width="3.09675" height="194.51251" viewBox="0,0,3.09675,194.51251"><g transform="translate(-407.25923,-53.88848)"><g data-paper-data="{&quot;isPaintingLayer&quot;:true}" fill-rule="nonzero" stroke="none" stroke-width="1" stroke-linecap="butt" stroke-linejoin="miter" stroke-miterlimit="10" stroke-dasharray="" stroke-dashoffset="0" style="mix-blend-mode: normal"><path d="M409.9688,230.16203v-158.03657l-0.38705,-6.07833h-0.38705v-6.07833h-0.77409v6.07833h-0.38705l-0.38705,6.07833v158.03657l0.38705,6.07833h0.38705v6.07833h0.77409v-6.07833h0.38705l0.38705,-6.07833M410.23974,67.87063c0.07645,1.08349 0.11887,2.63818 0.11611,4.25483v158.03657c0.00114,1.65601 -0.04079,3.24762 -0.11611,4.40679l-0.38705,6.07833c-0.07156,1.12501 -0.16974,1.73074 -0.27093,1.67154c0.00114,1.65601 -0.04079,3.24762 -0.11611,4.40679c-0.07156,1.12501 -0.16974,1.73074 -0.27093,1.67154h-0.77409c-0.10405,0.05817 -0.2052,-0.54434 -0.28061,-1.67154c-0.07178,-1.18433 -0.11014,-2.77284 -0.10644,-4.40679c-0.10405,0.05817 -0.2052,-0.54434 -0.28061,-1.67154l-0.38705,-6.07833c-0.07178,-1.18433 -0.11014,-2.77284 -0.10644,-4.40679v-158.03657c-0.00377,-1.58909 0.0348,-3.13095 0.10644,-4.25483l0.38705,-6.07833c0.07381,-1.18278 0.17516,-1.8414 0.28061,-1.8235c-0.00377,-1.58909 0.0348,-3.13095 0.10644,-4.25483c0.07381,-1.18278 0.17516,-1.8414 0.28061,-1.8235h0.77409c0.10294,-0.0434 0.20194,0.62288 0.27093,1.8235c0.07645,1.08349 0.11887,2.63818 0.11611,4.25483c0.10294,-0.0434 0.20194,0.62288 0.27093,1.8235l0.38705,6.07833" fill="#515f6b"/><path d="M409.9688,230.16203l-0.38705,6.07833h-0.38705v6.07833h-0.77409v-6.07833h-0.38705l-0.38705,-6.07833v-158.03657l0.38705,-6.07833h0.38705v-6.07833h0.77409v6.07833h0.38705l0.38705,6.07833v158.03657M408.03357,72.12546v158.03657h1.54818v-158.03657h-1.54818" fill="#94afc6"/><path d="M408.03357,72.12546h1.54818v158.03657h-1.54818v-158.03657" fill="#778d9f"/></g></g></svg>