<svg version="1.1" xmlns="http://www.w3.org/2000/svg" xmlns:xlink="http://www.w3.org/1999/xlink" width="40" height="20" viewBox="0,0,40,20"><g transform="translate(-220,-170)"><g data-paper-data="{&quot;isPaintingLayer&quot;:true}" fill-rule="nonzero" stroke="none" stroke-width="1" stroke-linecap="butt" stroke-linejoin="miter" stroke-miterlimit="10" stroke-dasharray="" stroke-dashoffset="0" style="mix-blend-mode: normal"><path d="M222,185c-0.11876,0.82639 0.15887,1.66043 0.74922,2.25078c0.59035,0.59035 1.42439,0.86797 2.25078,0.74922h30c0.82639,0.11876 1.66043,-0.15887 2.25078,-0.74922c0.59035,-0.59035 0.86798,-1.42439 0.74922,-2.25078v-10c0.11876,-0.82639 -0.15887,-1.66043 -0.74922,-2.25078c-0.59035,-0.59035 -1.42439,-0.86797 -2.25078,-0.74922h-30c-0.82639,-0.11876 -1.66043,0.15887 -2.25078,0.74922c-0.59035,0.59035 -0.86797,1.42439 -0.74922,2.25078v10M225,190c-3.33334,0 -5,-1.66666 -5,-5v-10c0,-3.33334 1.66666,-5 5,-5h30c3.33333,0 5,1.66666 5,5v10c0,3.33334 -1.66667,5 -5,5h-30" data-paper-data="{&quot;index&quot;:null}" fill="#515f6b"/><path d="M224,185c-0.04106,0.27578 0.05099,0.55469 0.24815,0.75185c0.19716,0.19715 0.47607,0.28921 0.75185,0.24815h30c0.27578,0.04106 0.55469,-0.05099 0.75185,-0.24815c0.19715,-0.19716 0.28921,-0.47607 0.24815,-0.75185v-10c0.04106,-0.27578 -0.05099,-0.55469 -0.24815,-0.75185c-0.19716,-0.19715 -0.47607,-0.28921 -0.75185,-0.24815h-30c-0.27578,-0.04106 -0.55469,0.05099 -0.75185,0.24815c-0.19715,0.19716 -0.28921,0.47607 -0.24815,0.75185v10M222,185v-10c-0.11876,-0.82639 0.15887,-1.66043 0.74922,-2.25078c0.59035,-0.59035 1.42439,-0.86797 2.25078,-0.74922h30c0.82639,-0.11876 1.66043,0.15887 2.25078,0.74922c0.59035,0.59035 0.86798,1.42439 0.74922,2.25078v10c0.11876,0.82639 -0.15887,1.66043 -0.74922,2.25078c-0.59035,0.59035 -1.42439,0.86797 -2.25078,0.74922h-30c-0.82639,0.11876 -1.66043,-0.15887 -2.25078,-0.74922c-0.59035,-0.59035 -0.86797,-1.42439 -0.74922,-2.25078" data-paper-data="{&quot;index&quot;:null}" fill="#94afc6"/><path d="M224,185v-10c-0.04106,-0.27578 0.051,-0.55469 0.24815,-0.75185c0.19716,-0.19715 0.47608,-0.28921 0.75185,-0.24815h30c0.27578,-0.04106 0.5547,0.05099 0.75185,0.24815c0.19716,0.19716 0.28921,0.47607 0.24815,0.75185v10c0.04106,0.27578 -0.05099,0.55469 -0.24815,0.75185c-0.19715,0.19715 -0.47607,0.28921 -0.75185,0.24815h-30c-0.27577,0.04106 -0.55469,-0.05099 -0.75185,-0.24815c-0.19715,-0.19716 -0.28921,-0.47607 -0.24815,-0.75185" data-paper-data="{&quot;index&quot;:null}" fill="#778d9f"/><path d="M243.07492,175.63356l0.85939,0.09056c0.26592,0.14616 0.46328,0.39154 0.54901,0.68263c0.09035,0.29629 0.0573,0.61651 -0.09166,0.88811l-3.71128,6.76033c-0.12248,0.26284 -0.34909,0.46264 -0.6252,0.55123c-0.27019,0.10447 -0.57151,0.09288 -0.83288,-0.03201c-0.27285,-0.09869 -0.49353,-0.30459 -0.61087,-0.56996l-3.1815,-7.02523c-0.11981,-0.28398 -0.1281,-0.6027 -0.02323,-0.89253c0.10783,-0.28365 0.32343,-0.51315 0.59978,-0.63848l0.89253,-0.02322l3.0333,1.15202l3.14149,-0.91472M239.66522,183.52723l3.71129,-6.76034l-3.49054,1.01635l-3.40224,-1.28124l3.1815,7.02523" data-paper-data="{&quot;index&quot;:null}" fill="#999999"/><path d="M239.66522,183.52723l-3.1815,-7.02523l3.40224,1.28124l-0.22074,5.74399" data-paper-data="{&quot;index&quot;:null}" fill="#ffffff"/><path d="M239.66522,183.52723l0.22074,-5.74399l3.49054,-1.01635l-3.71129,6.76034" data-paper-data="{&quot;index&quot;:null}" fill="#e5e5e5"/></g></g></svg>