<svg version="1.1" xmlns="http://www.w3.org/2000/svg" xmlns:xlink="http://www.w3.org/1999/xlink" width="133.33333" height="66.93333" viewBox="0,0,133.33333,66.93333"><g transform="translate(-172.66667,-147)"><g data-paper-data="{&quot;isPaintingLayer&quot;:true}" fill-rule="nonzero" stroke="none" stroke-width="1" stroke-linecap="butt" stroke-linejoin="miter" stroke-miterlimit="10" stroke-dasharray="" stroke-dashoffset="0" style="mix-blend-mode: normal"><path d="M179.26667,164.43333v33c-0.39189,2.72709 0.52427,5.47942 2.47243,7.42757c1.94816,1.94815 4.70049,2.86432 7.42757,2.47243h99c2.72709,0.39189 5.47942,-0.52427 7.42757,-2.47243c1.94816,-1.94816 2.86432,-4.70049 2.47243,-7.42757v-33c0.39189,-2.72709 -0.52427,-5.47942 -2.47243,-7.42757c-1.94815,-1.94816 -4.70049,-2.86432 -7.42757,-2.47243h-99c-2.72709,-0.39189 -5.47942,0.52427 -7.42757,2.47243c-1.94816,1.94815 -2.86432,4.70049 -2.47243,7.42757M189.16667,147.93333h99c11.00001,0 16.5,5.49999 16.5,16.5v33c0,11.00001 -5.49999,16.5 -16.5,16.5h-99c-11.00001,0 -16.5,-5.49999 -16.5,-16.5v-33c0,-11.00001 5.49999,-16.5 16.5,-16.5" fill-opacity="0.45882" fill="#515f6b"/><path d="M180.6,163.5v33c-0.39189,2.72709 0.52427,5.47942 2.47243,7.42757c1.94816,1.94815 4.70049,2.86432 7.42757,2.47243h99c2.72709,0.39189 5.47942,-0.52427 7.42757,-2.47243c1.94816,-1.94816 2.86432,-4.70049 2.47243,-7.42757v-33c0.39189,-2.72709 -0.52427,-5.47942 -2.47243,-7.42757c-1.94815,-1.94816 -4.70049,-2.86432 -7.42757,-2.47243h-99c-2.72709,-0.39189 -5.47942,0.52427 -7.42757,2.47243c-1.94816,1.94815 -2.86432,4.70049 -2.47243,7.42757M190.5,147h99c11.00001,0 16.5,5.49999 16.5,16.5v33c0,11.00001 -5.49999,16.5 -16.5,16.5h-99c-11.00001,0 -16.5,-5.49999 -16.5,-16.5v-33c0,-11.00001 5.49999,-16.5 16.5,-16.5" fill="#515f6b"/><path d="M187.2,163.5v33c-0.1355,0.91006 0.16828,1.83049 0.8189,2.48111c0.65061,0.65061 1.57105,0.95439 2.4811,0.81889h99c0.91006,0.1355 1.83049,-0.16828 2.48111,-0.81889c0.65061,-0.65061 0.95439,-1.57105 0.81889,-2.48111v-33c0.1355,-0.91006 -0.16828,-1.83049 -0.81889,-2.4811c-0.65061,-0.65061 -1.57105,-0.95439 -2.48111,-0.8189h-99c-0.91006,-0.1355 -1.83049,0.16828 -2.4811,0.8189c-0.65061,0.65061 -0.95439,1.57105 -0.8189,2.4811M180.6,163.5c-0.39189,-2.72709 0.52427,-5.47942 2.47243,-7.42757c1.94816,-1.94816 4.70049,-2.86432 7.42757,-2.47243h99c2.72709,-0.39189 5.47942,0.52427 7.42757,2.47243c1.94816,1.94815 2.86432,4.70049 2.47243,7.42757v33c0.39189,2.72709 -0.52427,5.47942 -2.47243,7.42757c-1.94815,1.94815 -4.70049,2.86432 -7.42757,2.47243h-99c-2.72709,0.39189 -5.47942,-0.52427 -7.42757,-2.47243c-1.94816,-1.94816 -2.86432,-4.70049 -2.47243,-7.42757v-33" fill="#94afc6"/><path d="M187.2,163.5c-0.1355,-0.91006 0.16828,-1.83049 0.8189,-2.4811c0.65061,-0.65061 1.57105,-0.95439 2.4811,-0.8189h99c0.91006,-0.1355 1.83049,0.16828 2.48111,0.8189c0.65061,0.65061 0.95439,1.57105 0.81889,2.4811v33c0.1355,0.91006 -0.16828,1.83049 -0.81889,2.48111c-0.65061,0.65061 -1.57105,0.95439 -2.48111,0.81889h-99c-0.91006,0.1355 -1.83049,-0.16828 -2.4811,-0.81889c-0.65061,-0.65061 -0.95439,-1.57105 -0.8189,-2.48111v-33" fill="#778d9f"/><text transform="translate(217.51001,186) scale(0.5,0.5)" font-size="40" xml:space="preserve" fill="#ffffff" fill-rule="nonzero" stroke="none" stroke-width="1" stroke-linecap="butt" stroke-linejoin="miter" stroke-miterlimit="10" stroke-dasharray="" stroke-dashoffset="0" font-family="Sans Serif" font-weight="normal" text-anchor="start" style="mix-blend-mode: normal"><tspan x="0" dy="0">start</tspan></text></g></g></svg>