<svg version="1.1" xmlns="http://www.w3.org/2000/svg" xmlns:xlink="http://www.w3.org/1999/xlink" width="24.37606" height="24.37606" viewBox="0,0,24.37606,24.37606"><g transform="translate(-243.68698,-167.81198)"><g data-paper-data="{&quot;isPaintingLayer&quot;:true}" fill-rule="nonzero" stroke="none" stroke-width="1" stroke-linecap="butt" stroke-linejoin="miter" stroke-miterlimit="10" stroke-dasharray="" stroke-dashoffset="0" style="mix-blend-mode: normal"><path d="M247.89969,173.00142c-0.02478,-0.30892 0.08365,-0.6137 0.29798,-0.83757c0.18255,-0.19866 0.46443,-0.29798 0.84564,-0.29798h13.82803c0.75704,0 1.13287,0.37851 1.12751,1.13555v13.84413c0,0.75168 -0.37585,1.12751 -1.12751,1.12751h-13.82803c-0.38121,0 -0.66309,-0.09666 -0.84564,-0.28994c-0.21433,-0.22387 -0.32275,-0.52866 -0.29798,-0.83757v-13.84413M248.22184,173.00142v13.84413c0,0.53692 0.27383,0.80536 0.82147,0.80536h13.82803c0.54228,0 0.8134,-0.26845 0.8134,-0.80536v-13.84413c0,-0.54228 -0.27113,-0.8134 -0.8134,-0.8134h-13.82803c-0.54764,0 -0.82147,0.27113 -0.82147,0.8134" fill="#9ea4ad"/><path d="M247.69077,171.22191h16.38272c0.1587,-0.01927 0.31734,0.0362 0.42944,0.15017c0.11209,0.11395 0.16493,0.27349 0.14305,0.43185v16.40179c0.01867,0.15681 -0.03564,0.31353 -0.1473,0.42519c-0.11166,0.11166 -0.26837,0.16594 -0.42519,0.1473h-16.38272c-0.39437,0 -0.59156,-0.19084 -0.59156,-0.57248v-16.40179c0,-0.38802 0.19719,-0.58202 0.59156,-0.58202" fill="#d6dde7"/><path d="M249.04333,172.51826c-0.33287,0 -0.49932,0.16106 -0.49932,0.48321v13.84413c0,0.32215 0.16645,0.48321 0.49932,0.48321h13.82803c0.13366,0.01847 0.2683,-0.02615 0.3645,-0.12076c0.09618,-0.09463 0.14302,-0.22853 0.12675,-0.36248v-13.84413c0.01905,-0.13525 -0.02656,-0.27158 -0.12313,-0.36815c-0.09659,-0.09657 -0.2329,-0.14216 -0.36815,-0.12313h-13.82803M248.22184,173.00142c0,-0.54228 0.27383,-0.8134 0.82147,-0.8134h13.82803c0.54228,0 0.8134,0.27113 0.8134,0.8134v13.84413c0,0.53692 -0.27113,0.80536 -0.8134,0.80536h-13.82803c-0.54764,0.00536 -0.82147,-0.26308 -0.82147,-0.80536v-13.84413" fill="#ecf2fa"/><path d="M262.39616,173.15444c-0.00097,-0.08778 0.03395,-0.17212 0.09664,-0.23355c0.05957,-0.05962 0.14129,-0.09174 0.22551,-0.0886c0.08659,-0.00307 0.17079,0.02886 0.23355,0.0886c0.05974,0.06276 0.09169,0.14696 0.0886,0.23355c0.00314,0.08423 -0.02898,0.16594 -0.0886,0.22551c-0.06143,0.06269 -0.14578,0.09758 -0.23355,0.09664c-0.0857,0.00229 -0.16809,-0.03301 -0.22551,-0.09664c-0.06363,-0.05745 -0.09893,-0.13984 -0.09664,-0.22551" fill="#9ea4ad"/><path d="M248.96275,173.37996c-0.06363,-0.05745 -0.09893,-0.13984 -0.09664,-0.22551c-0.00094,-0.08778 0.03395,-0.17212 0.09664,-0.23355c0.05957,-0.05962 0.14129,-0.09174 0.22551,-0.0886c0.08659,-0.00307 0.17079,0.02886 0.23355,0.0886c0.05974,0.06276 0.09169,0.14696 0.0886,0.23355c0.00314,0.08423 -0.02898,0.16594 -0.0886,0.22551c-0.06143,0.06269 -0.14578,0.09758 -0.23355,0.09664c-0.0857,0.00229 -0.16809,-0.03301 -0.22551,-0.09664" fill="#9ea4ad"/><path d="M262.4928,186.90998c-0.06363,-0.05745 -0.09893,-0.13984 -0.09664,-0.22551c-0.00097,-0.08778 0.03395,-0.17212 0.09664,-0.23355c0.05957,-0.05962 0.14129,-0.09174 0.22551,-0.0886c0.08659,-0.00307 0.17079,0.02886 0.23355,0.0886c0.05974,0.06276 0.09169,0.14696 0.0886,0.23355c0.00314,0.08423 -0.02898,0.16594 -0.0886,0.22551c-0.06143,0.06269 -0.14578,0.09758 -0.23355,0.09664c-0.0857,0.00229 -0.16809,-0.03301 -0.22551,-0.09664" fill="#9ea4ad"/><path d="M249.18826,187.00662c-0.17613,-0.00425 -0.3179,-0.14602 -0.32215,-0.32215c-0.00094,-0.08778 0.03395,-0.17212 0.09664,-0.23355c0.05957,-0.05962 0.14129,-0.09174 0.22551,-0.0886c0.08693,-0.00522 0.17195,0.02704 0.23353,0.08862c0.0616,0.06158 0.09384,0.1466 0.08862,0.23353c0.00314,0.08423 -0.02898,0.16594 -0.0886,0.22551c-0.06143,0.06269 -0.14578,0.09758 -0.23355,0.09664" fill="#9ea4ad"/><path d="M265.01556,168.57421h-3.04686l0.76173,0.76173h2.28516l0.76173,0.76173h-0.76173v0.76173h0.76173v-0.76173l0.76173,0.76173v2.28516l0.76173,0.76173v-4.57031l-0.76173,-0.76173h-1.52343M267.3007,174.6679c-0.2026,0.00546 -0.39742,-0.07804 -0.5332,-0.22851l-0.22851,-0.22851l-0.5332,-0.5332c-0.15044,-0.13578 -0.23394,-0.3306 -0.22851,-0.5332v-1.52343h-0.76173c-0.2026,0.00546 -0.39742,-0.07804 -0.5332,-0.22851c-0.15044,-0.13578 -0.23394,-0.3306 -0.22851,-0.5332v-0.76173h-1.52343c-0.2026,0.00546 -0.39742,-0.07804 -0.5332,-0.22851l-0.38085,-0.38085l-0.38085,-0.38085c-0.15044,-0.13578 -0.23394,-0.3306 -0.22851,-0.5332c-0.00225,-0.20752 0.08029,-0.40698 0.22851,-0.55225c0.14083,-0.141 0.33405,-0.21689 0.5332,-0.20948h4.57031c0.20477,-0.00729 0.40384,0.06822 0.55225,0.20948l0.76173,0.76173c0.14126,0.14841 0.21677,0.34748 0.20948,0.55225v4.57031c0.00741,0.19914 -0.06851,0.39235 -0.20948,0.5332c-0.14527,0.14822 -0.34473,0.23075 -0.55225,0.22851M250.5429,168.5743c0.00546,0.2026 -0.07804,0.39742 -0.22851,0.5332l-0.22851,0.22851l-0.5332,0.5332c-0.13578,0.15046 -0.3306,0.23394 -0.5332,0.22851h-1.52343v0.76173c0.00546,0.2026 -0.07804,0.39742 -0.22851,0.5332c-0.13578,0.15044 -0.3306,0.23394 -0.5332,0.22851h-0.76173v1.52343c0.00546,0.2026 -0.07804,0.39742 -0.22851,0.5332l-0.38085,0.38085l-0.38085,0.38085c-0.13578,0.15044 -0.3306,0.23394 -0.5332,0.22851c-0.20752,0.00225 -0.40698,-0.08029 -0.55225,-0.22851c-0.141,-0.14083 -0.21689,-0.33405 -0.20948,-0.5332v-4.57031c-0.00729,-0.20477 0.06822,-0.40384 0.20948,-0.55225l0.76173,-0.76173c0.14841,-0.14126 0.34748,-0.21677 0.55225,-0.20948h4.57031c0.19914,-0.00741 0.39235,0.06851 0.5332,0.20948c0.14822,0.14527 0.23075,0.34473 0.22851,0.55225M244.44928,185.33208c0.2026,-0.00546 0.39742,0.07804 0.5332,0.22851l0.22851,0.22851l0.5332,0.5332c0.15044,0.13578 0.23394,0.3306 0.22851,0.5332v1.52343h0.76173c0.41647,0.01005 0.75168,0.34528 0.76173,0.76173v0.76173h1.52343c0.2026,-0.00546 0.39742,0.07804 0.5332,0.22851l0.5332,0.5332l0.22851,0.22851c0.15044,0.13578 0.23394,0.3306 0.22851,0.5332c0.00225,0.20752 -0.08029,0.40698 -0.22851,0.55225c-0.14083,0.141 -0.33405,0.21689 -0.5332,0.20948h-4.57031c-0.20477,0.00729 -0.40384,-0.06822 -0.55225,-0.20948l-0.76173,-0.76173c-0.14126,-0.14841 -0.21677,-0.34748 -0.20948,-0.55225v-4.57031c-0.00741,-0.19914 0.06851,-0.39235 0.20948,-0.5332c0.14527,-0.14822 0.34473,-0.23075 0.55225,-0.22851M261.2071,191.4257c-0.00546,-0.2026 0.07804,-0.39742 0.22851,-0.5332l0.22851,-0.22851l0.5332,-0.5332c0.13578,-0.15044 0.3306,-0.23394 0.5332,-0.22851h1.52343v-0.76173c-0.00546,-0.2026 0.07804,-0.39742 0.22851,-0.5332c0.13578,-0.15044 0.3306,-0.23394 0.5332,-0.22851h0.76173v-1.52343c-0.00546,-0.2026 0.07804,-0.39742 0.22851,-0.5332l0.5332,-0.5332l0.22851,-0.22851c0.13578,-0.15044 0.3306,-0.23394 0.5332,-0.22851c0.20752,-0.00225 0.40698,0.08029 0.55225,0.22851c0.141,0.14083 0.21689,0.33405 0.20948,0.5332v4.57031c0.00729,0.20477 -0.06822,0.40384 -0.20948,0.55225l-0.76173,0.76173c-0.14841,0.14126 -0.34748,0.21677 -0.55225,0.20948h-4.57031c-0.19914,0.00741 -0.39235,-0.06851 -0.5332,-0.20948c-0.14822,-0.14527 -0.23075,-0.34473 -0.22851,-0.55225M267.30079,187.61714v-1.52343l-0.76173,0.76173v2.28516l-0.76173,0.76173v-0.76173h-0.76173v0.76173h0.76173l-0.76173,0.76173h-2.28516l-0.76173,0.76173h4.57031l0.76173,-0.76173v-3.04686M244.44921,170.85944v3.04686l0.76173,-0.76173v-2.28516l0.76173,-0.76173v0.76173h0.76173v-0.76173h-0.76173l0.76173,-0.76173h2.28516l0.76173,-0.76173h-4.57031l-0.76173,0.76173v1.52343M244.44925,187.61723v3.04686l0.76173,0.76173h4.57031l-0.76173,-0.76173h-2.28516l-0.76173,-0.76173h0.76173v-0.76173h-0.76173v0.76173l-0.76173,-0.76173v-2.28516l-0.76173,-0.76173v1.52343" fill="#515f6b"/><path d="M244.44923,187.61716v-1.52343l0.76173,0.76173v0.76173h-0.76173M267.30079,170.85941h-0.76173l-0.76173,-0.76173v0.76173h-0.76173v-0.76173h0.76173l-0.76173,-0.76173v-0.76173h1.52343l0.76173,0.76173v1.52343M263.49221,168.57423v0.76173h-0.76173l-0.76173,-0.76173h1.52343M266.53904,172.38284h0.76173v1.52343l-0.76173,-0.76173v-0.76173M266.53904,187.61721v-0.76173l0.76173,-0.76173v1.52343h-0.76173M267.30075,189.14064v1.52343l-0.76173,0.76173h-1.52343v-0.76173l0.76173,-0.76173h-0.76173v-0.76173h0.76173v0.76173l0.76173,-0.76173h0.76173M263.49216,190.66404v0.76173h-1.52343l0.76173,-0.76173h0.76173M246.73441,168.57421v0.76173l-0.76173,0.76173h0.76173v0.76173h-0.76173v-0.76173l-0.76173,0.76173h-0.76173v-1.52343l0.76173,-0.76173h1.52343M244.44923,172.38279h0.76173v0.76173l-0.76173,0.76173v-1.52343M248.25784,169.33596v-0.76173h1.52343l-0.76173,0.76173h-0.76173M244.44921,189.14059h0.76173l0.76173,0.76173v-0.76173h0.76173v0.76173h-0.76173l0.76173,0.76173v0.76173h-1.52343l-0.76173,-0.76173v-1.52343M248.25779,191.42577v-0.76173h0.76173l0.76173,0.76173h-1.52343" fill="#94afc6"/><path d="M248.25782,191.42577h-1.52343v-0.76173h1.52343v0.76173M265.01561,168.57423v0.76173h-1.52343v-0.76173h1.52343M266.53904,170.85939h0.76173v1.52343h-0.76173v-1.52343M267.30077,187.61718v1.52343h-0.76173v-1.52343h0.76173M263.49218,190.66404h1.52343v0.76173h-1.52343v-0.76173M244.44923,170.85939h0.76173v1.52343h-0.76173v-1.52343M246.73439,169.33596v-0.76173h1.52343v0.76173h-1.52343M244.44923,187.61718h0.76173v1.52343h-0.76173v-1.52343" fill="#778d9f"/><path d="M266.53904,174.21101v9.59764l-0.38085,0.38085l0.38085,0.38085v1.21874l-0.5332,0.5332c-0.15044,0.13578 -0.23394,0.3306 -0.22851,0.5332v1.52343h-0.76173v-16.7578h0.76173v1.52343c-0.00546,0.2026 0.07804,0.39742 0.22851,0.5332l0.5332,0.5332M264.25396,170.85939h-16.7578v-0.76173h1.52343c0.2026,0.00546 0.39742,-0.07804 0.5332,-0.22851l0.5332,-0.5332h8.07421l0.38085,0.38085l0.38085,-0.38085h1.52343l0.76173,0.76173l0.60938,-0.60938l0.38085,0.38085c0.13578,0.15046 0.3306,0.23394 0.5332,0.22851h1.52343v0.76173M261.66404,190.66404h-9.59764l-0.76173,-0.76173l-0.76173,0.76173h-0.45704l-0.5332,-0.5332c-0.13578,-0.15044 -0.3306,-0.23394 -0.5332,-0.22851h-1.52343v-0.76173h16.7578v0.76173h-1.52343c-0.2026,-0.00546 -0.39742,0.07804 -0.5332,0.22851l-0.5332,0.5332M246.73439,171.62109v16.7578h-0.76173v-1.52343c0.00546,-0.2026 -0.07804,-0.39742 -0.22851,-0.5332l-0.5332,-0.5332v-10.35936l0.76173,-0.76173l-0.60938,-0.60938l0.38085,-0.38085c0.15044,-0.13578 0.23394,-0.3306 0.22851,-0.5332v-1.52343h0.76173" fill="#b47b41"/><path d="M261.43558,169.1074l0.38085,0.38085l-0.60938,0.60938l-0.76173,-0.76173h-1.52343l-0.38085,0.38085l-0.38085,-0.38085h-8.07421l0.22851,-0.22851c0.15044,-0.13578 0.23394,-0.3306 0.22851,-0.5332h7.61717l0.38085,0.38085l0.38085,-0.38085h1.52343l0.76173,0.76173l0.22851,-0.22851M244.9824,174.43942l0.38085,-0.38085l0.60938,0.60938l-0.76173,0.76173v10.35936l-0.22851,-0.22851c-0.13578,-0.15044 -0.3306,-0.23394 -0.5332,-0.22851v-9.90233l0.76173,-0.76173l-0.22851,-0.22851M250.54295,191.42577c0.00546,-0.2026 -0.07804,-0.39742 -0.22851,-0.5332l-0.22851,-0.22851h0.45704l0.76173,-0.76173l0.76173,0.76173h9.59764l-0.22851,0.22851c-0.15044,0.13578 -0.23394,0.3306 -0.22851,0.5332h-9.14063l-0.76173,-0.76173l-0.76173,0.76173M267.30077,185.33203c-0.2026,-0.00546 -0.39742,0.07804 -0.5332,0.22851l-0.22851,0.22851v-1.21874l-0.38085,-0.38085l0.38085,-0.38085v-9.59764l0.22851,0.22851c0.13578,0.15044 0.3306,0.23394 0.5332,0.22851v9.14063l-0.38085,0.38085l0.38085,0.38085v0.76173" fill="#6d4b27"/><path d="M265.01564,171.62114v16.7578c-0.2026,-0.00546 -0.39742,0.07804 -0.5332,0.22851c-0.15044,0.13578 -0.23394,0.3306 -0.22851,0.5332h-16.7578c-0.01005,-0.41647 -0.34528,-0.75168 -0.76173,-0.76173v-16.7578c0.2026,0.00546 0.39742,-0.07804 0.5332,-0.22851c0.15044,-0.13578 0.23394,-0.3306 0.22851,-0.5332h16.7578c-0.00546,0.2026 0.07804,0.39742 0.22851,0.5332c0.13578,0.15044 0.3306,0.23394 0.5332,0.22851M263.49218,171.62111h-9.1406l-0.76173,0.76173l-0.76173,-0.76173h-5.33202v10.66405l0.38085,0.38085l-0.38085,0.38085v5.33202h16.7578v-12.18748l-0.38085,-0.38085l0.38085,-0.38085v-3.80859h-0.76173" fill="#a3703a"/><path d="M263.49218,171.62111h0.76173v0.76173l-0.76173,-0.76173M248.25782,171.62111l-0.76173,0.76173v-0.76173h0.76173M247.49611,187.61718l0.76173,0.76173h-0.76173v-0.76173M263.49218,188.37891l0.76173,-0.76173v0.76173h-0.76173" fill="#d2c6ac"/></g></g></svg>