<svg version="1.1" xmlns="http://www.w3.org/2000/svg" xmlns:xlink="http://www.w3.org/1999/xlink" width="35.33333" height="35.33333" viewBox="0,0,35.33333,35.33333"><g transform="translate(-363.07214,-315.33333)"><g data-paper-data="{&quot;isPaintingLayer&quot;:true}" fill-rule="nonzero" stroke="none" stroke-width="1" stroke-linecap="butt" stroke-linejoin="miter" stroke-miterlimit="10" stroke-dasharray="" stroke-dashoffset="0" style="mix-blend-mode: normal"><path d="M366.38463,319.75003v26.5l1.10417,1.10416h26.5l1.10416,-1.10416v-26.5l-1.10416,-1.10417h-26.5l-1.10417,1.10417M364.17631,318.09378c-0.06556,-0.45624 0.0877,-0.91669 0.41363,-1.24262c0.32593,-0.32593 0.78639,-0.47919 1.24262,-0.41363h29.8125c0.45624,-0.06556 0.91669,0.0877 1.24261,0.41363c0.32593,0.32593 0.4792,0.78639 0.41364,1.24262v29.8125c0.06556,0.45624 -0.08771,0.9167 -0.41364,1.24262c-0.32593,0.32593 -0.78638,0.4792 -1.24261,0.41363h-29.8125c-0.45624,0.06556 -0.91669,-0.0877 -1.24262,-0.41363c-0.32593,-0.32593 -0.47919,-0.78638 -0.41363,-1.24262v-29.8125M369.14506,320.85418c0.14562,0.00207 0.28452,0.06161 0.38646,0.16563l0.16562,0.38646l-0.16562,0.38646l-0.38646,0.16562l-0.38646,-0.16562c-0.15465,-0.15773 -0.2004,-0.39246 -0.11629,-0.59672c0.0841,-0.20426 0.28187,-0.33873 0.50275,-0.34183M392.33255,320.85418c0.14562,0.00207 0.28452,0.06161 0.38646,0.16563l0.16562,0.38646l-0.16562,0.38646l-0.38646,0.16562l-0.38646,-0.16562c-0.15465,-0.15773 -0.2004,-0.39246 -0.11629,-0.59672c0.0841,-0.20426 0.28187,-0.33873 0.50275,-0.34183M392.33255,344.0417c0.14562,0.00207 0.28452,0.06161 0.38646,0.16563l0.16562,0.38646l-0.16562,0.38646l-0.38646,0.16562l-0.38646,-0.16562c-0.15465,-0.15773 -0.2004,-0.39246 -0.11629,-0.59672c0.0841,-0.20426 0.28187,-0.33873 0.50275,-0.34184M369.14506,344.0417c0.14562,0.00207 0.28452,0.06161 0.38646,0.16563l0.16562,0.38646l-0.16562,0.38646l-0.38646,0.16562l-0.38646,-0.16562c-0.15465,-0.15773 -0.2004,-0.39246 -0.11629,-0.59672c0.0841,-0.20426 0.28187,-0.33873 0.50275,-0.34184" fill="#778d9f"/><path d="M366.38463,319.75003l1.10417,-1.10417h26.5l1.10416,1.10417v26.5l-1.10416,1.10416h-26.5l-1.10417,-1.10416v-26.5M367.48881,320.85418v24.29166l1.10416,1.10417h24.29166l1.10417,-1.10417v-24.29166l-1.10417,-1.10416h-24.29166l-1.10416,1.10416" fill="#647685"/><path d="M364.17631,318.09378v29.8125c-0.06556,0.45624 0.0877,0.9167 0.41363,1.24262c0.32593,0.32593 0.78639,0.4792 1.24262,0.41363h29.8125c0.45624,0.06556 0.91669,-0.0877 1.24261,-0.41363c0.32593,-0.32593 0.4792,-0.78638 0.41364,-1.24262v-29.8125c0.06556,-0.45624 -0.08771,-0.91669 -0.41364,-1.24262c-0.32593,-0.32593 -0.78638,-0.47919 -1.24261,-0.41363h-29.8125c-0.45624,-0.06556 -0.91669,0.0877 -1.24262,0.41363c-0.32593,0.32593 -0.47919,0.78639 -0.41363,1.24262M365.83256,315.33333h29.8125c1.84028,0 2.76041,0.92014 2.76041,2.76042v29.8125c0,1.84028 -0.92014,2.76041 -2.76041,2.76041h-29.8125c-1.84028,0 -2.76042,-0.92014 -2.76042,-2.76041v-29.8125c0,-1.84028 0.92014,-2.76042 2.76042,-2.76042" fill="#515f6b"/><path d="M369.14506,320.85418c-0.22088,0.0031 -0.41864,0.13757 -0.50275,0.34183c-0.0841,0.20426 -0.03836,0.43898 0.11629,0.59672l0.38646,0.16562l0.38646,-0.16562l0.16562,-0.38646l-0.16562,-0.38646c-0.10193,-0.10402 -0.24083,-0.16356 -0.38646,-0.16563M367.48881,320.85418l1.10416,-1.10416h24.29166l1.10417,1.10416v24.29166l-1.10417,1.10417h-24.29166l-1.10416,-1.10417v-24.29166M369.14506,344.0417c-0.22088,0.0031 -0.41864,0.13758 -0.50275,0.34184c-0.0841,0.20426 -0.03836,0.43898 0.11629,0.59672l0.38646,0.16562l0.38646,-0.16562l0.16562,-0.38646l-0.16562,-0.38646c-0.10193,-0.10402 -0.24083,-0.16356 -0.38646,-0.16563M392.33255,344.0417c-0.22088,0.0031 -0.41864,0.13758 -0.50275,0.34184c-0.0841,0.20426 -0.03836,0.43898 0.11629,0.59672l0.38646,0.16562l0.38646,-0.16562l0.16562,-0.38646l-0.16562,-0.38646c-0.10193,-0.10402 -0.24083,-0.16356 -0.38646,-0.16563M392.33255,320.85418c-0.22088,0.0031 -0.41864,0.13757 -0.50275,0.34183c-0.0841,0.20426 -0.03836,0.43898 0.11629,0.59672l0.38646,0.16562l0.38646,-0.16562l0.16562,-0.38646l-0.16562,-0.38646c-0.10193,-0.10402 -0.24083,-0.16356 -0.38646,-0.16563" fill="#94afc6"/></g></g></svg>