<svg version="1.1" xmlns="http://www.w3.org/2000/svg" xmlns:xlink="http://www.w3.org/1999/xlink" width="16.19175" height="15.99332" viewBox="0,0,16.19175,15.99332"><g transform="translate(-231.77364,-172.35926)"><g data-paper-data="{&quot;isPaintingLayer&quot;:true}" fill-rule="nonzero" stroke="none" stroke-width="1" stroke-linecap="butt" stroke-linejoin="miter" stroke-miterlimit="10" stroke-dasharray="" stroke-dashoffset="0" style="mix-blend-mode: normal"><path d="M232.40646,185.85215l1.479,-5.4966l-2.11182,-5.23476l0.00858,-1.5532c0.20814,-0.48513 0.59964,-0.8683 1.08914,-1.06596c0.50036,-0.19274 1.055,-0.18967 1.5532,0.00858l12.33239,5.28319c0.46574,0.19463 0.83172,0.57111 1.01311,1.04217c0.22654,0.45016 0.25742,0.97382 0.08536,1.44749c-0.14424,0.48339 -0.48367,0.88465 -0.93646,1.10705l-11.62599,6.696c-0.46709,0.26875 -1.02286,0.33765 -1.54143,0.19107c-0.50934,-0.13876 -0.94316,-0.47326 -1.20687,-0.93057l-0.18813,-1.49151M245.96447,179.64326l-12.33239,-5.28319l2.34973,5.87186l-1.64333,6.10733l11.62599,-6.696" fill="#999999"/><path d="M245.96447,179.64326l-9.98266,0.58867l-2.34973,-5.87186l12.33239,5.28319" fill="#ffffff"/><path d="M245.96447,179.64326l-11.62599,6.696l1.64333,-6.10733l9.98266,-0.58867" fill="#e5e5e5"/></g></g></svg>