<svg version="1.1" xmlns="http://www.w3.org/2000/svg" xmlns:xlink="http://www.w3.org/1999/xlink" width="134.47564" height="141.20007" viewBox="0,0,134.47564,141.20007"><g transform="translate(-337.62436,-2.75)"><g data-paper-data="{&quot;isPaintingLayer&quot;:true}" fill-rule="nonzero" stroke="none" stroke-width="1" stroke-linecap="butt" stroke-linejoin="miter" stroke-miterlimit="10" stroke-dasharray="" stroke-dashoffset="0" style="mix-blend-mode: normal"><path d="M413.28824,31.74265l-0.94706,0.94706l-1.89412,-1.89412h-1.92794l-1.92794,1.89412l-0.94706,-0.94706l3.85588,-3.82206l3.78824,3.82206M369.68971,69.65882l-1.89412,1.89412v1.92794l1.89412,1.92794l-0.94706,0.94706l-3.82206,-3.82206l3.82206,-3.82206l0.94706,0.94706M449.27647,69.65882l0.94706,-0.94706l3.85588,3.82206l-3.85588,3.82206l-0.94706,-0.94706l1.96176,-1.92794v-1.92794l-1.92794,-1.89412M405.64412,113.22353l0.94706,-0.94706l1.92794,1.96176h1.92794l1.89412,-1.92794l0.94706,0.94706l-3.78824,3.82206l-3.82206,-3.85588" fill="#94afc6"/><path d="M405.64412,113.22353l-1.89412,-1.89412l0.94706,-0.94706h1.92794v1.92794l-0.94706,0.94706M412.375,32.75735l0.94706,-0.94706l1.92794,1.92794l-0.94706,0.98088l-1.96176,-0.10147v-1.92794M405.64412,31.74265l0.94706,0.94706v1.96176l-1.89412,-0.03382l-0.94706,-0.98088l1.89412,-1.89412M416.56912,33.83971v-0.23676c-0.00422,-0.34722 -0.15098,-0.67743 -0.40588,-0.91324l-1.89412,-1.89412c7.30713,0.71915 14.27262,3.44681 20.125,7.88088c1.65004,1.24069 3.20985,2.59705 4.66765,4.05882l0.10147,0.10147v0.03382l0.10147,0.10147c1.45204,1.46686 2.8078,3.02599 4.05882,4.66765c4.43407,5.85238 7.16173,12.81787 7.88088,20.125l-1.92794,-1.96176c-0.2358,-0.2549 -0.56602,-0.40166 -0.91324,-0.40588h-0.20294c-0.973,-5.76927 -3.31603,-11.22088 -6.83235,-15.89706c-0.93859,-1.27911 -1.95523,-2.49908 -3.04412,-3.65294l-1.04853,-1.08235l-0.16912,-0.20294l-0.91324,-0.87941c-1.153,-1.10034 -2.37298,-2.12828 -3.65294,-3.07794c-4.69088,-3.47791 -10.13842,-5.79601 -15.89706,-6.76471M448.73529,71.01176l1.48824,1.48824l-1.48824,1.52206v-1.52206v-1.48824M448.16029,79.60294h0.20294c0.34722,-0.00422 0.67743,-0.15098 0.91324,-0.40588l1.92794,-1.89412c-0.72523,7.29536 -3.45259,14.24837 -7.88088,20.09118c-1.24069,1.65004 -2.59705,3.20985 -4.05882,4.66765l-0.10147,0.10147l-0.06765,0.06765l-4.73529,4.05882c-5.83191,4.44769 -12.79062,7.17728 -20.09118,7.88088l1.89412,-1.92794c0.2549,-0.2358 0.40166,-0.56602 0.40588,-0.91324v-0.20294c5.74972,-0.96385 11.18737,-3.28267 15.86324,-6.76471l3.68676,-3.07794l1.08235,-1.04853v0l1.01471,-1.04853l3.14559,-3.68676c3.50449,-4.67931 5.83584,-10.13073 6.79853,-15.89706M410.98824,111.73529l-1.48824,1.48824l-1.48824,-1.48824h2.97647M402.39706,111.16029v0.20294c0.00422,0.34722 0.15098,0.67743 0.40588,0.91324l1.96176,1.92794c-7.30713,-0.71915 -14.27262,-3.44681 -20.125,-7.88088c-1.64166,-1.25102 -3.20078,-2.60679 -4.66765,-4.05882l-0.10147,-0.10147h-0.03382l-0.10147,-0.10147c-1.46178,-1.45779 -2.81813,-3.0176 -4.05882,-4.66765c-4.42567,-5.8284 -7.14264,-12.77309 -7.84706,-20.05735l1.86029,1.86029c0.2358,0.2549 0.56602,0.40166 0.91324,0.40588h0.27059c0.93746,5.76772 3.25859,11.22238 6.76471,15.89706c0.94501,1.28485 1.96131,2.5157 3.04412,3.68676l0.87941,0.91324l0.20294,0.16912l1.08235,1.04853l3.61912,3.04412c4.69688,3.50242 10.15592,5.84367 15.93088,6.83235M370.29853,74.02206h-0.03382l-1.52206,-1.52206l1.52206,-1.48824h0.06765l-0.06765,1.48824l0.03382,1.52206M370.87353,65.43088h-0.27059c-0.34722,0.00422 -0.67743,0.15098 -0.91324,0.40588l-1.89412,1.89412c0.72945,-7.27373 3.45701,-14.20385 7.88088,-20.02353c1.25,-1.67364 2.61768,-3.25608 4.09265,-4.73529l0.13529,-0.13529l0.16912,-0.16912c1.45779,-1.46178 3.0176,-2.81813 4.66765,-4.05882c5.80435,-4.38905 12.71241,-7.08203 19.95588,-7.77941l-1.89412,1.86029c-0.2549,0.2358 -0.40166,0.56602 -0.40588,0.91324v0.27059c-5.76927,0.973 -11.22088,3.31603 -15.89706,6.83235c-1.26275,0.94573 -2.47104,1.96206 -3.61912,3.04412l-1.11618,1.01471l-1.04853,1.11618c-1.10747,1.14658 -2.13582,2.36704 -3.07794,3.65294c-3.49703,4.67991 -5.81718,10.13226 -6.76471,15.89706M407.97794,33.29853v-0.03382l1.52206,-1.52206l1.48824,1.52206v0.06765l-1.48824,-0.06765l-1.52206,0.03382M368.74265,68.71176l1.92794,-1.92794l0.98088,0.98088l-0.03382,1.89412h-1.92794l-0.94706,-0.94706M369.68971,75.40882h1.96176l-0.03382,1.89412l-0.98088,0.94706l-1.89412,-1.89412l0.94706,-0.94706M450.18971,68.71176l-0.94706,0.94706h-1.86029v-1.89412l0.94706,-0.94706l1.92794,1.92794M449.31029,75.44265l0.94706,0.94706l-1.89412,1.89412l-0.98088,-0.98088v-1.92794h1.92794M412.34118,112.27647v-1.89412h1.92794l0.94706,0.94706l-1.92794,1.89412l-0.94706,-0.94706" fill="#778d9f"/><path d="M412.34118,112.27647l-1.89412,1.92794h-1.92794l-1.92794,-1.96176v-1.92794h-1.92794l-0.94706,0.94706l1.89412,1.89412l3.88971,3.92353l3.82206,-3.85588l1.92794,-1.92794l-0.94706,-0.94706h-1.92794v1.89412M413.32206,31.74265l-3.82206,-3.82206l-3.85588,3.82206l-1.89412,1.89412l0.94706,0.98088l1.92794,0.03382v-1.96176l1.89412,-1.92794h1.92794l1.89412,1.89412v1.96176l1.92794,0.03382l0.94706,-0.98088l-1.92794,-1.92794M448.16029,65.43088h0.20294c0.34722,0.00422 0.67743,0.15098 0.91324,0.40588l1.92794,1.92794c-0.71915,-7.30713 -3.44681,-14.27262 -7.88088,-20.125c-1.25102,-1.64166 -2.60679,-3.20078 -4.05882,-4.66765l-0.10147,-0.10147v-0.03382l-0.10147,-0.10147c-1.45779,-1.46178 -3.0176,-2.81813 -4.66765,-4.05882c-5.84281,-4.42829 -12.79582,-7.15565 -20.09118,-7.88088l1.89412,1.89412c0.2549,0.2358 0.40166,0.56602 0.40588,0.91324v0.23676c-0.04241,0.30784 -0.18505,0.59313 -0.40588,0.81176l-0.40588,0.43971l-0.54118,0.50735c-0.24467,0.25866 -0.59176,0.39502 -0.94706,0.37206h-1.96176c-0.32272,0.02528 -0.64138,-0.08503 -0.87941,-0.30441l-0.10147,-0.10147c-0.24514,-0.23975 -0.37987,-0.57043 -0.37206,-0.91324v-1.38676l-1.48824,-1.52206l-1.52206,1.52206v1.38676c0.00781,0.3428 -0.12692,0.67349 -0.37206,0.91324l-0.06765,0.10147c-0.26047,0.22725 -0.60296,0.33734 -0.94706,0.30441h-1.89412c-0.36608,0.02846 -0.72576,-0.10797 -0.98088,-0.37206l-0.50735,-0.50735l-0.43971,-0.43971c-0.19774,-0.21714 -0.32714,-0.48771 -0.37206,-0.77794v-0.27059c0.00422,-0.34722 0.15098,-0.67743 0.40588,-0.91324l1.89412,-1.86029c-7.26207,0.71106 -14.18323,3.428 -19.98971,7.84706c-1.65004,1.24069 -3.20985,2.59705 -4.66765,4.05882l-0.16912,0.16912l-0.13529,0.13529c-1.47496,1.47921 -2.84264,3.06165 -4.09265,4.73529c-4.39449,5.79466 -7.10932,12.68705 -7.84706,19.92206l1.89412,-1.89412c0.2358,-0.2549 0.56602,-0.40166 0.91324,-0.40588h0.27059c0.29595,0.04891 0.56852,0.19112 0.77794,0.40588l0.43971,0.43971l0.50735,0.50735c0.2783,0.25984 0.41643,0.63655 0.37206,1.01471v1.89412c0.02528,0.32272 -0.08503,0.64138 -0.30441,0.87941l-0.10147,0.10147c-0.23975,0.24514 -0.57043,0.37987 -0.91324,0.37206h-1.38676l-1.52206,1.48824l1.52206,1.52206h1.38676c0.3428,-0.00781 0.67349,0.12692 0.91324,0.37206l0.10147,0.06765c0.22725,0.26047 0.33734,0.60296 0.30441,0.94706v1.89412c0.02846,0.36608 -0.10797,0.72576 -0.37206,0.98088l-0.50735,0.50735l-0.43971,0.43971c-0.21714,0.19774 -0.48771,0.32714 -0.77794,0.37206h-0.27059c-0.34722,-0.00422 -0.67743,-0.15098 -0.91324,-0.40588l-1.86029,-1.86029c0.70442,7.28427 3.42139,14.22895 7.84706,20.05735c1.24069,1.65004 2.59705,3.20985 4.05882,4.66765l0.10147,0.10147h0.03382l0.10147,0.10147c1.46686,1.45204 3.02599,2.8078 4.66765,4.05882c5.85238,4.43407 12.81787,7.16173 20.125,7.88088l-1.96176,-1.92794c-0.2549,-0.2358 -0.40166,-0.56602 -0.40588,-0.91324v-0.20294c0.01806,-0.30761 0.15082,-0.59727 0.37206,-0.81176l0.43971,-0.43971l0.50735,-0.50735c0.25512,-0.26408 0.6148,-0.40051 0.98088,-0.37206h1.89412c0.3441,-0.03293 0.68659,0.07716 0.94706,0.30441l0.06765,0.10147c0.24514,0.23975 0.37987,0.57043 0.37206,0.91324v1.35294v0l1.48824,1.48824l1.48824,-1.48824v-1.35294c-0.01317,-0.35371 0.12165,-0.6969 0.37206,-0.94706l0.10147,-0.10147c0.23803,-0.21938 0.55669,-0.32969 0.87941,-0.30441h1.92794c0.3553,-0.02296 0.70239,0.1134 0.94706,0.37206l0.54118,0.54118l0.40588,0.40588c0.22331,0.22138 0.37628,0.50378 0.43971,0.81176v0.20294c-0.00422,0.34722 -0.15098,0.67743 -0.40588,0.91324l-1.89412,1.92794c7.30889,-0.68757 14.2798,-3.40563 20.125,-7.84706l4.73529,-4.05882l0.06765,-0.06765l0.10147,-0.10147c1.46178,-1.45779 2.81813,-3.0176 4.05882,-4.66765c4.42829,-5.84281 7.15565,-12.79582 7.88088,-20.09118l-1.92794,1.89412c-0.2358,0.2549 -0.56602,0.40166 -0.91324,0.40588h-0.20294c-0.30761,-0.01806 -0.59727,-0.15082 -0.81176,-0.37206l-0.43971,-0.43971l-0.50735,-0.50735c-0.28623,-0.25636 -0.43635,-0.63166 -0.40588,-1.01471v-1.89412c-0.03293,-0.3441 0.07716,-0.68659 0.30441,-0.94706l0.10147,-0.06765c0.23975,-0.24514 0.57043,-0.37987 0.91324,-0.37206h1.35294l1.52206,-1.52206l-1.48824,-1.48824h-1.35294c-0.35371,0.01317 -0.6969,-0.12165 -0.94706,-0.37206l-0.10147,-0.10147c-0.21938,-0.23803 -0.32969,-0.55669 -0.30441,-0.87941v-1.89412c-0.02296,-0.3553 0.1134,-0.70239 0.37206,-0.94706l0.54118,-0.50735l0.40588,-0.43971c0.21863,-0.22083 0.50392,-0.36347 0.81176,-0.40588M375.67647,40.06324c-0.00945,-0.38342 0.12304,-0.75682 0.37206,-1.04853c0.2814,-0.21656 0.62581,-0.33532 0.98088,-0.33824h5.47941c6.69704,-5.55305 14.99173,-8.82353 23.67647,-9.33529l2.33382,-2.36765c0.26268,-0.26608 0.60915,-0.43334 0.98088,-0.47353c0.35989,0.0217 0.69824,0.17879 0.94706,0.43971l2.43529,2.40147c8.68816,0.49627 16.98751,3.76859 23.67647,9.33529l5.41176,-0.03382c0.37801,0.02062 0.74207,0.1498 1.04853,0.37206c0.2287,0.27704 0.3595,0.62186 0.37206,0.98088v5.44559c5.55325,6.72314 8.82279,15.03914 9.33529,23.74412l2.36765,2.36765c0.24849,0.25414 0.39322,0.59185 0.40588,0.94706c-0.04019,0.37173 -0.20745,0.7182 -0.47353,0.98088l-2.33382,2.33382c-0.50273,8.70712 -3.77342,17.02606 -9.33529,23.74412v5.41176l-0.37206,1.01471c-0.30274,0.22925 -0.669,0.35921 -1.04853,0.37206h-5.41176c-6.71806,5.56187 -15.03699,8.83257 -23.74412,9.33529l-2.36765,2.36765c-0.24037,0.25336 -0.56528,0.4098 -0.91324,0.43971c-0.37173,-0.04019 -0.7182,-0.20745 -0.98088,-0.47353l-2.33382,-2.33382c-8.70497,-0.51251 -17.02097,-3.78205 -23.74412,-9.33529h-5.41176c-0.35902,-0.01256 -0.70384,-0.14336 -0.98088,-0.37206c-0.24128,-0.28291 -0.37327,-0.64288 -0.37206,-1.01471l0.03382,-5.41176c-5.57891,-6.68461 -8.86325,-14.98438 -9.36912,-23.67647l-2.36765,-2.40147c-0.26608,-0.26268 -0.43334,-0.60915 -0.47353,-0.98088c0.0217,-0.35989 0.17879,-0.69824 0.43971,-0.94706l2.40147,-2.36765c0.50468,-8.6965 3.77557,-17.00409 9.33529,-23.71029v-5.41176M369.68971,69.65882h1.92794l0.03382,-1.89412l-0.98088,-0.94706l-1.92794,1.89412l-3.82206,3.82206l3.82206,3.82206l1.89412,1.89412l0.98088,-0.94706l0.03382,-1.92794h-1.96176l-1.92794,-1.89412v-1.92794l1.89412,-1.89412M450.15588,68.71176l-1.92794,-1.92794l-0.84559,0.98088v1.92794h1.89412l1.92794,1.89412v1.92794l-1.96176,1.92794h-1.92794v1.92794l0.94706,0.94706l1.89412,-1.89412l3.85588,-3.82206l-3.85588,-3.82206" fill="#515f6b"/><path d="M448.16029,65.43088c-0.30784,0.04241 -0.59313,0.18505 -0.81176,0.40588l-0.40588,0.43971c-1.21623,-7.82281 -4.95796,-15.03307 -10.65441,-20.53088l-0.16912,-0.20294c-5.48321,-5.58761 -12.62535,-9.25359 -20.36176,-10.45147l0.40588,-0.43971c0.22083,-0.21863 0.36347,-0.50392 0.40588,-0.81176c5.75863,0.96869 11.20618,3.28679 15.89706,6.76471c1.29156,0.94854 2.52286,1.97651 3.68676,3.07794l0.91324,0.87941l0.16912,0.20294l1.04853,1.08235c1.08889,1.15386 2.10553,2.37383 3.04412,3.65294c3.52127,4.686 5.86454,10.14977 6.83235,15.93088M447.38235,71.01176h1.35294v1.48824v1.52206h-1.35294v-1.52206v-1.48824M446.90882,78.79118l0.47353,0.47353c0.21449,0.22124 0.50415,0.354 0.81176,0.37206c-0.97791,5.75751 -3.32073,11.19701 -6.83235,15.86324l-3.07794,3.68676l-1.01471,1.04853v0l-1.08235,1.04853l-3.68676,3.11176c-4.67587,3.48203 -10.11352,5.80086 -15.86324,6.76471c-0.06343,-0.30799 -0.21639,-0.59038 -0.43971,-0.81176l-0.40588,-0.40588c7.81283,-1.22451 15.01729,-4.95137 20.53088,-10.62059v-0.03382h0.03382c5.64191,-5.51119 9.34471,-12.70318 10.55294,-20.49706M410.98824,110.38235v1.35294h-2.97647v0v-1.35294h1.48824h1.48824M403.20882,109.90882l-0.43971,0.43971c-0.22124,0.21449 -0.354,0.50415 -0.37206,0.81176c-5.76313,-0.99378 -11.21002,-3.33479 -15.89706,-6.83235l-3.61912,-3.04412l-1.11618,-1.04853l-0.20294,-0.16912l-0.87941,-0.91324c-1.08181,-1.16012 -2.0981,-2.37966 -3.04412,-3.65294c-3.50113,-4.66487 -5.82201,-10.10735 -6.76471,-15.86324c0.29023,-0.04492 0.5608,-0.17432 0.77794,-0.37206l0.43971,-0.43971c1.19406,7.72786 4.86119,14.86037 10.45147,20.32794l0.20294,0.16912c5.4848,5.66506 12.67055,9.38265 20.46324,10.58676M371.65147,74.05588h-1.35294l-0.03382,-1.55588l0.03382,-1.48824h1.35294l-0.03382,1.48824l0.03382,1.52206M372.09118,66.27647l-0.43971,-0.43971c-0.20942,-0.21476 -0.48199,-0.35697 -0.77794,-0.40588c0.94753,-5.7648 3.26768,-11.21715 6.76471,-15.89706c0.94212,-1.28591 1.97047,-2.50636 3.07794,-3.65294l1.04853,-1.11618l1.08235,-1.01471c1.15901,-1.08307 2.37863,-2.09941 3.65294,-3.04412c4.67618,-3.51633 10.12779,-5.85936 15.89706,-6.83235c0.04492,0.29023 0.17432,0.5608 0.37206,0.77794l0.43971,0.43971c-7.80277,1.21782 -14.99101,4.96046 -20.46324,10.65441c-5.71107,5.4869 -9.45553,12.7024 -10.65441,20.53088M407.97794,34.65147v-1.35294l1.52206,-0.03382l1.48824,0.03382v1.35294l-1.48824,-0.03382l-1.52206,0.03382" fill="#a6c4de"/><path d="M412.9234,123.54994l5.6,-0.2l1,0.25l0.75,0.8c0.1842,0.29969 0.2715,0.64889 0.25,1l-0.85,15.95c-0.02703,0.484 -0.22145,0.94356 -0.55,1.3c-0.32621,0.35032 -0.77263,0.5646 -1.25,0.6l-6.15,0.55l-1.25,-0.3l-0.8,-0.95l-0.55,0.85c-0.37732,0.35852 -0.87955,0.55582 -1.4,0.55h-5.25l-1,-0.25l-0.75,-0.75l-0.25,-1l0.4,-16.65c-0.00633,-0.51594 0.21278,-1.00896 0.6,-1.35c0.33245,-0.37017 0.80262,-0.58718 1.3,-0.6l5.85,-0.3h0.1l1.05,0.3l0.75,0.85l0.5,1c0.07773,-0.38137 0.26954,-0.73012 0.55,-1c0.34877,-0.38341 0.83277,-0.61645 1.35,-0.65M417.7734,139.29994l0.75,-13.95l-5.55,0.2l-0.2,8l-4.05,-8.5l-5.85,0.3l-0.35,14.6v2h5.2l0.2,-2.85l0.3,-5.8l3.3,8.5l6.15,-0.55l0.1,-1.95" fill="#999999"/><path d="M417.7734,139.29994l-0.1,1.95l-6.15,0.55l-3.3,-8.5v-1.95l3.3,8.45l6.25,-0.5M407.9234,139.09994l-0.2,2.85h-5.25v-2h5.3l0.1,-0.85" fill="#c7e0f7"/><path d="M407.9234,139.09994l-0.1,0.85h-5.3l0.35,-14.6l5.85,-0.3l4.05,8.45l0.2,-7.95l5.55,-0.2l-0.75,14l-6.25,0.5l-3.3,-8.5v1.95l-0.3,5.8" fill="#ffffff"/><path d="M472.1,63.14999l-0.15,2.3l-0.15,2.15c-0.07033,0.46734 -0.27935,0.90281 -0.6,1.25l-1,0.55l-0.2,3.3l0.35,0.2l0.7,0.75l0.25,1.05l-0.15,2.55l-0.15,2.6c-0.07696,1.02665 -0.92073,1.82714 -1.95,1.85l-10.1,0.25l-1,-0.25l-0.75,-0.75c-0.18678,-0.30089 -0.2903,-0.64598 -0.3,-1l0.4,-16.9c-0.02129,-0.53325 0.19916,-1.04765 0.6,-1.4c0.36399,-0.38447 0.87057,-0.60157 1.4,-0.6h10.8l1.05,0.3l0.7,0.75l0.25,1.05M464.9,67.64999l5,-0.25l0.15,-2.15l0.05,-2.2h-10.8l-0.35,14.9v2l10.1,-0.25l0.15,-1.75v-0.8l0.1,-0.85l0.05,-1.7h-5l0.1,-1.7l3.5,-0.1l0.15,-1.9l0.1,-1.75h-3.45l0.15,-1.5" fill="#999999"/><path d="M464.9,67.65v-2l5,-0.25l0.15,-2.15v-0.2h0.1l-0.15,2.2l-0.2,2.15l-4.9,0.25M468.1,70.9l-0.15,1.9l-3.5,0.1v-2h3.65M469.15,77.9l-0.15,1.75l-10.1,0.3v-2h10.2" fill="#c7e0f7"/><path d="M469.15,77.95h-10.2l0.35,-14.9h10.7v0.2l-0.2,2.15l-4.9,0.25v2l-0.1,1.5h3.4l-0.1,1.75h-3.65v2l-0.1,1.7h5l-0.05,1.7l-0.1,0.85v0.8" fill="#ffffff"/><path d="M363.32812,64.94908l-2.75,16.25c-0.10027,0.46408 -0.34539,0.8843 -0.7,1.2l-1.23,0.45l-6.65,0.1c-0.47291,0.00844 -0.93351,-0.151 -1.3,-0.45l-0.45,-0.5l-1.05,0.35l-6.7,0.25c-0.49158,0.03268 -0.97634,-0.1289 -1.35,-0.45c-0.38982,-0.28546 -0.64339,-0.72016 -0.7,-1.2l-2.8,-16c-0.05232,-0.33641 -0.0179,-0.68061 0.1,-1c0.13225,-0.36633 0.36859,-0.68608 0.68,-0.92c0.28535,-0.23117 0.63394,-0.37061 1,-0.4l5.8,-0.6c0.5163,-0.03289 1.02527,0.13557 1.42,0.47l0.15,0.1h0.05c0.35108,-0.33058 0.81789,-0.51012 1.3,-0.5h4.6c0.47924,0.00552 0.94058,0.18295 1.3,0.5h0.05l0.15,-0.1c0.39136,-0.38171 0.94011,-0.55597 1.48,-0.47l5.8,0.55c0.36649,0.02751 0.71563,0.16717 1,0.4l0.65,0.85l0.15,1.1M358.92812,78.92908l2.4,-14.35l-5.8,-0.55l-0.95,9.85l-1.8,-9.85h-4.6l-1.53,9.77l-1.22,-9.77l-5.78,0.57l2.1,12v0.4l0.2,1.3v0l0.35,2.25l6.7,-0.25l1.4,-7.8l1.45,8.4l6.65,-0.1l0.35,-1.9" fill="#999999"/><path d="M358.92812,78.94908h-6.35l-2.1,-8.4l-1.9,7.8h-6.6l-0.2,-1.32v-0.4l-2.13,-12.03l5.78,-0.57l1.22,9.77l1.53,-9.77h4.6l1.8,9.85l0.95,-9.85l5.8,0.55l-2.4,14.35" fill="#ffffff"/><path d="M358.92812,78.94908l-0.35,1.9l-6.65,0.1l-1.45,-8.4l-1.4,7.8l-6.7,0.25l-0.35,-2.25h6.55l1.9,-7.8l2.1,8.4h6.35" fill="#c7e0f7"/><path d="M410.34902,16.25l-0.2,0.5l-0.5,0.25l-0.6,0.1l-0.5,0.05l-2.4,-0.3l-2.2,-0.95l-0.3,3l-0.3,1.85l1.2,0.5l1.3,0.5l1.4,0.35l1.25,0.15l2.8,-0.4c0.823,-0.24477 1.58824,-0.6529 2.25,-1.2c0.65404,-0.50762 1.18406,-1.15734 1.55,-1.9c0.38246,-0.90052 0.56991,-1.87183 0.55,-2.85l-0.05,-0.9l-0.2,-0.8c-0.18119,-0.49546 -0.45241,-0.95315 -0.8,-1.35l-1.25,-0.95l-1.7,-0.4h-1.15l-0.7,-0.05l-0.6,-0.1l-0.5,-0.25l-0.2,-0.45c0.00077,-0.13212 0.05486,-0.25832 0.15,-0.35l0.35,-0.3l0.45,-0.15l0.55,-0.1h0.9l1.7,0.15l1.35,0.35l0.3,0.1l0.2,-2v-0.15l0.25,-2.6l-0.15,-0.05c-0.29678,-0.16484 -0.61721,-0.2829 -0.95,-0.35l-1.15,-0.3l-1.2,-0.1l-1.2,-0.05l-1.55,0.15l-1,0.25c-0.76813,0.26681 -1.48016,0.67368 -2.1,1.2c-0.60536,0.51045 -1.09897,1.14022 -1.45,1.85l-0.5,1.45l-0.1,1c-0.00187,0.64953 0.1168,1.29377 0.35,1.9c0.19221,0.55724 0.49876,1.06817 0.9,1.5l0.6,0.5l0.85,0.45l1.8,0.35h0.9l0.55,0.1l0.5,0.15l0.3,0.2h0.05l0.15,0.4M409.39902,2.8l1.25,-0.05l0.75,0.05h0.3l1.1,0.15h0.15l1.2,0.35l-0.05,-0.05l1.5,0.55l0.85,0.85c0.19678,0.34958 0.28388,0.75027 0.25,1.15l-0.1,1.2h-0.05l-0.5,4.4h0.05c0.52931,0.58001 0.93732,1.26001 1.2,2v0.1c0.23355,0.74427 0.35159,1.51995 0.35,2.3c0.02315,1.25212 -0.21527,2.49528 -0.7,3.65v0.1c-0.4889,1.0178 -1.20784,1.90792 -2.1,2.6h0.05l-0.8,0.6l-2.2,1l-3.4,0.5l-1.65,-0.2v0l-1.5,-0.3l-0.15,-0.05l-1.4,-0.55h0.1l-1.45,-0.6l-0.85,-0.8c-0.19788,-0.34859 -0.26857,-0.75507 -0.2,-1.15l0.55,-4.85l0.05,-0.4c0.06539,-0.29191 0.2232,-0.55494 0.45,-0.75l-0.3,-0.55l-0.3,-0.8v0.05c-0.33372,-0.84348 -0.50342,-1.74291 -0.5,-2.65c-0.0131,-1.1875 0.27962,-2.35838 0.85,-3.4v0c0.38442,-0.74599 0.89148,-1.42208 1.5,-2v0l0.5,-0.4v0c0.81261,-0.6949 1.7443,-1.23697 2.75,-1.6l2.45,-0.45" fill="#999999"/><path d="M403.44902,9.65l0.5,-1.45c0.35104,-0.70978 0.84465,-1.33955 1.45,-1.85c0.63477,-0.53172 1.36421,-0.93884 2.15,-1.2l1,-0.25l1.5,-0.15h1.2l1.2,0.1l1.15,0.3c0.33279,0.0671 0.65322,0.18516 0.95,0.35l0.15,0.05l-0.25,2.6v0.2l-1.85,-0.45l-1.7,-0.15h-0.9l-0.55,0.1l-0.45,0.15l-0.35,0.3c-0.09514,0.09168 -0.14923,0.21788 -0.15,0.35v2l0.2,0.45l0.5,0.25l0.6,0.1l0.7,0.05h1.1l1.7,0.4l1.3,0.9c0.34759,0.39685 0.61881,0.85454 0.8,1.35l0.2,0.8l-0.5,1.8c-0.35293,0.77884 -0.88385,1.4639 -1.55,2c-0.65518,0.50568 -1.40235,0.87927 -2.2,1.1l-2.8,0.4l-1.3,-0.15l-1.4,-0.35l-1.3,-0.5l-1,-0.4l0.3,-3l2.2,0.95l2.4,0.3l0.5,-0.05l0.6,-0.1l0.5,-0.25l0.2,-0.5v-2l-0.15,-0.4l-0.35,-0.25l-0.4,-0.1l-0.55,-0.1h-0.95l-1.8,-0.35l-1.45,-0.95c-0.40124,-0.43183 -0.70779,-0.94276 -0.9,-1.5l-0.25,-0.9" fill="#ffffff"/><path d="M414.44902,8.35l-0.2,2l-0.3,-0.1l-1.35,-0.35l-1.7,-0.15h-0.9l-0.55,0.1l-0.45,0.15l-0.35,0.3c-0.09514,0.09168 -0.14923,0.21788 -0.15,0.35v-2c0.00077,-0.13212 0.05486,-0.25832 0.15,-0.35l0.35,-0.3l0.45,-0.15l0.55,-0.1h0.9l1.7,0.15l1.85,0.45M415.59902,14.95l0.05,0.9c0.02705,0.99495 -0.16054,1.98405 -0.55,2.9c-0.36594,0.74266 -0.89597,1.39238 -1.55,1.9c-0.64694,0.54128 -1.39465,0.94912 -2.2,1.2l-2.8,0.4l-1.3,-0.15l-1.4,-0.35l-1.3,-0.5l-1.2,-0.5l0.25,-1.9l1,0.4l1.3,0.5l1.4,0.35l1.25,0.15l2.8,-0.4c0.823,-0.24477 1.58824,-0.6529 2.25,-1.2c0.66615,-0.5361 1.19707,-1.22116 1.55,-2l0.5,-1.75M410.34902,16.25l-0.15,-0.4h-0.05l-0.3,-0.2l-0.5,-0.2l-0.55,-0.1h-0.95l-1.8,-0.35l-0.85,-0.45l-0.6,-0.5c-0.40124,-0.43183 -0.70779,-0.94276 -0.9,-1.5c-0.2332,-0.60623 -0.35188,-1.25047 -0.35,-1.9l0.1,-1l0.25,0.9c0.19221,0.55724 0.49876,1.06817 0.9,1.5l1.45,0.95l1.8,0.35h0.9l0.55,0.1l0.5,0.15l0.35,0.25l0.15,0.4v2" fill="#c7e0f7"/></g></g></svg>